SplineFontDB: 3.2
FontName: ZameroSans-Bold
FullName: Zamero Sans Bold
FamilyName: Zamero Sans
Weight: Bold
Copyright: Copyright (c) 2024, Zamero Type Foundry
UComments: "2024-1-17: Created with FontForge (http://fontforge.org)"
Version: 001.000
ItalicAngle: 0
UnderlinePosition: -100
UnderlineWidth: 50
Ascent: 800
Descent: 200
InvalidEm: 0
LayerCount: 2
Layer: 0 0 "Back" 1
Layer: 1 0 "Fore" 0
XUID: [1021 474 1118879153 20760]
StyleMap: 0x0000
FSType: 0
OS2Version: 0
OS2_WeightWidthSlopeOnly: 0
OS2_UseTypoMetrics: 1
CreationTime: 1705525712
ModificationTime: 1724424764
OS2TypoAscent: 0
OS2TypoAOffset: 1
OS2TypoDescent: 0
OS2TypoDOffset: 1
OS2TypoLinegap: 90
OS2WinAscent: 0
OS2WinAOffset: 1
OS2WinDescent: 0
OS2WinDOffset: 1
HheadAscent: 0
HheadAOffset: 1
HheadDescent: 0
HheadDOffset: 1
Lookup: 1 0 0 "'ss12' Style Set 12 lookup 13" { "'ss12' Style Set 12 lookup 13-1" ("ss12") } ['ss12' ('DFLT' <'dflt' > 'grek' <'dflt' > 'latn' <'dflt' > ) ]
Lookup: 1 0 0 "'ss11' Style Set 11 lookup 12" { "'ss11' Style Set 11 lookup 12-1" ("ss11") } ['ss11' ('DFLT' <'dflt' > 'grek' <'dflt' > 'latn' <'dflt' > ) ]
Lookup: 1 0 0 "'ss08' Style Set 8 lookup 9" { "'ss08' Style Set 8 lookup 9-1" ("ss08") } ['ss08' ('DFLT' <'dflt' > 'grek' <'dflt' > 'latn' <'dflt' > ) ]
Lookup: 1 0 0 "'ss09' Style Set 9 lookup 10" { "'ss09' Style Set 9 lookup 10-1" ("ss09") } ['ss09' ('DFLT' <'dflt' > 'grek' <'dflt' > 'latn' <'dflt' > ) ]
Lookup: 1 0 0 "'ss10' Style Set 10 lookup 11" { "'ss10' Style Set 10 lookup 11-1" ("ss10") } ['ss10' ('DFLT' <'dflt' > 'grek' <'dflt' > 'latn' <'dflt' > ) ]
Lookup: 1 0 0 "'ss07' Style Set 7 lookup 8" { "'ss07' Style Set 7 lookup 8-1" ("ss07") } ['ss07' ('DFLT' <'dflt' > 'grek' <'dflt' > 'latn' <'dflt' > ) ]
Lookup: 1 0 0 "'ss06' Style Set 6 lookup 7" { "'ss06' Style Set 6 lookup 7-1" ("ss06") } ['ss06' ('DFLT' <'dflt' > 'grek' <'dflt' > 'latn' <'dflt' > ) ]

StartChar: I
Encoding: 73 73 0
Width: 434
Flags: W
HStem: 0 145<30 132.5 301.5 404> 30 115<132.5 301.5> 585 146<30 132.5 301.5 404> 585 116<132.5 301.5>
VStem: 30 374<0 145 585 731> 132.5 169<30 701>
AnchorPoint: "Anchor-3" 271 0 basechar 0
AnchorPoint: "Anchor-2" 218 0 basechar 0
AnchorPoint: "Anchor-0" 216 731 basechar 0
LayerCount: 2
Fore
SplineSet
404 0 m 1x88
 30 0 l 1
 30 145 l 1
 404 145 l 1
 404 0 l 1x88
404 585 m 1x28
 30 585 l 1
 30 731 l 1
 404 731 l 1
 404 585 l 1x28
132.5 30 m 5x54
 132.5 701 l 5
 301.5 701 l 5
 301.5 30 l 5
 132.5 30 l 5x54
EndSplineSet
Validated: 5
EndChar

StartChar: O
Encoding: 79 79 1
Width: 797
Flags: W
HStem: -9.99805 152.462<299.632 498.145> 586.659 152.462<299.632 498.145>
VStem: 35 164.849<245.278 483.845> 597.929 164.849<245.278 483.845>
AnchorPoint: "Anchor-3" 471 20 basechar 0
AnchorPoint: "Anchor-2" 398 0 basechar 0
AnchorPoint: "Anchor-0" 399 731 basechar 0
LayerCount: 2
Fore
SplineSet
199.848632812 364.561523438 m 0
 199.848632812 231.379882812 259.459960938 142.463867188 398.888671875 142.463867188 c 0
 538.317382812 142.463867188 597.928710938 231.379882812 597.928710938 364.561523438 c 0
 597.928710938 497.743164062 538.317382812 586.659179688 398.888671875 586.659179688 c 0
 259.459960938 586.659179688 199.848632812 497.743164062 199.848632812 364.561523438 c 0
35 364.561523438 m 0
 35 591.206054688 172.688476562 739.12109375 398.888671875 739.12109375 c 0
 625.088867188 739.12109375 762.77734375 591.206054688 762.77734375 364.561523438 c 0
 762.77734375 137.916992188 625.088867188 -9.998046875 398.888671875 -9.998046875 c 0
 172.688476562 -9.998046875 35 137.916992188 35 364.561523438 c 0
EndSplineSet
Validated: 1
EndChar

StartChar: H
Encoding: 72 72 2
Width: 719
Flags: W
HStem: 0 21G<55 224 495 664> 285 146<140 564> 711.008 20G<55 224 495 664>
VStem: 55 169<0 285 431 731.008> 140 84<285 431> 495 169<0 285 431 731.008> 495 69<285 431>
AnchorPoint: "Anchor-2" 357 0 basechar 0
AnchorPoint: "Anchor-0" 357 731 basechar 0
LayerCount: 2
Fore
SplineSet
564 285 m 1xea
 140 285 l 1
 140 431 l 1
 564 431 l 1
 564 285 l 1xea
495 0 m 1xe4
 495 731.0078125 l 1
 664 731.0078125 l 1
 664 0 l 1
 495 0 l 1xe4
55 0 m 1xf0
 55 731.0078125 l 1
 224 731.0078125 l 1
 224 0 l 1
 55 0 l 1xf0
EndSplineSet
Validated: 5
EndChar

StartChar: V
Encoding: 86 86 4
Width: 699
Flags: W
HStem: 0 21G<238.434 470.293> 711.008 20G<5 190.054 509.239 694>
AnchorPoint: "Anchor-2" 354 0.0117188 basechar 0
AnchorPoint: "Anchor-0" 353 731 basechar 0
LayerCount: 2
Fore
SplineSet
245 0 m 1
 5 731.0078125 l 1
 184 731.0078125 l 1
 353.606445312 170.694335938 l 1
 515 731.0078125 l 1
 694 731.0078125 l 1
 464 0 l 1
 245 0 l 1
EndSplineSet
Validated: 1
EndChar

StartChar: D
Encoding: 68 68 5
Width: 727
Flags: W
HStem: 0 150.352<224 426.015> 580.65 150.358<224 424.388>
VStem: 55 169<150.352 580.65> 527.929 164.849<249.212 480.156>
AnchorPoint: "Anchor-2" 356 0 basechar 0
AnchorPoint: "Anchor-0" 350 731 basechar 0
LayerCount: 2
Fore
SplineSet
55 0 m 1
 55 731.0078125 l 1
 318.888671875 731.0078125 l 2
 515.609624971 731.0078125 692.77734375 631.206054688 692.77734375 364.561523438 c 0
 692.77734375 97.9169921875 514.458235806 -2.2676305278e-14 318.888671875 0 c 2
 55 0 l 1
224 580.649809292 m 1
 224 150.352026119 l 1
 298.888671875 150.461914062 l 2
 430.013969929 150.604492188 527.928710938 188.959960938 527.928710938 364.561523438 c 0
 527.928710938 540.163085938 430.013969929 580.411132812 298.888671875 580.545898438 c 2
 224 580.649809292 l 1
EndSplineSet
Validated: 1
EndChar

StartChar: U
Encoding: 85 85 6
Width: 719
Flags: W
HStem: -9.99805 152.462<270.583 445.194> 711.008 20G<55 224 491.777 660.777>
VStem: 55 169<191.346 731.008> 491.777 169<191.346 731.008>
AnchorPoint: "Anchor-3" 451 18 basechar 0
AnchorPoint: "Anchor-2" 358 0.0117188 basechar 0
AnchorPoint: "Anchor-0" 362 731 basechar 0
LayerCount: 2
Fore
SplineSet
357.888671875 -9.998046875 m 0
 131.688476562 -9.998046875 55 102.375640235 55 274.561523438 c 2
 55 731.0078125 l 1
 224 731.0078125 l 1
 224 304.561523438 l 2
 224 207.359093816 242.459960938 142.463867188 357.888671875 142.463867188 c 0
 473.317382812 142.463867188 491.77734375 207.359093816 491.77734375 304.561523438 c 2
 491.77734375 731.0078125 l 1
 660.77734375 731.0078125 l 1
 660.77734375 274.561523438 l 2
 660.77734375 102.375640235 584.088867188 -9.998046875 357.888671875 -9.998046875 c 0
EndSplineSet
Validated: 1
EndChar

StartChar: L
Encoding: 76 76 7
Width: 568
Flags: W
HStem: 0 146<224 544> 711.008 20G<55 224>
VStem: 55 169<146 731.008>
AnchorPoint: "Anchor-2" 308 0 basechar 0
AnchorPoint: "Anchor-0" 139 731 basechar 0
LayerCount: 2
Fore
SplineSet
224 146 m 1
 544 146 l 1
 544 0 l 1
 55 0 l 1
 55 731.0078125 l 1
 224 731.0078125 l 1
 224 146 l 1
EndSplineSet
Validated: 1
EndChar

StartChar: F
Encoding: 70 70 8
Width: 574
Flags: W
HStem: 0 21G<55 224> 245 146<140 484> 585.008 146<224 544>
VStem: 55 169<0 245 391 585.008> 140 84<245 391>
AnchorPoint: "Anchor-2" 297 0 basechar 0
AnchorPoint: "Anchor-0" 306 731 basechar 0
LayerCount: 2
Fore
SplineSet
484 245 m 1xe8
 140 245 l 1
 140 391 l 1
 484 391 l 1
 484 245 l 1xe8
224 585.0078125 m 1xf0
 224 0 l 1
 55 0 l 1
 55 731.0078125 l 1
 544 731.0078125 l 1
 544 585.0078125 l 1
 224 585.0078125 l 1xf0
EndSplineSet
Validated: 5
EndChar

StartChar: C
Encoding: 67 67 9
Width: 667
Flags: W
HStem: -9.99805 152.462<311.009 546.016> 586.659 152.462<313.38 528.419>
VStem: 36 171.849<249.804 474.564>
AnchorPoint: "Anchor-0" 406 731 basechar 0
AnchorPoint: "Anchor-2" 406 0 basechar 0
LayerCount: 2
Fore
SplineSet
36 360.561523438 m 4
 36 589.626439045 169.974938555 739.12109375 405.888671875 739.12109375 c 4
 571.571008916 739.12109375 639.681640625 672.891601562 639.681640625 672.891601562 c 5
 578.35546875 535.138671875 l 5
 578.35546875 535.138671875 526.014255479 586.659179688 419.888671875 586.659179688 c 4
 271.35338494 586.659179688 207.848632812 496.141778129 207.848632812 360.561523438 c 4
 207.848632812 229.778496879 271.35338494 142.463867188 419.888671875 142.463867188 c 4
 535.033295902 142.463867188 596.018554688 188.595703125 596.018554688 188.595703125 c 5
 642.827148438 44.595703125 l 5
 642.827148438 44.595703125 570.452460077 -9.998046875 405.888671875 -9.998046875 c 4
 169.974938555 -9.998046875 36 136.337376545 36 360.561523438 c 4
EndSplineSet
Validated: 1
Substitution2: "'ss12' Style Set 12 lookup 13-1" C.ss12
EndChar

StartChar: E
Encoding: 69 69 10
Width: 574
Flags: W
HStem: 0 146<224 544> 292 146<140 484> 585.008 146<224 544>
VStem: 140 84<292 438>
AnchorPoint: "Anchor-3" 471 0 basechar 0
AnchorPoint: "Anchor-2" 306 0 basechar 0
AnchorPoint: "Anchor-0" 306 731 basechar 0
LayerCount: 2
Fore
SplineSet
484 292 m 1
 140 292 l 1
 140 438 l 1
 484 438 l 1
 484 292 l 1
224 585.0078125 m 1
 224 146 l 1
 544 146 l 1
 544 0 l 1
 55 0 l 1
 55 731.0078125 l 1
 544 731.0078125 l 1
 544 585.0078125 l 1
 224 585.0078125 l 1
EndSplineSet
Validated: 5
EndChar

StartChar: N
Encoding: 78 78 11
Width: 719
Flags: W
HStem: 0 21G<55 214 482.371 664> 711.008 20G<55 236.997 505 664>
VStem: 55 159<0 445.005> 505 159<298.6 731.008>
AnchorPoint: "Anchor-2" 365 0 basechar 0
AnchorPoint: "Anchor-0" 363 731 basechar 0
LayerCount: 2
Fore
SplineSet
55 0 m 1
 55 731.0078125 l 1
 224 731.0078125 l 1
 505 298.599609375 l 1
 505 731.0078125 l 1
 664 731.0078125 l 1
 664 0 l 1
 495 0 l 1
 214 445.004882812 l 1
 214 0 l 1
 55 0 l 1
EndSplineSet
Validated: 1
EndChar

StartChar: M
Encoding: 77 77 12
Width: 830
Flags: W
HStem: 0 21G<55 224 606 775> 711.008 20G<55 253.705 576.295 775>
VStem: 55 169<0 415.005> 606 169<0 415.005>
AnchorPoint: "Anchor-2" 411 0 basechar 0
AnchorPoint: "Anchor-0" 412 731 basechar 0
LayerCount: 2
Fore
SplineSet
55 0 m 1
 55 731.0078125 l 1
 244 731.0078125 l 1
 415 378.599609375 l 1
 586 731.0078125 l 1
 775 731.0078125 l 1
 775 0 l 1
 606 0 l 1
 606 415.004882812 l 1
 465 150 l 5
 365 150 l 5
 224 415.004882812 l 1
 224 0 l 1
 55 0 l 1
EndSplineSet
Validated: 1
EndChar

StartChar: G
Encoding: 71 71 13
Width: 799
Flags: W
HStem: -9.99805 152.462<306.174 503.494> 286 138<416 536.019 687.827 774> 286 18.5957<536.019 687.827> 586.659 152.462<314.065 534.547>
VStem: 35 171.849<245.278 476.942> 547.481 154.001<185.349 285.806>
AnchorPoint: "Anchor-2" 401 0 basechar 0
AnchorPoint: "Anchor-0" 408 731 basechar 0
LayerCount: 2
Fore
SplineSet
774 286 m 5xdc
 416 286 l 5
 416 424 l 5
 774 424 l 5
 774 286 l 5xdc
35 364.561523438 m 4
 35 591.206054688 176.472284282 739.12109375 408.888671875 739.12109375 c 4
 579.531707116 739.12109375 649.681640625 672.891601562 649.681640625 672.891601562 c 5
 588.35546875 535.138671875 l 5
 588.35546875 535.138671875 531.390088144 586.659179688 415.888671875 586.659179688 c 4
 269.454902478 586.659179688 206.848632812 497.743164062 206.848632812 364.561523438 c 4
 206.848632812 231.379882812 260.455078125 142.463867188 406.888671875 142.463867188 c 4
 507.297596209 142.463867188 547.481445312 186.262045972 547.481445312 252 c 4
 547.481445312 288.78559257 536.018554688 304.595703125 536.018554688 304.595703125 c 5
 687.827148438 304.595703125 l 5xbc
 687.827148438 304.595703125 701.482421875 285.24972273 701.482421875 222 c 4
 701.482421875 93.0859042083 604.418945312 -9.998046875 399.888671875 -9.998046875 c 4
 167.47265625 -9.998046875 35 137.916992188 35 364.561523438 c 4
EndSplineSet
Validated: 5
Substitution2: "'ss12' Style Set 12 lookup 13-1" G.ss12
Substitution2: "'ss08' Style Set 8 lookup 9-1" G.ss08
EndChar

StartChar: A
Encoding: 65 65 14
Width: 719
Flags: W
HStem: 0 21G<5 190.344 528.352 714> 135 146<162 556> 711.008 20G<257.887 451.387>
AnchorPoint: "Anchor-3" 661 0 basechar 0
AnchorPoint: "Anchor-2" 362 0 basechar 0
AnchorPoint: "Anchor-0" 352 731 basechar 0
LayerCount: 2
Fore
SplineSet
556 135 m 1
 162 135 l 1
 162 281 l 1
 556 281 l 1
 556 135 l 1
444 731.0078125 m 1
 714 0 l 1
 535 0 l 1
 355.393554688 540.313476562 l 1
 184 0 l 1
 5 0 l 1
 265 731.0078125 l 1
 444 731.0078125 l 1
EndSplineSet
Validated: 5
EndChar

StartChar: P
Encoding: 80 80 15
Width: 670
Flags: W
HStem: 0 21G<55 224> 224 142.352<164 431.088> 584.649 146.358<224 431.416>
VStem: 55 169<0 224 366.352 584.649> 164 60<224 366.352> 471.929 163.849<403.752 546.496>
AnchorPoint: "Anchor-2" 342 0 basechar 0
AnchorPoint: "Anchor-0" 339 731 basechar 0
LayerCount: 2
Fore
SplineSet
164 224 m 1xec
 164 366.3515625 l 1xec
 332.888671875 366.461914062 l 2
 412.48895039 366.581032774 471.928710938 385.899706784 471.928710938 474.561523438 c 0
 471.928710938 563.982010918 412.488959202 584.43363095 332.888671875 584.545898438 c 2
 224 584.649414062 l 1
 224 0 l 1
 55 0 l 1
 55 731.0078125 l 1xf4
 348.888671875 731.0078125 l 2
 499.834707979 731.0078125 635.77734375 661.164588003 635.77734375 474.561523438 c 0
 635.77734375 291.297915868 498.951235081 224 348.888671875 224 c 2
 164 224 l 1xec
EndSplineSet
Validated: 5
EndChar

StartChar: R
Encoding: 82 82 16
Width: 660
Flags: W
HStem: 0 21G<55 224 463.545 650> 256 140.352<164 391.558> 584.649 146.358<224 409.978>
VStem: 55 169<0 256 396.352 584.649> 164 60<256 396.352> 446.929 163.849<427.073 550.878>
AnchorPoint: "Anchor-2" 342 0.0117188 basechar 0
AnchorPoint: "Anchor-0" 325 731 basechar 0
LayerCount: 2
Back
SplineSet
124 383.3515625 m 1xec
 300.888671875 383.461914062 l 2
 383.403259307 383.509014034 462.928710938 404.697396723 462.928710938 501.561523438 c 0
 462.928710938 596.672668425 383.403268044 618.487535435 300.888671875 618.545898438 c 2
 184 618.649414062 l 1
 184 0 l 1
 55 0 l 1
 55 731.0078125 l 1xf4
 308.888671875 731.0078125 l 2
 457.204101562 731.0078125 590.77734375 670.696715458 590.77734375 509.561523438 c 0
 590.77734375 368.108063266 474.688476562 326.276367188 474.688476562 326.276367188 c 1
 474.688476562 326.276367188 541.552553421 306.984702917 573.702148438 195.399414062 c 6
 630 0 l 5
 492 0 l 5
 447 165 l 6
 420.732434887 256.417062766 391.813913829 266 270 266 c 2
 124 266 l 1
 124 383.3515625 l 1xec
EndSplineSet
Fore
SplineSet
164 396.3515625 m 1xec
 318.888671875 396.461914062 l 2
 392.19140625 396.50390625 446.928710938 413.202148438 446.928710938 489.561523438 c 0
 446.928710938 566.786132812 392.19140625 584.486328125 318.888671875 584.545898438 c 2
 224 584.649414062 l 1
 224 0 l 1
 55 0 l 1
 55 731.0078125 l 1xf4
 328.888671875 731.0078125 l 2
 477.204101562 731.0078125 610.77734375 669.334960938 610.77734375 504.561523438 c 0
 610.77734375 366.966898948 500.688476562 326.276367188 500.688476562 326.276367188 c 1
 500.688476562 326.276367188 560.958336654 309.047119244 593.702148438 195.399414062 c 2
 650 0 l 1
 469 0 l 1
 424 165 l 2
 401.579777644 247.207481971 382.220703125 256 290 256 c 2
 164 256 l 1
 164 396.3515625 l 1xec
EndSplineSet
Substitution2: "'ss01' Style Set 1 lookup 2-1" R.ss01
EndChar

StartChar: T
Encoding: 84 84 17
Width: 614
Flags: W
HStem: 0 21G<222.5 391.5> 585 146<30 222.5 391.5 584> 585 116<222.5 391.5>
VStem: 222.5 169<0 701>
AnchorPoint: "Anchor-2" 311 0.0117188 basechar 0
AnchorPoint: "Anchor-0" 310 731 basechar 0
LayerCount: 2
Fore
SplineSet
584 585 m 1xd0
 30 585 l 1
 30 731 l 1
 584 731 l 1
 584 585 l 1xd0
222.5 0 m 1
 222.5 701 l 1
 391.5 701 l 1xb0
 391.5 0 l 1
 222.5 0 l 1
EndSplineSet
Validated: 5
EndChar

StartChar: Q
Encoding: 81 81 18
Width: 846
Flags: W
HStem: 0.00195312 152.462<296.355 627.055 688.938 751.618> 586.659 152.462<297.407 500.371>
VStem: 35 164.849<252.42 486.703> 597.929 164.849<254.417 486.703>
AnchorPoint: "Anchor-2" 518 0 basechar 0
AnchorPoint: "Anchor-0" 399 731 basechar 0
LayerCount: 2
Fore
SplineSet
35 369.561523438 m 0
 35 593.18057424 172.688476562 739.12109375 398.888671875 739.12109375 c 0
 625.088867188 739.12109375 762.77734375 593.18057424 762.77734375 369.561523438 c 0
 762.77734375 237 688.938476562 154.598632812 688.938476562 154.598632812 c 1
 745.066464222 154.960177623 814.888671875 159.001953125 814.888671875 159.001953125 c 1
 821.888671875 13.001953125 l 1
 821.888671875 13.001953125 720.413325642 0.001953125 434 0.001953125 c 0
 165.367541758 0.001953125 35 145.942472635 35 369.561523438 c 0
199.848632812 369.561523438 m 0
 199.848632812 239.378150396 259.459960938 152.463867188 398.888671875 152.463867188 c 0
 538.317382812 152.463867188 597.928710938 239.378150396 597.928710938 369.561523438 c 0
 597.928710938 499.744896479 538.317382812 586.659179688 398.888671875 586.659179688 c 0
 259.459960938 586.659179688 199.848632812 499.744896479 199.848632812 369.561523438 c 0
EndSplineSet
Validated: 1
Substitution2: "'ss10' Style Set 10 lookup 11-1" Q.ss10
Substitution2: "'ss09' Style Set 9 lookup 10-1" Q.ss09
EndChar

StartChar: B
Encoding: 66 66 19
Width: 640
Flags: W
HStem: 0 146.46<224 421.972> 294.656 141.695<164 401.529> 584.649 146.358<224 400.225>
VStem: 164 60<294.656 436.352> 422.929 163.849<458.719 560.439> 445.929 163.849<170.562 273.171>
AnchorPoint: "Anchor-2" 343 0 basechar 0
AnchorPoint: "Anchor-0" 320 731 basechar 0
LayerCount: 2
Fore
SplineSet
496.662109375 376.4375 m 1xf8
 496.662109375 376.4375 609.77734375 342.813198592 609.77734375 206.446289062 c 0xf4
 609.77734375 56.225709353 485.197709119 -1.54459778301e-14 345.888671875 0 c 2
 55 0 l 1
 55 731.0078125 l 1
 324.888671875 731.0078125 l 2
 462.6809962 731.0078125 586.77734375 674.782103147 586.77734375 524.561523438 c 0
 586.77734375 408.693422378 496.662109375 376.4375 496.662109375 376.4375 c 1xf8
224 146.46 m 1
 333.888671875 146.461914062 l 2
 397.962334358 146.462742481 445.928710938 160.481816919 445.928710938 221.446289062 c 0xf4
 445.928710938 281.40158586 398.031387966 294.453598187 333.888671875 294.545898438 c 2
 164 294.65625 l 1
 164 436.3515625 l 1
 311.888671875 436.461914062 l 2
 375.458733485 436.593583946 422.928710938 449.60622664 422.928710938 509.561523438 c 0xf8
 422.928710938 570.525995581 375.459011776 584.492809961 311.888671875 584.545898438 c 2
 224 584.649414062 l 1
 224 146.46 l 1
EndSplineSet
Validated: 5
EndChar

StartChar: J
Encoding: 74 74 20
Width: 406
Flags: W
HStem: -10 149<22.3017 188.762> 585.008 146<50 208>
VStem: 208 169<161.046 585.008>
AnchorPoint: "Anchor-2" 175 0 basechar 0
AnchorPoint: "Anchor-0" 209 731 basechar 0
LayerCount: 2
Fore
SplineSet
128 139 m 0
 184.32421875 139 208 163.811523438 208 222 c 2
 208 585.0078125 l 1
 50 585.0078125 l 1
 50 731.0078125 l 1
 377 731.0078125 l 1
 377 201 l 2
 377 74.4647758463 317.5 -10 174 -10 c 0
 77.0537109375 -10 10 10 10 10 c 1
 24 154 l 1
 24 154 67.3388671875 139 128 139 c 0
EndSplineSet
Validated: 1
EndChar

StartChar: K
Encoding: 75 75 21
Width: 669
Flags: W
HStem: 0 21G<55 224 432.373 659> 711.008 20G<55 224 430.455 649>
VStem: 55 169<0 311 401 731.008> 205 19<311 401>
AnchorPoint: "Anchor-2" 335 0 basechar 0
AnchorPoint: "Anchor-0" 329 731 basechar 0
LayerCount: 2
Fore
SplineSet
448 0 m 1xd0
 205 311 l 1
 205 401 l 1
 445 731.0078125 l 1
 649 731.0078125 l 1
 365 372 l 1
 659 0 l 1
 448 0 l 1xd0
55 0 m 1xe0
 55 731.0078125 l 1
 224 731.0078125 l 1
 224 0 l 1
 55 0 l 1xe0
EndSplineSet
Validated: 5
EndChar

StartChar: S
Encoding: 83 83 22
Width: 591
Flags: W
HStem: -10 147.462<135.275 362.413> 590.659 148.462<235.117 443.3>
VStem: 39.627 174.312<479.149 567.112> 388.338 168.182<162.211 250.227>
AnchorPoint: "Anchor-2" 292 0.0117188 basechar 0
AnchorPoint: "Anchor-0" 303 731 basechar 0
LayerCount: 2
Fore
SplineSet
283.3828125 283.140625 m 0
 96.6642994368 333.667867772 39.626953125 402.697265625 39.626953125 517 c 0
 39.626953125 652.115234375 141.640848021 739.12109375 309.233398438 739.12109375 c 0
 456.921038826 739.12109375 528.745117188 688.891601562 528.745117188 688.891601562 c 1
 486.37109375 548.138671875 l 1
 486.37109375 548.138671875 424.077148438 590.659179688 326.36328125 590.659179688 c 0
 248.8125 590.659179688 213.938476562 567.23046875 213.938476562 523 c 0
 213.938476562 485.005859375 236.010742188 465.202148438 318.997070312 444.081054688 c 0
 504.855317759 396.777727053 556.51953125 328.129882812 556.51953125 212 c 0
 556.51953125 75.1845703125 461.572265625 -10 283.8046875 -10 c 0
 130.188476562 -10 32.81640625 42.2294921875 32.81640625 42.2294921875 c 1
 69.97265625 185.982421875 l 1
 69.97265625 185.982421875 156.142578125 137.461914062 266.696289062 137.461914062 c 0
 349.104492188 137.461914062 388.337890625 161.45703125 388.337890625 208 c 0
 388.337890625 246.108398438 370.831054688 259.4765625 283.3828125 283.140625 c 0
EndSplineSet
Validated: 1
EndChar

StartChar: W
Encoding: 87 87 23
Width: 949
Flags: W
HStem: 0 21G<159.65 381.921 561.382 783.514> 711.008 20G<5 187.576 761.358 944>
AnchorPoint: "Anchor-2" 475 0 basechar 0
AnchorPoint: "Anchor-0" 474 731 basechar 0
LayerCount: 2
Fore
SplineSet
164 0 m 1
 5 731.0078125 l 1
 184 731.0078125 l 1
 280.606445312 190.694335938 l 1
 395 671.0078125 l 1
 554 671.0078125 l 1
 666.606445312 190.694335938 l 1
 765 731.0078125 l 1
 944 731.0078125 l 1
 779 0 l 1
 566 0 l 1
 474.5 396.271484375 l 1
 377 0 l 1
 164 0 l 1
EndSplineSet
Validated: 1
EndChar

StartChar: X
Encoding: 88 88 24
Width: 689
Flags: W
HStem: 0 21G<10 222.447 466.553 679> 711.008 20G<20 224.606 464.394 669>
VStem: 300 89<311 401>
AnchorPoint: "Anchor-2" 352 0 basechar 0
AnchorPoint: "Anchor-0" 344 731 basechar 0
LayerCount: 2
Fore
SplineSet
211 0 m 1
 10 0 l 1
 236 372 l 1
 20 731.0078125 l 1
 214 731.0078125 l 1
 389 401 l 1
 389 311 l 1
 211 0 l 1
478 0 m 1
 300 311 l 1
 300 401 l 1
 475 731.0078125 l 1
 669 731.0078125 l 1
 453 372 l 1
 679 0 l 1
 478 0 l 1
EndSplineSet
Validated: 5
EndChar

StartChar: Y
Encoding: 89 89 25
Width: 689
Flags: W
HStem: 0 21G<260 429> 262 99<266 423> 711.008 20G<20 213.49 475.51 669>
VStem: 260 169<0 361>
AnchorPoint: "Anchor-2" 345 0 basechar 0
AnchorPoint: "Anchor-0" 346 731 basechar 0
LayerCount: 2
Fore
SplineSet
266 262 m 1
 20 731.0078125 l 1
 204 731.0078125 l 1
 344.5 434.916015625 l 1
 485 731.0078125 l 1
 669 731.0078125 l 1
 423 262 l 1
 266 262 l 1
260 0 m 1
 260 361 l 1
 429 361 l 1
 429 0 l 1
 260 0 l 1
EndSplineSet
Validated: 5
EndChar

StartChar: Z
Encoding: 90 90 26
Width: 594
Flags: W
HStem: 0 146<250 564> 585 146<40 344>
AnchorPoint: "Anchor-2" 306 0 basechar 0
AnchorPoint: "Anchor-0" 294 731 basechar 0
LayerCount: 2
Fore
SplineSet
564 0 m 1
 30 0 l 1
 30 96 l 1
 344 585 l 1
 40 585 l 1
 40 731 l 1
 554 731 l 1
 554 625 l 1
 250 146 l 1
 564 146 l 1
 564 0 l 1
EndSplineSet
Validated: 1
EndChar

StartChar: ampersand
Encoding: 38 38 27
Width: 754
Flags: W
HStem: -10 145.305<556.032 739.024> -10 135.093<211.462 367.685> 598.762 140.23<339.884 495.813>
VStem: 35 150.837<150.262 270.333> 151.551 163.376<470.719 574.316>
LayerCount: 2
Fore
SplineSet
291.267578125 468.821289062 m 1x70
 321.341796875 360.713867188 l 0
 321.341796875 360.713867188 185.836914062 302.410939633 185.836914062 212 c 0
 185.836914062 153.622070312 220.88671875 125.092773438 276.900390625 125.092773438 c 0
 373.332373198 125.092773438 481.302605459 203.140672201 566.25 453.205078125 c 1
 709.538085938 396.8046875 l 1
 581.58984375 121.071289062 445 -10 275.928710938 -10 c 0
 133.41015625 -10 35 70.9521484375 35 188.185546875 c 0
 35 393.642578125 291.267578125 468.821289062 291.267578125 468.821289062 c 1x70
742.451171875 -4.4453125 m 1
 742.451171875 -4.4453125 721.75 -10 666 -10 c 0
 369 -10 151.55078125 327.083984375 151.55078125 532 c 0
 151.55078125 667.366210938 240.127773209 738.9921875 387.022460938 738.9921875 c 0
 482.85582644 738.9921875 541.400390625 703.649414062 541.400390625 703.649414062 c 1
 504.5703125 571.848632812 l 1
 504.5703125 571.848632812 470.080874917 598.76171875 411.022460938 598.76171875 c 0
 346.589072261 598.76171875 314.926757812 571.949230964 314.926757812 508 c 0
 314.926757812 384.10099781 454.592359939 135.3046875 670.51171875 135.3046875 c 0xa8
 711.928710938 135.3046875 735.62890625 138.5546875 735.62890625 138.5546875 c 1
 742.451171875 -4.4453125 l 1
EndSplineSet
Validated: 5
EndChar

StartChar: i
Encoding: 105 105 28
Width: 269
Flags: W
HStem: 0 21G<55 214> 481.011 20G<55 214> 563.551 186.449<71.8753 197.124>
VStem: 41.8867 185.227<593.738 719.813> 55 159<0 501.011>
AnchorPoint: "Anchor-3" 141 0 basechar 0
AnchorPoint: "Anchor-2" 137 0 basechar 0
LayerCount: 2
Fore
SplineSet
55 0 m 5xe8
 55 501.010742188 l 5
 214 501.010742188 l 5
 214 0 l 5
 55 0 l 5xe8
41.88671875 656.775390625 m 0xf0
 41.88671875 713.252366234 78.3921276895 750 134.499023438 750 c 0
 190.606886418 750 227.11328125 713.252366234 227.11328125 656.775390625 c 0
 227.11328125 600.297394673 190.606886418 563.55078125 134.499023438 563.55078125 c 0
 78.3921276895 563.55078125 41.88671875 600.297394673 41.88671875 656.775390625 c 0xf0
EndSplineSet
Validated: 1
EndChar

StartChar: o
Encoding: 111 111 29
Width: 589
Flags: W
HStem: -9.99805 142.462<228.39 360.278> 368.284 142.649<227.441 361.284>
VStem: 35 154.849<169.94 330.841> 399.929 154.849<170.999 329.837>
AnchorPoint: "Anchor-3" 357 28 basechar 0
AnchorPoint: "Anchor-2" 294 0 basechar 0
AnchorPoint: "Anchor-0" 294 501.011 basechar 0
LayerCount: 2
Fore
SplineSet
189.848632812 253.561523438 m 0
 189.848632812 180.944888001 221.008016301 132.463867188 293.888671875 132.463867188 c 0
 368.170339141 132.463867188 399.928710938 180.944888001 399.928710938 253.561523438 c 0
 399.928710938 322.355367705 368.203681264 368.284179688 294 368.284179688 c 0
 221.041358424 368.284179688 189.848632812 322.355367705 189.848632812 253.561523438 c 0
35 253.561523438 m 0
 35 409.296356709 132.958495509 510.93359375 293.888671875 510.93359375 c 0
 456.062086697 510.93359375 554.77734375 409.296356709 554.77734375 253.561523438 c 0
 554.77734375 94.0826581128 456.062086697 -9.998046875 293.888671875 -9.998046875 c 0
 132.958495509 -9.998046875 35 94.0826581128 35 253.561523438 c 0
EndSplineSet
Validated: 1
EndChar

StartChar: n
Encoding: 110 110 30
Width: 595
Flags: W
HStem: 0 21G<55 214 381.777 540.777> 380.284 130.649<250.688 358.686> 481.011 20G<55 214>
VStem: 55 159<0 501.011> 381.777 159<0 353.487>
AnchorPoint: "Anchor-2" 305 0 basechar 0
AnchorPoint: "Anchor-0" 295 501.011 basechar 0
LayerCount: 2
Fore
SplineSet
214 284 m 4xd8
 149 293.561523438 l 0
 170.874026638 444 222.742126105 510.93359375 352 510.93359375 c 0
 476.666135504 510.93359375 540.77734375 444.084682028 540.77734375 304.561523438 c 2
 540.77734375 0 l 1
 381.77734375 0 l 1
 381.77734375 287.561523438 l 2
 381.77734375 346.298243276 357.098863291 380.284179688 299 380.284179688 c 4
 239.457003096 380.284179688 214 341.737146954 214 284 c 4xd8
55 0 m 1
 55 501.010742188 l 1
 214 501.010742188 l 1xb8
 214 0 l 1
 55 0 l 1
EndSplineSet
Validated: 5
EndChar

StartChar: m
Encoding: 109 109 31
Width: 882
Flags: W
HStem: 0 21G<55 214 361.777 520.777 668.555 827.555> 380.284 130.649<245.314 402.303 552.091 709.08> 481.011 20G<55 214>
VStem: 55 159<0 501.011> 361.777 159<0 349.964> 668.555 159<0 361.117>
CounterMasks: 1 1c
AnchorPoint: "Anchor-2" 445 0 basechar 0
AnchorPoint: "Anchor-0" 454 501.011 basechar 0
LayerCount: 2
Fore
SplineSet
520.77734375 284 m 0xdc
 455.77734375 293.561523438 l 0
 476.57383213 444 525.886852806 510.93359375 648.77734375 510.93359375 c 0
 766.83960757 510.93359375 827.5546875 447.323924219 827.5546875 314.561523438 c 2
 827.5546875 0 l 1
 668.5546875 0 l 1
 668.5546875 297.561523438 l 2
 668.5546875 349.963575762 646.857515614 380.284179688 595.77734375 380.284179688 c 0
 543.239405305 380.284179688 520.77734375 341.737146953 520.77734375 284 c 0xdc
214 284 m 0
 149 293.561523438 l 0
 169.79648838 444 219.109509056 510.93359375 342 510.93359375 c 0
 460.06226382 510.93359375 520.77734375 447.323924219 520.77734375 314.561523438 c 2
 520.77734375 0 l 1
 361.77734375 0 l 1
 361.77734375 297.561523438 l 2
 361.77734375 349.963575762 340.080171864 380.284179688 289 380.284179688 c 0
 236.462061555 380.284179688 214 341.737146954 214 284 c 0
55 0 m 1
 55 501.010742188 l 1
 214 501.010742188 l 1xbc
 214 0 l 1
 55 0 l 1
EndSplineSet
Validated: 5
EndChar

StartChar: p
Encoding: 112 112 32
Width: 602
Flags: W
HStem: -9.99805 136.462<242.444 375.597> 375.284 135.649<252.635 376.762> 481.011 20G<55 214>
VStem: 55 159<-180 501.011> 126.151 87.8486<66.4394 183.562> 151.151 62.8486<283.562 425.747> 414.08 154.849<168.978 335.354>
AnchorPoint: "Anchor-2" 136 -179.988 basechar 0
AnchorPoint: "Anchor-0" 294 501.011 basechar 0
LayerCount: 2
Fore
SplineSet
55 -180 m 1xb2
 55 501.010742188 l 1
 214 501.010742188 l 1
 214 -180 l 1
 55 -180 l 1xb2
214 213.561523438 m 1
 214 171.128058975 242.164441948 126.463867188 308.040039062 126.463867188 c 0
 382.321706328 126.463867188 414.080078125 177.346966901 414.080078125 253.561523438 c 0
 414.080078125 326.552942322 382.355048451 375.284179688 308.151367188 375.284179688 c 0
 242.197784071 375.284179688 214 338.56333682 214 283.561523438 c 1xd2
 151.151367188 283.561523438 l 1xc6
 151.151367188 425.746590474 227.465663421 510.93359375 345 510.93359375 c 0
 487.240588621 510.93359375 568.928710938 409.296356709 568.928710938 253.561523438 c 0
 568.928710938 94.0826581128 483.456780902 -9.998046875 343.040039062 -9.998046875 c 0
 208.217870276 -9.998046875 126.151367188 66.4393843718 126.151367188 183.561523438 c 1xca
 214 213.561523438 l 1
EndSplineSet
Validated: 5
EndChar

StartChar: j
Encoding: 106 106 33
Width: 269
Flags: W
HStem: -190 139<-100.638 37.3453> 481.011 20G<55 214> 563.551 186.449<71.8753 197.124>
VStem: 41.8867 185.227<593.738 719.813> 55 159<-34.8565 501.011>
AnchorPoint: "Anchor-2" 17 -179.988 basechar 0
LayerCount: 2
Fore
SplineSet
55 32 m 2xe8
 55 501.010742188 l 1
 214 501.010742188 l 1
 214 21 l 2
 214 -106 156.25862069 -190 17 -190 c 0
 -59.8476681593 -190 -113 -174 -113 -174 c 1
 -99 -40 l 1
 -99 -40 -65.6624098558 -51 -19 -51 c 0
 33.0999023437 -51 55 -26 55 32 c 2xe8
41.88671875 656.775390625 m 0xf0
 41.88671875 713.252366234 78.3921276895 750 134.499023438 750 c 0
 190.606886418 750 227.11328125 713.252366234 227.11328125 656.775390625 c 0
 227.11328125 600.297394673 190.606886418 563.55078125 134.499023438 563.55078125 c 0
 78.3921276895 563.55078125 41.88671875 600.297394673 41.88671875 656.775390625 c 0xf0
EndSplineSet
Validated: 1
EndChar

StartChar: k
Encoding: 107 107 34
Width: 555
Flags: W
HStem: 0 21G<55 214 334.445 545> 481.011 20G<331.001 535> 731.002 20G<55 214>
VStem: 55 159<0 211 301 751.002> 205 9<211 301>
AnchorPoint: "Anchor-2" 275 0 basechar 0
AnchorPoint: "Anchor-0" 134 749.002 basechar 0
LayerCount: 2
Fore
SplineSet
348 0 m 1xe8
 205 211 l 1
 205 301 l 1
 345 501.010742188 l 1
 535 501.010742188 l 1
 345 272 l 1
 545 0 l 1
 348 0 l 1xe8
55 0 m 1xf0
 55 751.001953125 l 1
 214 751.001953125 l 1
 214 0 l 1
 55 0 l 1xf0
EndSplineSet
Validated: 5
EndChar

StartChar: l
Encoding: 108 108 35
Width: 381
Flags: W
HStem: -10.0088 139<223.889 339.371> 731.002 20G<55 214>
VStem: 55 159<142.109 751.002>
AnchorPoint: "Anchor-2" 243 0 basechar 0
AnchorPoint: "Anchor-0" 134 749.002 basechar 0
LayerCount: 2
Fore
SplineSet
214 191.991210938 m 2
 214 147.967114552 232.940625 128.991210938 278 128.991210938 c 0
 312.996807392 128.991210938 338 139.991210938 338 139.991210938 c 1
 352 5.9912109375 l 1
 352 5.9912109375 307.024949981 -10.0087890625 242 -10.0087890625 c 0
 109.810344827 -10.0087890625 55 58.0670403214 55 160.991210938 c 2
 55 751.001953125 l 1
 214 751.001953125 l 1
 214 191.991210938 l 2
EndSplineSet
Validated: 1
EndChar

StartChar: h
Encoding: 104 104 36
Width: 595
Flags: W
HStem: 0 21G<55 214 381.777 540.777> 380.284 130.649<250.688 358.686> 731.002 20G<55 214>
VStem: 55 159<0 751.002> 381.777 159<0 353.487>
AnchorPoint: "Anchor-2" 299 0 basechar 0
AnchorPoint: "Anchor-0" 134 751.004 basechar 0
LayerCount: 2
Fore
SplineSet
55 0 m 1
 55 751.001953125 l 1
 214 751.001953125 l 1
 214 0 l 1
 55 0 l 1
214 284 m 0
 149 293.561523438 l 0
 170.874026638 444 222.742126105 510.93359375 352 510.93359375 c 0
 476.666135504 510.93359375 540.77734375 444.084682028 540.77734375 304.561523438 c 2
 540.77734375 0 l 1
 381.77734375 0 l 1
 381.77734375 287.561523438 l 2
 381.77734375 346.298243276 357.098863291 380.284179688 299 380.284179688 c 0
 239.457003096 380.284179688 214 341.737146954 214 284 c 0
EndSplineSet
Validated: 5
EndChar

StartChar: q
Encoding: 113 113 37
Width: 602
Flags: W
HStem: -9.99805 136.462<231.403 364.212> 375.284 135.649<230.238 354.365> 481.011 20G<393 552>
VStem: 38.0713 154.849<168.978 335.354> 393 159<-180 501.011> 393 67.8486<66.4394 183.562 283.562 425.747>
AnchorPoint: "Anchor-2" 477 -179.988 basechar 0
AnchorPoint: "Anchor-0" 308 501.011 basechar 0
LayerCount: 2
Fore
SplineSet
552 -180 m 5xb8
 393 -180 l 5
 393 501.010742188 l 5
 552 501.010742188 l 5
 552 -180 l 5xb8
393 205.561523438 m 5
 460.848632812 183.561523438 l 5xd4
 460.848632812 66.4393843718 386.349745163 -9.998046875 263.959960938 -9.998046875 c 4
 123.543219098 -9.998046875 38.0712890625 94.0826581126 38.0712890625 253.561523438 c 4
 38.0712890625 409.296356709 119.759411379 510.93359375 262 510.93359375 c 4
 379.534336579 510.93359375 455.848632812 425.746590474 455.848632812 283.561523438 c 5
 393 275.561523438 l 5
 393 335.360564954 364.802215929 375.284179688 298.848632812 375.284179688 c 4xd8
 224.644951549 375.284179688 192.919921875 326.552942321 192.919921875 253.561523438 c 4
 192.919921875 177.346966901 224.678293672 126.463867188 298.959960938 126.463867188 c 4
 364.835558052 126.463867188 393 167.025611795 393 205.561523438 c 5
EndSplineSet
Validated: 5
EndChar

StartChar: g
Encoding: 103 103 38
Width: 602
Flags: W
HStem: -190 125<150.891 359.825> 10.002 125.462<231.403 361.26> 381.284 129.649<228.576 355.051> 481.011 20G<393 552>
VStem: 38.0713 154.849<177.16 343.451> 393 159<-33.3785 39 213.562 501.011> 393 67.8486<90.3884 213.562 293.562 429.493>
AnchorPoint: "Anchor-2" 295 -179.988 basechar 0
AnchorPoint: "Anchor-0" 308 501.011 basechar 0
LayerCount: 2
Fore
SplineSet
393 39 m 2xdc
 393 501.010742188 l 1
 552 501.010742188 l 1
 552 31 l 2
 552 -102.018957346 476.672413794 -190 295 -190 c 0
 160.812148676 -190 68 -147 68 -147 c 1
 102 -22 l 1
 102 -22 174.092538687 -65 275 -65 c 0
 358.078222656 -65 393 -33.6746987952 393 39 c 2xdc
393 225.561523438 m 1
 460.848632812 213.561523438 l 1xea
 460.848632812 90.3884234776 386.349745163 10.001953125 263.959960938 10.001953125 c 0
 123.543219098 10.001953125 38.0712890625 110.133619007 38.0712890625 263.561523438 c 0
 38.0712890625 413.245395815 119.759411379 510.93359375 262 510.93359375 c 0
 379.534336579 510.93359375 455.848632812 429.493180948 455.848632812 293.561523438 c 1
 393 285.561523438 l 1
 393 342.961950887 361.604239313 381.284179688 294.848632812 381.284179688 c 0xec
 223.446974933 381.284179688 192.919921875 334.154328255 192.919921875 263.561523438 c 0
 192.919921875 186.747313384 224.678293672 135.463867188 298.959960938 135.463867188 c 0
 364.835558052 135.463867188 393 181.666476668 393 225.561523438 c 1
EndSplineSet
Validated: 5
EndChar

StartChar: f
Encoding: 102 102 39
Width: 398
Flags: W
HStem: 0 21G<95 254> 373 128.011<14 382> 630.011 131<270.607 409.638>
VStem: 95 159<0 615.812>
AnchorPoint: "Anchor-2" 173 0 basechar 0
AnchorPoint: "Anchor-0" 296 752.002 basechar 0
LayerCount: 2
Fore
SplineSet
14 501.010742188 m 1
 382 501.010742188 l 1
 382 373 l 1
 14 373 l 1
 14 501.010742188 l 1
254 557.010742188 m 2
 254 0 l 1
 95 0 l 1
 95 570.010742188 l 2
 95 684.97265625 152.741210938 761.010742188 292 761.010742188 c 4
 368.84765625 761.010742188 422 745.010742188 422 745.010742188 c 1
 408 619.010742188 l 1
 408 619.010742188 374.662109375 630.010742188 328 630.010742188 c 0
 275.900390625 630.010742188 254 608.022460938 254 557.010742188 c 2
EndSplineSet
Validated: 5
EndChar

StartChar: c
Encoding: 99 99 40
Width: 492
Flags: W
HStem: -9.99805 133.462<236.528 412.694> 375.284 135.649<231.922 390.747>
VStem: 35 154.849<170.326 331.105>
AnchorPoint: "Anchor-0" 291 501.011 basechar 0
AnchorPoint: "Anchor-2" 297 0 basechar 0
LayerCount: 2
Fore
SplineSet
35 253.561523438 m 4
 35 409.296356709 123.444972422 510.93359375 289.888671875 510.93359375 c 4
 415.885423315 510.93359375 467.681640625 450.704101562 467.681640625 450.704101562 c 5
 415.35546875 333.951171875 l 5
 415.35546875 333.951171875 380.556803239 375.284179688 310 375.284179688 c 4
 225.833264889 375.284179688 189.848632812 326.552942321 189.848632812 253.561523438 c 4
 189.848632812 175.54800635 226.997899382 123.463867188 313.888671875 123.463867188 c 4
 388.500896881 123.463867188 428.018554688 154.595703125 428.018554688 154.595703125 c 5
 460.827148438 28.595703125 l 5
 460.827148438 28.595703125 400.930581031 -9.998046875 296.888671875 -9.998046875 c 4
 126.093637825 -9.998046875 35 94.0826581131 35 253.561523438 c 4
EndSplineSet
Validated: 1
Substitution2: "'ss12' Style Set 12 lookup 13-1" c.ss12
EndChar

StartChar: t
Encoding: 116 116 41
Width: 412
Flags: W
HStem: -10 133<260.918 369.347> 373 128.011<14 382>
VStem: 95 159<132.999 651.011>
AnchorPoint: "Anchor-2" 208 0.0117188 basechar 0
AnchorPoint: "Anchor-0" 173 660 basechar 0
LayerCount: 2
Fore
SplineSet
14 501.010742188 m 5
 382 501.010742188 l 5
 382 373 l 5
 14 373 l 5
 14 501.010742188 l 5
254 176 m 6
 254 138.964094606 269.981366132 123 308 123 c 4
 342.996582031 123 368 134 368 134 c 5
 382 6 l 5
 382 6 341.113581731 -10 282 -10 c 4
 129.810185002 -10 95 58.075982698 95 161 c 6
 95 651.010742188 l 5
 254 671.010742188 l 5
 254 176 l 6
EndSplineSet
Validated: 5
Substitution2: "'ss11' Style Set 11 lookup 12-1" t.ss11
EndChar

StartChar: r
Encoding: 114 114 42
Width: 420
Flags: W
HStem: 0 21G<55 214> 371.284 139.649<240.29 395.143> 481.011 20G<55 214>
VStem: 55 159<0 501.011>
AnchorPoint: "Anchor-2" 172 0.0117188 basechar 0
AnchorPoint: "Anchor-0" 235 501.011 basechar 0
LayerCount: 2
Fore
SplineSet
332 510.93359375 m 0xd0
 398.157902644 510.93359375 417 484.93359375 417 484.93359375 c 1
 391 349.93359375 l 1
 391 349.93359375 358.151367188 371.284179688 308 371.284179688 c 0
 248.932617188 371.284179688 214 341.737146954 214 284 c 0
 149 293.561523438 l 0
 168.622288602 444 215.151024888 510.93359375 332 510.93359375 c 0xd0
55 0 m 1
 55 501.010742188 l 1
 214 501.010742188 l 1xb0
 214 0 l 1
 55 0 l 1
EndSplineSet
Validated: 5
EndChar

StartChar: e
Encoding: 101 101 43
Width: 551
Flags: W
HStem: -9.99805 134.462<237.497 458.342> 205 101<137 366> 386.284 124.649<223.656 337.569>
VStem: 137 52.8486<205 306>
AnchorPoint: "Anchor-3" 409 14 basechar 0
AnchorPoint: "Anchor-2" 302 0 basechar 0
AnchorPoint: "Anchor-0" 289 501.011 basechar 0
LayerCount: 2
Fore
SplineSet
35 253.561523438 m 4
 35 409.296356709 130.688210878 510.93359375 287.888671875 510.93359375 c 4
 469.531613535 510.93359375 526.465820312 373.273945545 526.465820312 274.7109375 c 4
 526.465820312 231.674278598 522 205 522 205 c 5
 137 205 l 5
 137 306 l 5
 366 306 l 5
 366 306 360.823137255 386.284179688 280 386.284179688 c 4
 216.848440267 386.284179688 189.848632812 336.752249355 189.848632812 262.561523438 c 4
 189.848632812 172.320332336 227.66784612 124.463867188 324 124.463867188 c 4
 411.280830889 124.463867188 461.018554688 152.595703125 461.018554688 152.595703125 c 5
 486.827148438 17.595703125 l 5
 486.827148438 17.595703125 427.295941065 -9.998046875 323.888671875 -9.998046875 c 4
 124.309918668 -9.998046875 35 94.0826581131 35 253.561523438 c 4
EndSplineSet
Validated: 5
Substitution2: "'ss03' Style Set 3 lookup 4-1" e.ss03
EndChar

StartChar: d
Encoding: 100 100 44
Width: 602
Flags: W
HStem: -9.99805 135.649<230.238 354.365> 0 21G<393 552> 374.472 136.462<231.403 364.212> 731.002 20G<393 552>
VStem: 38.0713 154.849<165.582 331.957> 393 159<217.374 751.002> 393 62.8486<75.1885 217.374 317.374 434.496>
AnchorPoint: "Anchor-2" 316 0 basechar 0
AnchorPoint: "Anchor-0" 473 750.002 basechar 0
LayerCount: 2
Fore
SplineSet
552 0 m 5x7c
 393 0 l 5x7a
 393 751.001953125 l 5
 552 751.001953125 l 5
 552 0 l 5x7c
393 295.374023438 m 5xbc
 393 333.91015625 364.8359375 374.471679688 298.959960938 374.471679688 c 4
 224.678710938 374.471679688 192.919921875 323.588867188 192.919921875 247.374023438 c 4
 192.919921875 174.3828125 224.64453125 125.651367188 298.848632812 125.651367188 c 4
 364.801757812 125.651367188 393 165.575195312 393 225.374023438 c 5xbc
 455.848632812 217.374023438 l 5xba
 455.848632812 75.1884765625 379.534179688 -9.998046875 262 -9.998046875 c 4
 119.759765625 -9.998046875 38.0712890625 91.6396484375 38.0712890625 247.374023438 c 4
 38.0712890625 406.852539062 123.54296875 510.93359375 263.959960938 510.93359375 c 4
 386.349609375 510.93359375 460.848632812 434.49609375 460.848632812 317.374023438 c 5
 393 295.374023438 l 5xbc
EndSplineSet
Validated: 5
Substitution2: "'ss05' Style Set 5 lookup 6-1" d.ss05
EndChar

StartChar: b
Encoding: 98 98 45
Width: 602
Flags: W
HStem: -9.99805 135.649<243.988 376.762> 0 21G<55 214> 374.472 136.462<247.466 375.597> 731.002 20G<55 214>
VStem: 55 159<197.374 751.002> 151.151 62.8486<55.1885 197.374 297.374 424.496> 414.08 154.849<165.582 331.957>
AnchorPoint: "Anchor-2" 296 0 basechar 0
AnchorPoint: "Anchor-0" 134 749.002 basechar 0
LayerCount: 2
Fore
SplineSet
55 0 m 1x7a
 55 751.001953125 l 1
 214 751.001953125 l 1x7a
 214 0 l 1x76
 55 0 l 1x7a
214 295.374023438 m 1
 146.151367188 297.374023438 l 5
 146.151367188 424.49609375 220.650390625 510.93359375 343.040039062 510.93359375 c 0
 483.45703125 510.93359375 568.928710938 406.852539062 568.928710938 247.374023438 c 0
 568.928710938 91.6396484375 487.240234375 -9.998046875 345 -9.998046875 c 0
 227.465820312 -9.998046875 151.151367188 55.1884765625 151.151367188 197.374023438 c 5xb6
 214 225.374023438 l 1
 214 165.575195312 242.198242188 125.651367188 308.151367188 125.651367188 c 0xba
 382.35546875 125.651367188 414.080078125 174.3828125 414.080078125 247.374023438 c 0
 414.080078125 323.588867188 382.321289062 374.471679688 308.040039062 374.471679688 c 0
 242.1640625 374.471679688 214 333.91015625 214 295.374023438 c 1
EndSplineSet
Validated: 5
EndChar

StartChar: a
Encoding: 97 97 46
Width: 566
Flags: W
HStem: -9.99805 123.998<414.292 548.059> -9.99805 116.462<193.023 301.389> 214.284 95.6494<203.588 343.777> 382.011 129<140.887 306.109>
VStem: 30 154.849<116.168 196.864> 327.929 159<123.252 214.284 289.011 356.236> 327.929 49.8486<53.4076 150.562> 327.929 15.8486<214.284 309.934>
AnchorPoint: "Anchor-3" 458 0 basechar 0
AnchorPoint: "Anchor-2" 284 0 basechar 0
AnchorPoint: "Anchor-0" 274 501.011 basechar 0
LayerCount: 2
Back
SplineSet
347.928710938 177.561523438 m 1x7c
 397.77734375 180.561523438 l 5x7a
 397.77734375 65.2546726396 333.443566636 -9.998046875 197.888671875 -9.998046875 c 0
 93.5258452633 -9.998046875 30 50 30 141 c 0
 30 286.71747631 169.159368499 309.798279039 363.928710938 309.93359375 c 1
 363.77734375 224.284179688 l 1x79
 204.9215174 224.170106541 154.848632812 210.544945242 154.848632812 148.561523438 c 0
 154.848632812 111.324445486 179.419144912 86.4638671875 236.888671875 86.4638671875 c 0
 303.711369303 86.4638671875 347.928710938 123.027306191 347.928710938 177.561523438 c 1x7c
347.928710938 299.010742188 m 2xbc
 347.928710938 377.97408765 315.670027449 412.010742188 238.928710938 412.010742188 c 0
 160.769677734 412.010742188 104.928710938 368.010742188 104.928710938 368.010742188 c 1
 69.9287109375 467.010742188 l 1
 69.9287109375 467.010742188 149.657226562 511.010742188 264.928710938 511.010742188 c 0
 407.721987032 511.010742188 466.928710938 427.01055301 466.928710938 300.010742188 c 2
 466.928710938 118 l 2
 466.928710938 93.251950046 475.36431245 84 497.928710938 84 c 0
 515.694039812 84 526.928710938 91 526.928710938 91 c 1
 535.928710938 13 l 1
 535.928710938 13 510.8653569 -9.998046875 457.928710938 -9.998046875 c 0
 384.082557091 -9.998046875 347.928710938 33 347.928710938 125 c 2
 347.928710938 299.010742188 l 2xbc
EndSplineSet
Fore
SplineSet
327.928710938 177.561523438 m 1x7c
 377.77734375 150.561523438 l 1x7a
 377.77734375 53.4075553226 319.880527421 -9.998046875 197.888671875 -9.998046875 c 0
 93.5258452633 -9.998046875 30 50 30 141 c 0
 30 286.71747631 160.824693226 309.798279039 343.928710938 309.93359375 c 1
 343.77734375 214.284179688 l 1x79
 222.93827097 214.20023574 184.848632812 204.1737758 184.848632812 158.561523438 c 0
 184.848632812 127.320980654 203.42926183 106.463867188 246.888671875 106.463867188 c 0
 295.657692992 106.463867188 327.928710938 135 327.928710938 177.561523438 c 1x7c
327.928710938 289.010742188 m 2xbc
 327.928710938 353.998274294 301.589051943 382.010742188 238.928710938 382.010742188 c 0
 165.435888672 382.010742188 112.928710938 346.010742188 112.928710938 346.010742188 c 1
 69.9287109375 467.010742188 l 1
 69.9287109375 467.010742188 149.657226562 511.010742188 264.928710938 511.010742188 c 0
 421.85993516 511.010742188 486.928710938 427.01055301 486.928710938 300.010742188 c 2
 486.928710938 148 l 2
 486.928710938 123.251950046 495.36431245 114 517.928710938 114 c 0
 535.694039812 114 546.928710938 121 546.928710938 121 c 1
 555.928710938 13 l 1
 555.928710938 13 524.438855865 -9.998046875 457.928710938 -9.998046875 c 0
 370.655983665 -9.998046875 327.928710938 33 327.928710938 125 c 2
 327.928710938 289.010742188 l 2xbc
EndSplineSet
Validated: 5
Substitution2: "'ss02' Style Set 2 lookup 3-1" a.ss02
EndChar

StartChar: plus
Encoding: 43 43 47
Width: 450
Flags: W
HStem: 285 146<30 420>
VStem: 152 146<148 568>
LayerCount: 2
Fore
SplineSet
152 148 m 1
 152 568 l 1
 298 568 l 1
 298 148 l 1
 152 148 l 1
420 285 m 5
 30 285 l 5
 30 431 l 5
 420 431 l 5
 420 285 l 5
EndSplineSet
Validated: 5
EndChar

StartChar: s
Encoding: 115 115 48
Width: 476
Flags: W
HStem: -9.99805 124.979<94.5231 279.054> 385.904 125.029<204.15 383.587>
AnchorPoint: "Anchor-2" 235 0.0117188 basechar 0
AnchorPoint: "Anchor-0" 257 501.011 basechar 0
LayerCount: 2
Fore
SplineSet
208.846679688 191.568359375 m 0
 78.1569613984 222.213047384 42.2041015625 272.691036244 42.2041015625 353 c 0
 42.2041015625 451.381835938 124.242349187 510.93359375 259.017578125 510.93359375 c 0
 374.952490753 510.93359375 431.334960938 473.225585938 431.334960938 473.225585938 c 1
 394.294921875 359.444335938 l 1
 394.294921875 359.444335938 343.545832388 385.904296875 268.743164062 385.904296875 c 0
 221.50556408 385.904296875 200.26171875 373.125571458 200.26171875 352.518554688 c 0
 200.26171875 333.075696904 213.731985529 321.307052539 259.037109375 310.086914062 c 0
 401.856678317 274.716624685 441.689453125 229.253235246 441.689453125 145.40234375 c 0
 441.689453125 49.630859375 367.24162831 -9.998046875 227.856445312 -9.998046875 c 0
 107.983726418 -9.998046875 32 26.5625 32 26.5625 c 1
 65.314453125 148.861328125 l 1
 65.314453125 148.861328125 130.308836011 114.981445312 209.993164062 114.981445312 c 0
 260.482893686 114.981445312 284.520507812 127.008427649 284.520507812 150.336914062 c 0
 284.520507812 169.236100993 270.983660149 176.99821258 208.846679688 191.568359375 c 0
EndSplineSet
Validated: 1
EndChar

StartChar: y
Encoding: 121 121 49
Width: 539
Flags: W
HStem: 481.011 20G<5 181.173 358.689 534>
AnchorPoint: "Anchor-2" 192 -179.994 basechar 0
AnchorPoint: "Anchor-0" 277 501.011 basechar 0
LayerCount: 2
Fore
SplineSet
190 42 m 5
 5 501.010742188 l 5
 174 501.010742188 l 5
 275.606445312 217.694335938 l 5
 365 501.010742188 l 5
 534 501.010742188 l 5
 276 -179.994140625 l 5
 97 -179.994140625 l 5
 190 42 l 5
EndSplineSet
Validated: 1
Substitution2: "'ss04' Style Set 4 lookup 5-1" y.ss04
EndChar

StartChar: u
Encoding: 117 117 50
Width: 595
Flags: W
HStem: -9.92285 130.649<237.092 345.089> 0 21G<381.777 540.777> 481.011 20G<55 214 381.777 540.777>
VStem: 55 159<147.523 501.011> 381.777 159<207.449 501.011>
AnchorPoint: "Anchor-3" 464 0 basechar 0
AnchorPoint: "Anchor-2" 312 0.0117188 basechar 0
AnchorPoint: "Anchor-0" 302 501.011 basechar 0
LayerCount: 2
Fore
SplineSet
381.77734375 217.010742188 m 4xb8
 446.77734375 207.44921875 l 4
 424.903317112 57.0107421877 373.035217645 -9.9228515625 243.77734375 -9.9228515625 c 4
 119.111208246 -9.9228515625 55 56.9260601597 55 196.44921875 c 6
 55 501.010742188 l 5
 214 501.010742188 l 5
 214 213.44921875 l 6
 214 154.712498912 238.678480459 120.7265625 296.77734375 120.7265625 c 4
 356.320340654 120.7265625 381.77734375 159.273595234 381.77734375 217.010742188 c 4xb8
540.77734375 501.010742188 m 5
 540.77734375 0 l 5
 381.77734375 0 l 5x78
 381.77734375 501.010742188 l 5
 540.77734375 501.010742188 l 5
EndSplineSet
Validated: 5
Substitution2: "'ss05' Style Set 5 lookup 6-1" u.ss05
EndChar

StartChar: backslash
Encoding: 92 92 51
Width: 434
Flags: W
LayerCount: 2
Fore
SplineSet
285 -171.469726562 m 5
 10 761.403320312 l 1
 149 761.403320312 l 1
 424 -171.469726562 l 5
 285 -171.469726562 l 5
EndSplineSet
Validated: 1
EndChar

StartChar: equal
Encoding: 61 61 52
Width: 450
Flags: W
HStem: 215 116<30 420> 385 116<30 420>
LayerCount: 2
Back
SplineSet
420 285 m 5xea
 30 285 l 5
 30 431 l 5
 420 431 l 5
 420 285 l 5xea
EndSplineSet
Fore
SplineSet
420 215 m 5
 30 215 l 5
 30 331 l 5
 420 331 l 5
 420 215 l 5
420 385 m 5
 30 385 l 5
 30 501 l 5
 420 501 l 5
 420 385 l 5
EndSplineSet
Validated: 1
EndChar

StartChar: v
Encoding: 118 118 53
Width: 539
Flags: W
HStem: 0 21G<168.214 380.387> 481.011 20G<5 179.687 359.782 534>
AnchorPoint: "Anchor-2" 273 0.0117188 basechar 0
AnchorPoint: "Anchor-0" 272 501.011 basechar 0
LayerCount: 2
Fore
SplineSet
175 0 m 5
 5 501.010742188 l 5
 174 501.010742188 l 5
 273.606445312 150.694335938 l 5
 365 501.010742188 l 5
 534 501.010742188 l 5
 374 0 l 5
 175 0 l 5
EndSplineSet
Validated: 1
EndChar

StartChar: w
Encoding: 119 119 54
Width: 735
Flags: W
HStem: 0 21G<113.489 312.688 421.391 620.551> 481.011 20G<5 168.871 566.129 730>
AnchorPoint: "Anchor-2" 370 0 basechar 0
AnchorPoint: "Anchor-0" 368 501.011 basechar 0
LayerCount: 2
Fore
SplineSet
118 0 m 1
 5 501.010742188 l 1
 165 501.010742188 l 1
 226.606445312 182.694335938 l 1
 289 451.010742188 l 1
 446 451.010742188 l 1
 508.393554688 182.694335938 l 1
 570 501.010742188 l 1
 730 501.010742188 l 1
 616 0 l 1
 426 0 l 1
 367.5 253.841796875 l 1
 308 0 l 1
 118 0 l 1
EndSplineSet
Validated: 1
EndChar

StartChar: x
Encoding: 120 120 55
Width: 528
Flags: W
HStem: 0 21G<5 198.846 329.154 523> 481.011 20G<15 201.095 326.905 513>
VStem: 231 66<201 291>
AnchorPoint: "Anchor-2" 267 0 basechar 0
AnchorPoint: "Anchor-0" 266 501.011 basechar 0
LayerCount: 2
Fore
SplineSet
188 0 m 1
 5 0 l 1
 165 262 l 1
 15 501.010742188 l 1
 191 501.010742188 l 1
 297 291 l 1
 297 201 l 1
 188 0 l 1
340 0 m 1
 231 201 l 1
 231 291 l 1
 337 501.010742188 l 1
 513 501.010742188 l 1
 363 262 l 1
 523 0 l 1
 340 0 l 1
EndSplineSet
Validated: 5
EndChar

StartChar: z
Encoding: 122 122 56
Width: 478
Flags: W
HStem: 0 136<245 448> 365.011 136<40 233>
AnchorPoint: "Anchor-2" 246 0 basechar 0
AnchorPoint: "Anchor-0" 240 501.011 basechar 0
LayerCount: 2
Fore
SplineSet
448 0 m 1
 30 0 l 1
 30 96 l 1
 233 365.010742188 l 1
 40 365.010742188 l 1
 40 501.010742188 l 1
 438 501.010742188 l 1
 438 405.010742188 l 1
 245 136 l 1
 448 136 l 1
 448 0 l 1
EndSplineSet
Validated: 1
EndChar

StartChar: period
Encoding: 46 46 57
Width: 245
Flags: W
HStem: -10 186.449<59.9887 185.237>
VStem: 30 185.227<20.1869 146.262>
LayerCount: 2
Fore
SplineSet
30 83.224609375 m 4
 30 139.701171875 66.505859375 176.44921875 122.612304688 176.44921875 c 4
 178.719726562 176.44921875 215.2265625 139.701171875 215.2265625 83.224609375 c 4
 215.2265625 26.7470703125 178.719726562 -10 122.612304688 -10 c 4
 66.505859375 -10 30 26.7470703125 30 83.224609375 c 4
EndSplineSet
Validated: 1
EndChar

StartChar: two
Encoding: 50 50 58
Width: 608
Flags: W
HStem: 0 145<231.813 578.549> 589.599 149.394<174.451 374.78>
VStem: 404.676 166.086<447.003 561.881>
LayerCount: 2
Fore
SplineSet
404.67578125 514.05859375 m 0
 404.67578125 557 373.829101562 589.598632812 283.328125 589.598632812 c 0
 184.387616859 589.598632812 113.538085938 535.754882812 113.538085938 535.754882812 c 5
 62.322265625 675.796875 l 5
 62.322265625 675.796875 153.698564187 738.9921875 286.69140625 738.9921875 c 0
 463.827787286 738.9921875 570.76171875 662.295898438 570.76171875 522 c 0
 570.76171875 372.97439518 502.37064169 317.938859489 349.374023438 243.0234375 c 0
 234.010624634 186.535275852 231.813476562 145 231.813476562 145 c 1
 578.548828125 145 l 1
 578.548828125 0 l 1
 48 0 l 1
 48 54 l 2
 48 212.663475472 148.916049919 302.573379635 314.821289062 393.876953125 c 0
 386.347643745 433.240458552 404.67578125 464.674452541 404.67578125 514.05859375 c 0
EndSplineSet
Validated: 1
Substitution2: "'sups' Superscript lookup 0 subtable" two.superior
Substitution2: "'sinf' Scientific Inferiors lookup 0 subtable" two.inferior
Substitution2: "'sups' Superscript lookup 0 subtable" two.superior
EndChar

StartChar: three
Encoding: 51 51 59
Width: 579
Flags: W
HStem: -9.99805 144.938<121.442 336.641> 307 131.481<164.139 332.892> 589.599 149.394<123.863 329.226>
VStem: 354.984 174.086<461.159 564.334> 371.827 173.084<168.882 275.829>
LayerCount: 2
Fore
SplineSet
238.138671875 438.481445312 m 2xe8
 326.262570983 438.481445313 354.984375 463.76171875 354.984375 514.05859375 c 0
 354.984375 557 328.549468755 589.598632812 242.63671875 589.598632812 c 0
 141.442308315 589.598632812 79.8466796875 546.754882812 79.8466796875 546.754882812 c 1
 37.630859375 686.796875 l 5
 37.630859375 686.796875 116.056376743 738.9921875 252 738.9921875 c 0
 423.542041916 738.9921875 529.0703125 667.857421875 529.0703125 532.868164062 c 0xf0
 529.0703125 412 419.163085938 375.697265625 419.163085938 375.697265625 c 1
 419.163085938 375.697265625 544.911132812 341 544.911132812 205.670898438 c 0
 544.911132812 51.681640625 427.018800887 -9.998046875 250 -9.998046875 c 0
 102.934570312 -9.998046875 15.451171875 40.9091796875 15.451171875 40.9091796875 c 1
 62.7744140625 186.262695312 l 1
 62.7744140625 186.262695312 130.993503656 134.939453125 238 134.939453125 c 0
 330.576256296 134.939453125 371.827148438 166 371.827148438 222 c 0
 371.827148438 278.995117188 325.858092301 306.498046875 238.138671875 306.737304688 c 2
 164 307 l 1
 164.138671875 438.481445312 l 1
 238.138671875 438.481445312 l 2xe8
EndSplineSet
Validated: 1
Substitution2: "'sups' Superscript lookup 0 subtable" three.superior
Substitution2: "'sinf' Scientific Inferiors lookup 0 subtable" three.inferior
Substitution2: "'sups' Superscript lookup 0 subtable" three.superior
EndChar

StartChar: comma
Encoding: 44 44 61
Width: 252
Flags: W
HStem: -116 292.449
VStem: 30 192.227<23.0371 141.771>
LayerCount: 2
Fore
SplineSet
30 83.224609375 m 4
 30 139.701171875 66.505859375 176.44921875 122.612304688 176.44921875 c 4
 182.960455392 176.44921875 222.2265625 138.565881189 222.2265625 70 c 4
 222.2265625 -34.1590523958 128 -116 128 -116 c 5
 52 -73 l 5
 52 -73 92.7417677401 -41.2621873894 110.948586294 -9.44886765139 c 5
 61.4994641709 -4.67504230824 30 30.7624624416 30 83.224609375 c 4
EndSplineSet
Validated: 1
EndChar

StartChar: zero
Encoding: 48 48 63
Width: 683
Flags: W
HStem: -9.99805 149.462<270.598 413.18> 589.659 149.462<270.598 413.18>
VStem: 35 162.849<228.734 500.389> 485.929 162.849<228.734 500.389>
LayerCount: 2
Fore
SplineSet
197.848632812 364.561523438 m 0
 197.848632812 229.580922261 240.987782464 139.463867188 341.888671875 139.463867188 c 0
 442.789561286 139.463867188 485.928710938 229.580922261 485.928710938 364.561523438 c 0
 485.928710938 499.542124612 442.789561286 589.659179688 341.888671875 589.659179688 c 0
 240.987782464 589.659179688 197.848632812 499.542124612 197.848632812 364.561523438 c 0
35 364.561523438 m 0
 35 591.206054688 141.120772562 739.12109375 341.888671875 739.12109375 c 4
 542.656571188 739.12109375 648.77734375 591.206054688 648.77734375 364.561523438 c 0
 648.77734375 137.916992188 542.656571188 -9.998046875 341.888671875 -9.998046875 c 4
 141.120772562 -9.998046875 35 137.916992188 35 364.561523438 c 0
EndSplineSet
Validated: 1
Substitution2: "'sups' Superscript lookup 0 subtable" zero.superior
Substitution2: "'sinf' Scientific Inferiors lookup 0 subtable" zero.inferior
Substitution2: "'sups' Superscript lookup 0 subtable" zero.superior
EndChar

StartChar: one
Encoding: 49 49 64
Width: 424
Flags: W
HStem: 0 21G<200 369> 711 20G<180.363 369>
VStem: 200 169<0 560>
LayerCount: 2
Fore
SplineSet
369 731 m 5
 369 0 l 5
 200 0 l 5
 200 560 l 5
 70 497 l 5
 10 618 l 5
 217 731 l 5
 369 731 l 5
EndSplineSet
Validated: 1
Substitution2: "'sups' Superscript lookup 0 subtable" one.superior
Substitution2: "'sinf' Scientific Inferiors lookup 0 subtable" one.inferior
Substitution2: "'sups' Superscript lookup 0 subtable" one.superior
EndChar

StartChar: four
Encoding: 52 52 65
Width: 660
Flags: W
HStem: 0 21G<357 526> 162 136<211 630> 711 20G<349.221 526>
VStem: 357 169<0 501>
LayerCount: 2
Fore
SplineSet
526 731 m 1
 526 0 l 1
 357 0 l 1
 357 501 l 1
 211 298 l 1
 630 298 l 1
 630 162 l 1
 60 162 l 5
 30 279 l 1
 364 731 l 1
 526 731 l 1
EndSplineSet
Validated: 5
Substitution2: "'sups' Superscript lookup 0 subtable" four.superior
Substitution2: "'sinf' Scientific Inferiors lookup 0 subtable" four.inferior
Substitution2: "'sups' Superscript lookup 0 subtable" four.superior
EndChar

StartChar: exclam
Encoding: 33 33 66
Width: 274
Flags: W
HStem: -10 186.449<74.3754 199.624> 711.008 20G<60 218>
VStem: 44.3867 185.227<20.1869 146.262> 60 158<555.655 731.008> 80 118<230 405.353>
LayerCount: 2
Fore
SplineSet
80 230 m 5xc8
 60 731.0078125 l 5
 218 731.0078125 l 5xd0
 198 230 l 5
 80 230 l 5xc8
44.38671875 83.224609375 m 0xe0
 44.38671875 139.701171875 80.892578125 176.44921875 136.999023438 176.44921875 c 0
 193.106445312 176.44921875 229.61328125 139.701171875 229.61328125 83.224609375 c 0
 229.61328125 26.7470703125 193.106445312 -10 136.999023438 -10 c 0
 80.892578125 -10 44.38671875 26.7470703125 44.38671875 83.224609375 c 0xe0
EndSplineSet
Validated: 1
EndChar

StartChar: five
Encoding: 53 53 67
Width: 597
Flags: W
HStem: -9.99805 148.893<122.512 353.519> 355.936 130.435<215.573 362.027> 577.841 153.167<211.805 514.672>
VStem: 399.845 162.982<181.328 319.293>
LayerCount: 2
Fore
SplineSet
267 -9.998046875 m 0
 109.275330082 -9.998046875 15.451171875 40.9091796875 15.451171875 40.9091796875 c 1
 57.7744140625 186.262695312 l 1
 57.7744140625 186.262695312 144.520789928 138.89453125 256 138.89453125 c 0
 359.910894922 138.89453125 399.844726562 181.159179688 399.844726562 249.576171875 c 0
 399.844726562 316.190463347 361.783466713 355.935546875 285 355.935546875 c 0
 198.05520802 355.935546875 174.65625 302.7890625 174.65625 302.7890625 c 1
 51.947265625 325.728515625 l 5
 84 731.0078125 l 1
 514.671875 731.0078125 l 1
 514.671875 577.840820312 l 1
 211.8046875 577.840820312 l 1
 200.470703125 454.322265625 l 1
 200.470703125 454.322265625 230.168280233 486.370117188 325.815429688 486.370117188 c 0
 479.072551319 486.370117188 562.827148438 399.458984375 562.827148438 254.497070312 c 0
 562.827148438 90.5595703125 463.190217433 -9.998046875 267 -9.998046875 c 0
EndSplineSet
Validated: 1
Substitution2: "'sups' Superscript lookup 0 subtable" five.superior
Substitution2: "'sinf' Scientific Inferiors lookup 0 subtable" five.inferior
Substitution2: "'sups' Superscript lookup 0 subtable" five.superior
EndChar

StartChar: six
Encoding: 54 54 68
Width: 640
Flags: W
HStem: -9.99805 137.889<254.99 407.416> 345.891 124.709<252.242 407.351> 586.52 152.473<279.971 481.303>
VStem: 35 178.398<191.513 445.19> 448.398 156.767<167.847 306.551>
LayerCount: 2
Back
SplineSet
178.3984375 236.890625 m 0
 178.3984375 160.019065367 219.88147703 103.890625 320.3984375 103.890625 c 0
 421.623435844 103.890625 463.3984375 160.019065367 463.3984375 236.890625 c 0
 463.3984375 314.340166284 421.623435844 370.890625 320.3984375 370.890625 c 0
 219.88147703 370.890625 178.3984375 314.340166284 178.3984375 236.890625 c 0
163.303710938 405.747070312 m 1
 163.303710938 405.747070312 204.094697864 475.599609375 331.263671875 475.599609375 c 0
 505.711185917 475.599609375 585.165039062 379.238029036 585.165039062 239 c 0
 585.165039062 79.095703125 484.937095781 -9.998046875 321.297851562 -9.998046875 c 0
 141.540405276 -9.998046875 35 99.6728515625 35 365.331054688 c 0
 35 605.528320312 149.046377502 738.9921875 354.297851562 738.9921875 c 0
 495.428880973 738.9921875 566.923828125 678.860351562 566.923828125 678.860351562 c 1
 522.619140625 567.388671875 l 5
 522.619140625 567.388671875 463.487673927 616.51953125 354.778320312 616.51953125 c 4
 232.266224145 616.51953125 170.301516454 542.405133479 163.303710938 405.747070312 c 1
EndSplineSet
Fore
SplineSet
213.3984375 236.890625 m 4
 213.3984375 173.890625 247.578125 127.890625 330.3984375 127.890625 c 4
 413.926757812 127.890625 448.3984375 173.890625 448.3984375 236.890625 c 4
 448.3984375 299.890625 413.926757812 345.890625 330.3984375 345.890625 c 4
 247.578125 345.890625 213.3984375 299.890625 213.3984375 236.890625 c 4
203.303710938 419.747070312 m 5
 203.303710938 419.747070312 240.9375 470.599609375 358.263671875 470.599609375 c 4
 509.400390625 470.599609375 605.165039062 376.274414062 605.165039062 239 c 4
 605.165039062 79.095703125 501.138671875 -9.998046875 331.297851562 -9.998046875 c 4
 145.26171875 -9.998046875 35 99.6728515625 35 365.331054688 c 4
 35 605.528320312 152.618164062 738.9921875 364.297851562 738.9921875 c 4
 512.06640625 738.9921875 586.923828125 678.860351562 586.923828125 678.860351562 c 5
 529.619140625 537.388671875 l 5
 529.619140625 537.388671875 474.010742188 586.51953125 371.778320312 586.51953125 c 4
 263.982421875 586.51953125 209.4609375 527.876953125 203.303710938 419.747070312 c 5
EndSplineSet
Validated: 1
Substitution2: "'ss07' Style Set 7 lookup 8-1" six.ss07
Substitution2: "'sups' Superscript lookup 0 subtable" six.superior
Substitution2: "'sinf' Scientific Inferiors lookup 0 subtable" six.inferior
Substitution2: "'sups' Superscript lookup 0 subtable" six.superior
EndChar

StartChar: parenright
Encoding: 41 41 69
Width: 402
Flags: W
HStem: -171.47 138.525<30 115.716> 620.944 138.525<30 115.716>
VStem: 215.448 156.679<104.655 483.345>
LayerCount: 2
Fore
SplineSet
30 -32.9443359375 m 5
 154.285528335 -32.9443359375 215.448242188 57.6396484375 215.448242188 294 c 0
 215.448242188 530.360351562 154.285528335 620.944335938 30 620.944335938 c 5
 30 759.469726562 l 1
 252.474637184 759.469726562 372.126953125 611.823242188 372.126953125 294 c 0
 372.126953125 -23.8232421875 252.474637184 -171.469726562 30 -171.469726562 c 1
 30 -32.9443359375 l 5
EndSplineSet
Validated: 1
EndChar

StartChar: seven
Encoding: 55 55 70
Width: 604
Flags: W
HStem: 0 21G<143 318.433> 585 146<40 371>
VStem: 143 170<0 144.52>
LayerCount: 2
Fore
SplineSet
313 0 m 1
 143 0 l 1
 161.921161825 322 371 585 371 585 c 5
 40 585 l 1
 40 731 l 1
 564 731 l 1
 564 625 l 1
 564 625 323.865800866 356 313 0 c 1
EndSplineSet
Validated: 1
Substitution2: "'sups' Superscript lookup 0 subtable" seven.superior
Substitution2: "'sinf' Scientific Inferiors lookup 0 subtable" seven.inferior
Substitution2: "'sups' Superscript lookup 0 subtable" seven.superior
EndChar

StartChar: eight
Encoding: 56 56 71
Width: 657
Flags: W
HStem: -9.99805 134.764<241.619 415.381> 316.397 128.664<268.929 391.156> 359.573 58.2568<160.432 499.822> 602.998 135.887<257.592 401.934>
VStem: 35 166.768<160.525 279.346> 70.2598 161.688<471.757 577.322> 430.052 161.688<472.459 576.623> 455.232 166.768<160.525 279.346>
LayerCount: 2
Fore
SplineSet
328.5 445.061523438 m 4xd6
 391.15625 445.061523438 430.051757812 475.51171875 430.051757812 523.869140625 c 4
 430.051757812 573.62109375 392.678710938 602.998046875 328.5 602.998046875 c 4
 267.481445312 602.998046875 231.948242188 573.62109375 231.948242188 523.869140625 c 4
 231.948242188 475.51171875 268.928710938 445.061523438 328.5 445.061523438 c 4xd6
328.5 738.884765625 m 4
 492.577148438 738.884765625 591.740234375 665.090820312 591.740234375 543.655273438 c 4
 591.740234375 424.0703125 499.822265625 359.573242188 328.5 359.573242188 c 4xb6
 160.431640625 359.573242188 70.259765625 424.0703125 70.259765625 543.655273438 c 4
 70.259765625 665.090820312 167.5390625 738.884765625 328.5 738.884765625 c 4
328.5 124.765625 m 4
 410.390625 124.765625 455.232421875 159.413085938 455.232421875 222.020507812 c 4
 455.232421875 279.740234375 410.408203125 316.397460938 328.5 316.397460938 c 4
 246.591796875 316.397460938 201.767578125 279.740234375 201.767578125 222.020507812 c 4xd9
 201.767578125 159.413085938 246.609375 124.765625 328.5 124.765625 c 4
328.5 417.830078125 m 4xb9
 517.833007812 417.830078125 622 343.268554688 622 208.381835938 c 4
 622 76.171875 506.540039062 -9.998046875 328.5 -9.998046875 c 4
 150.459960938 -9.998046875 35 76.171875 35 208.381835938 c 0
 35 343.268554688 139.166992188 417.830078125 328.5 417.830078125 c 4xb9
EndSplineSet
Validated: 5
Substitution2: "'sups' Superscript lookup 0 subtable" eight.superior
Substitution2: "'sinf' Scientific Inferiors lookup 0 subtable" eight.inferior
Substitution2: "'sups' Superscript lookup 0 subtable" eight.superior
EndChar

StartChar: nine
Encoding: 57 57 72
Width: 640
Flags: W
HStem: -9.99805 152.473<158.862 360.195> 254.395 125.709<234.314 390.795> 598.104 140.889<234.249 390.49>
VStem: 35 159.767<420.367 559.647> 429.767 175.398<288.185 537.171>
LayerCount: 2
Fore
SplineSet
429.766601562 489.103515625 m 4
 429.766601562 552.103515625 395.586914062 598.103515625 312.766601562 598.103515625 c 4
 229.23828125 598.103515625 194.766601562 552.103515625 194.766601562 489.103515625 c 4
 194.766601562 426.103515625 229.23828125 380.103515625 312.766601562 380.103515625 c 4
 395.586914062 380.103515625 429.766601562 426.103515625 429.766601562 489.103515625 c 4
436.861328125 309.247070312 m 5
 436.861328125 309.247070312 399.227539062 254.39453125 281.901367188 254.39453125 c 4
 130.764648438 254.39453125 35 350.349609375 35 489.994140625 c 4
 35 649.8984375 139.026367188 738.9921875 308.8671875 738.9921875 c 4
 494.903320312 738.9921875 605.165039062 629.321289062 605.165039062 363.663085938 c 4
 605.165039062 123.465820312 487.546875 -9.998046875 275.8671875 -9.998046875 c 0
 128.098632812 -9.998046875 53.2412109375 50.1337890625 53.2412109375 50.1337890625 c 1
 110.545898438 191.60546875 l 1
 110.545898438 191.60546875 166.154296875 142.474609375 268.38671875 142.474609375 c 0
 376.182617188 142.474609375 430.704101562 201.1171875 436.861328125 309.247070312 c 5
EndSplineSet
Validated: 1
Substitution2: "'ss07' Style Set 7 lookup 8-1" nine.ss07
Substitution2: "'sups' Superscript lookup 0 subtable" nine.superior
Substitution2: "'sinf' Scientific Inferiors lookup 0 subtable" nine.inferior
Substitution2: "'sups' Superscript lookup 0 subtable" nine.superior
EndChar

StartChar: question
Encoding: 63 63 73
Width: 562
Flags: W
HStem: -10 186.449<162.375 287.624> 299.594 112.455<202.29 334.913> 593.229 145.764<128.133 329.973>
VStem: 132.387 185.227<20.1869 146.262> 162.423 126.956<230 300.653> 368.096 163.774<442.877 555.25>
LayerCount: 2
Fore
SplineSet
132.38671875 83.224609375 m 0xf4
 132.38671875 139.701171875 168.892578125 176.44921875 224.999023438 176.44921875 c 0
 281.106445312 176.44921875 317.61328125 139.701171875 317.61328125 83.224609375 c 0
 317.61328125 26.7470703125 281.106445312 -10 224.999023438 -10 c 0
 168.892578125 -10 132.38671875 26.7470703125 132.38671875 83.224609375 c 0xf4
287.88671875 300.653320312 m 5
 289.37890625 230 l 5
 162.422851562 230 l 5xec
 164.15625 416.46875 l 5
 164.15625 416.46875 197.958984375 412.048828125 240.3984375 412.048828125 c 4
 326.76953125 412.048828125 368.095703125 442.455078125 368.095703125 499.145507812 c 4
 368.095703125 564.395507812 314.919921875 593.228515625 236.89453125 593.228515625 c 4
 140.24609375 593.228515625 76.923828125 543.958007812 76.923828125 543.958007812 c 5
 20.2412109375 685.311523438 l 5
 20.2412109375 685.311523438 101.0703125 738.9921875 239.89453125 738.9921875 c 4
 411.010742188 738.9921875 531.870117188 670 531.870117188 501.010742188 c 4
 531.870117188 365.010742188 434.206054688 299.59375 325 299.59375 c 4
 300.756835938 299.59375 287.88671875 300.653320312 287.88671875 300.653320312 c 5
EndSplineSet
Validated: 1
EndChar

StartChar: hyphen
Encoding: 45 45 74
Width: 354
Flags: W
HStem: 209 141<30 324>
VStem: 30 294<209 350>
LayerCount: 2
Fore
SplineSet
324 209 m 5
 30 209 l 5
 30 350 l 5
 324 350 l 5
 324 209 l 5
EndSplineSet
Validated: 1
EndChar

StartChar: quotesingle
Encoding: 39 39 75
Width: 266
Flags: W
HStem: 456 275.008<80 190>
VStem: 80 110<456 552.253>
LayerCount: 2
Fore
SplineSet
80 456 m 5
 60 731.0078125 l 5
 210 731.0078125 l 5
 190 456 l 5
 80 456 l 5
EndSplineSet
Validated: 1
EndChar

StartChar: parenleft
Encoding: 40 40 77
Width: 402
Flags: W
HStem: -171.47 138.525<286.411 372.127> 620.944 138.525<286.411 372.127>
VStem: 30 156.679<104.655 483.345>
LayerCount: 2
Fore
SplineSet
372.126953125 -32.9443359375 m 5
 372.126953125 -171.469726562 l 5
 149.652315941 -171.469726562 30 -23.8232421875 30 294 c 4
 30 611.823242188 149.652315941 759.469726562 372.126953125 759.469726562 c 5
 372.126953125 620.944335938 l 5
 247.84142479 620.944335938 186.678710938 530.360351562 186.678710938 294 c 4
 186.678710938 57.6396484375 247.84142479 -32.9443359375 372.126953125 -32.9443359375 c 5
EndSplineSet
Validated: 1
EndChar

StartChar: asterisk
Encoding: 42 42 78
Width: 400
Flags: W
HStem: 718.992 20G<137.534 262.905>
LayerCount: 2
Fore
SplineSet
262.905273438 738.9921875 m 1
 251.896484375 619.151367188 l 1
 358.440429688 666.549804688 l 1
 395.440429688 554.369140625 l 1
 282.896484375 527.767578125 l 1
 361.905273438 435.006835938 l 1
 257.75390625 366.916992188 l 1
 200.219726562 477.075195312 l 1
 142.685546875 366.916992188 l 1
 38.5341796875 435.006835938 l 1
 117.54296875 527.767578125 l 1
 5 554.369140625 l 1
 42 666.549804688 l 1
 148.54296875 619.151367188 l 1
 137.534179688 738.9921875 l 1
 262.905273438 738.9921875 l 1
EndSplineSet
Validated: 1
EndChar

StartChar: less
Encoding: 60 60 79
Width: 450
Flags: W
LayerCount: 2
Fore
SplineSet
420 155 m 5
 30 285 l 1
 30 431 l 1
 420 561 l 1
 420 415 l 1
 202.454101562 358 l 1
 420 301 l 5
 420 155 l 5
EndSplineSet
Validated: 1
EndChar

StartChar: greater
Encoding: 62 62 80
Width: 450
Flags: W
LayerCount: 2
Fore
SplineSet
30 561 m 5
 420 431 l 1
 420 285 l 1
 30 155 l 1
 30 301 l 1
 247.545898438 358 l 1
 30 415 l 5
 30 561 l 5
EndSplineSet
Validated: 1
EndChar

StartChar: slash
Encoding: 47 47 81
Width: 434
Flags: W
LayerCount: 2
Fore
SplineSet
10 -171.469726562 m 5
 285 761.403320312 l 5
 424 761.403320312 l 5
 149 -171.469726562 l 5
 10 -171.469726562 l 5
EndSplineSet
Validated: 1
EndChar

StartChar: bar
Encoding: 124 124 82
Width: 249
Flags: W
VStem: 55 139<-171.47 759.47>
LayerCount: 2
Fore
SplineSet
55 -171.469726562 m 5
 55 759.469726562 l 5
 194 759.469726562 l 5
 194 -171.469726562 l 5
 55 -171.469726562 l 5
EndSplineSet
Validated: 1
EndChar

StartChar: bracketleft
Encoding: 91 91 83
Width: 375
Flags: W
HStem: -171.47 126<204 345> 633.47 126<204 345>
VStem: 55 290<-171.47 -45.4697 633.47 759.47> 55 149<-45.4697 633.47>
LayerCount: 2
Fore
SplineSet
55 759.469726562 m 1xe0
 345 759.469726562 l 1
 345 633.469726562 l 1xe0
 204 633.469726562 l 1
 204 -45.4697265625 l 5xd0
 345 -45.4697265625 l 5
 345 -171.469726562 l 1
 55 -171.469726562 l 1
 55 759.469726562 l 1xe0
EndSplineSet
Validated: 1
EndChar

StartChar: bracketright
Encoding: 93 93 84
Width: 375
Flags: W
HStem: -171.47 126<30 171> 633.47 126<30 171>
VStem: 30 290<-171.47 -45.4697 633.47 759.47> 171 149<-45.4697 633.47>
LayerCount: 2
Fore
SplineSet
320 -171.469726562 m 1xe0
 30 -171.469726562 l 1
 30 -45.4697265625 l 5xe0
 171 -45.4697265625 l 5
 171 633.469726562 l 1xd0
 30 633.469726562 l 1
 30 759.469726562 l 1
 320 759.469726562 l 1
 320 -171.469726562 l 1xe0
EndSplineSet
Validated: 1
EndChar

StartChar: asciicircum
Encoding: 94 94 85
Width: 449
Flags: W
HStem: 440 291.008
LayerCount: 2
Fore
SplineSet
294 731.0078125 m 1
 444 440 l 1
 299 440 l 5
 225.393554688 620.313476562 l 1
 151 440 l 1
 5 440 l 1
 155 731.0078125 l 1
 294 731.0078125 l 1
EndSplineSet
Validated: 1
EndChar

StartChar: braceleft
Encoding: 123 123 86
Width: 433
Flags: W
HStem: -171.47 123.996<285.043 396.538> 251.532 126<30 112.222> 635.474 123.996<284.95 396.617>
VStem: 120 149<-30.3793 243.118 385.28 618.379>
LayerCount: 2
Fore
SplineSet
208 314.532226562 m 1
 208 314.532226562 269 289.532226562 269 209.532226562 c 2
 269 24.5263671875 l 2
 269 -30.755859375 295.6015625 -47.4736328125 343 -47.4736328125 c 0
 386.443359375 -47.4736328125 396 -42.4736328125 396 -42.4736328125 c 1
 403 -161.469726562 l 1
 403 -161.469726562 366 -171.469726562 306 -171.469726562 c 0
 169.0625 -171.469726562 120 -108.43359375 120 -1.4697265625 c 2
 120 189.532226562 l 2
 120 236.860351562 101.501953125 251.532226562 65 251.532226562 c 2
 30 251.532226562 l 1
 30 377.532226562 l 1
 65 377.532226562 l 2
 101.501953125 377.532226562 120 392.205078125 120 439.532226562 c 2
 120 589.469726562 l 2
 120 696.430664062 169.0625 759.469726562 306 759.469726562 c 0
 360.75 759.469726562 403 749.469726562 403 749.469726562 c 1
 396 630.473632812 l 1
 396 630.473632812 379.180664062 635.473632812 342 635.473632812 c 0
 295.2421875 635.473632812 269 618.754882812 269 563.473632812 c 2
 269 419.532226562 l 2
 269 337.53515625 208 314.532226562 208 314.532226562 c 1
EndSplineSet
Validated: 1
EndChar

StartChar: grave
Encoding: 96 96 87
Width: 242
Flags: W
HStem: 516 225.008
VStem: 1 240
LayerCount: 2
Fore
SplineSet
141 516 m 5
 1 711.0078125 l 5
 147 741.0078125 l 5
 241 536 l 5
 141 516 l 5
EndSplineSet
Validated: 1
EndChar

StartChar: underscore
Encoding: 95 95 88
Width: 564
Flags: W
HStem: -111 111<30 534>
LayerCount: 2
Fore
SplineSet
534 -111 m 5
 30 -111 l 5
 30 0 l 1
 534 0 l 1
 534 -111 l 5
EndSplineSet
Validated: 1
EndChar

StartChar: dollar
Encoding: 36 36 89
Width: 591
Flags: W
HStem: -105 174.47<225 364> -10 147.462<135.275 362.413> 590.659 148.462<235.117 443.3> 655 174.47<225 364>
VStem: 39.627 174.312<479.149 567.112> 225 139<-105 69.4697 655 829.47> 388.338 168.182<162.211 250.227>
LayerCount: 2
Fore
SplineSet
225 -105 m 5x8e
 225 69.4697265625 l 5
 364 69.4697265625 l 5
 364 -105 l 5
 225 -105 l 5x8e
225 655 m 5x1e
 225 829.469726562 l 5
 364 829.469726562 l 5
 364 655 l 5
 225 655 l 5x1e
EndSplineSet
Refer: 22 83 N 1 0 0 1 0 0 2
Validated: 5
EndChar

StartChar: percent
Encoding: 37 37 90
Width: 953
Flags: W
HStem: -9.99805 116.78<671.575 773.627> 0 21G<191 341.901> 265.072 116.779<671.01 776.753> 347.143 116.779<180.945 282.627> 622.212 116.78<180.388 285.753> 711.008 20G<614.099 765>
VStem: 35 126.66<481.069 603.651> 303.41 124.55<483.945 603.078> 526 125.66<126.805 245.938> 794.41 124.55<126.805 245.938>
LayerCount: 2
Fore
SplineSet
651.66015625 186.481445312 m 0xa3c0
 651.66015625 129.305439744 683.528894898 106.782226562 722.48046875 106.782226562 c 0
 761.077082431 106.782226562 794.41015625 129.305439744 794.41015625 186.481445312 c 0
 794.41015625 244.115114367 761.077082431 265.072265625 722.48046875 265.072265625 c 0
 683.528894898 265.072265625 651.66015625 244.115114367 651.66015625 186.481445312 c 0xa3c0
526 186.481445312 m 0
 526 294.134219993 597.688680634 381.8515625 722.48046875 381.8515625 c 0
 847.271261196 381.8515625 918.959960938 294.134219993 918.959960938 186.481445312 c 0
 918.959960938 78.9489101654 847.271261196 -9.998046875 722.48046875 -9.998046875 c 0
 597.688680634 -9.998046875 526 78.9489101654 526 186.481445312 c 0
161.66015625 543.622070312 m 0
 161.66015625 486.446082777 193.078900574 463.921875 231.48046875 463.921875 c 0
 270.077082431 463.921875 303.41015625 486.446082777 303.41015625 543.622070312 c 0
 303.41015625 601.254756004 270.077082431 622.211914062 231.48046875 622.211914062 c 0x1bc0
 193.078900574 622.211914062 161.66015625 601.254756004 161.66015625 543.622070312 c 0
35 543.622070312 m 0
 35 651.274844993 106.688680634 738.9921875 231.48046875 738.9921875 c 0
 356.271261196 738.9921875 427.959960938 651.274844993 427.959960938 543.622070312 c 0
 427.959960938 436.089535165 356.271261196 347.142578125 231.48046875 347.142578125 c 0
 106.688680634 347.142578125 35 436.089535165 35 543.622070312 c 0
EndSplineSet
Refer: 138 8260 N 1 0 0 1 301 0 2
Validated: 1
EndChar

StartChar: at
Encoding: 64 64 91
Width: 924
Flags: W
HStem: -159.727 116.758<364.054 655.17> 71.9697 119.754<394.457 505.596> 72.709 111.676<673.306 751.682> 361.303 117.773<403.412 510.655> 592.738 114.988<343.104 598.179>
VStem: 35 123.175<148.478 406.306> 234.842 142.517<208.814 335.117> 530.183 135.902<226.287 334.466> 543.533 65.4717<151.351 350.156> 772.417 116.87<202.889 431.089>
LayerCount: 2
Fore
SplineSet
377.358398438 267.0546875 m 0xdf40
 377.358398438 217.760873355 401.494675435 191.723632812 447.194335938 191.723632812 c 0
 499.604261194 191.723632812 530.182617188 226.286712856 530.182617188 285.529296875 c 0
 530.182617188 334.466150018 502.614306044 361.302734375 457.834960938 361.302734375 c 0
 406.956654467 361.302734375 377.358398438 326.63942379 377.358398438 267.0546875 c 0xdf40
421.392578125 71.9697265625 m 0
 309.713023639 71.9697265625 234.841796875 147.449266989 234.841796875 260.037109375 c 0
 234.841796875 389.849351006 322.387779575 479.076171875 437.166015625 479.076171875 c 0
 554.342051082 479.076171875 609.004882812 405.033063343 609.004882812 264.27734375 c 0xdec0
 609.004882812 151.351094313 531.563026385 71.9697265625 421.392578125 71.9697265625 c 0
487.713867188 -159.7265625 m 0
 207.397460938 -159.7265625 35 14.611328125 35 268.08984375 c 0
 35 524.041992188 211.735351562 707.7265625 466.420898438 707.7265625 c 0
 713.297851562 707.7265625 889.287109375 561.379882812 889.287109375 321.901367188 c 0
 889.287109375 171.18359375 819.111374469 72.708984375 696.626953125 72.708984375 c 0
 600.64453125 72.708984375 543.533203125 120.982421875 543.533203125 228.081054688 c 0xbec0
 543.533203125 350.15625 582.563476562 476.46484375 582.563476562 476.46484375 c 1
 707.37890625 476.46484375 l 1
 707.37890625 476.46484375 666.084960938 337.17578125 666.084960938 236.827148438 c 0
 666.084960938 202.5 680.93392853 184.384765625 708.943359375 184.384765625 c 0xbf40
 750.739382807 184.384765625 772.416992188 212.455078125 772.416992188 318.072265625 c 0
 772.416992188 493.614257812 654.612304688 592.73828125 462.984375 592.73828125 c 0
 276.40234375 592.73828125 158.174804688 470.235351562 158.174804688 279.489257812 c 0
 158.174804688 79.1181640625 276.118164062 -42.96875 507.6796875 -42.96875 c 0
 667.01171875 -42.96875 766.61328125 28.5576171875 766.61328125 28.5576171875 c 1
 805.250976562 -72.2255859375 l 1
 805.250976562 -72.2255859375 701.004882812 -159.7265625 487.713867188 -159.7265625 c 0
EndSplineSet
Validated: 5
EndChar

StartChar: numbersign
Encoding: 35 35 92
Width: 767
Flags: W
HStem: 0 21G<96.5 240.014 366.5 510.014> 174 121<35 697> 419 121<70 732> 711.008 20G<256.986 400.5 526.986 670.5>
LayerCount: 2
Fore
SplineSet
70 540 m 1
 732 540 l 1
 732 419 l 1
 70 419 l 1
 70 540 l 1
35 295 m 1
 697 295 l 1
 697 174 l 1
 35 174 l 1
 35 295 l 1
366.5 0 m 1
 531.5 731.0078125 l 1
 670.5 731.0078125 l 1
 505.5 0 l 1
 366.5 0 l 1
96.5 0 m 1
 261.5 731.0078125 l 1
 400.5 731.0078125 l 1
 235.5 0 l 1
 96.5 0 l 1
EndSplineSet
Validated: 5
EndChar

StartChar: braceright
Encoding: 125 125 93
Width: 433
Flags: W
HStem: -171.47 123.996<36.4621 147.957> 251.532 126<320.778 403> 635.474 123.996<36.3831 148.05>
VStem: 164 149<-30.3793 243.118 385.28 618.379>
LayerCount: 2
Fore
SplineSet
225 314.532226562 m 1
 225 314.532226562 164 337.53515625 164 419.532226562 c 2
 164 563.473632812 l 2
 164 618.754882812 137.7578125 635.473632812 91 635.473632812 c 0
 53.8193359375 635.473632812 37 630.473632812 37 630.473632812 c 1
 30 749.469726562 l 1
 30 749.469726562 72.25 759.469726562 127 759.469726562 c 0
 263.9375 759.469726562 313 696.430664062 313 589.469726562 c 2
 313 439.532226562 l 2
 313 392.205078125 331.498046875 377.532226562 368 377.532226562 c 2
 403 377.532226562 l 1
 403 251.532226562 l 1
 368 251.532226562 l 2
 331.498046875 251.532226562 313 236.860351562 313 189.532226562 c 2
 313 -1.4697265625 l 2
 313 -108.43359375 263.9375 -171.469726562 127 -171.469726562 c 0
 67 -171.469726562 30 -161.469726562 30 -161.469726562 c 1
 37 -42.4736328125 l 1
 37 -42.4736328125 46.556640625 -47.4736328125 90 -47.4736328125 c 0
 137.3984375 -47.4736328125 164 -30.755859375 164 24.5263671875 c 2
 164 209.532226562 l 2
 164 289.532226562 225 314.532226562 225 314.532226562 c 1
EndSplineSet
Validated: 1
EndChar

StartChar: asciitilde
Encoding: 126 126 94
Width: 436
VWidth: 999
Flags: W
HStem: 277 130<231.151 353.822> 326 129<70.5041 204.877>
LayerCount: 2
Fore
SplineSet
431 355 m 1x80
 431 355 379.06557377 277 299 277 c 0x80
 221.461538462 277 195.615384615 326 139 326 c 0
 101 326 70 292 70 292 c 1
 5 395 l 1
 5 395 62.3442622951 455 137 455 c 0x40
 213.307692308 455 245.307692308 407 297 407 c 0
 340 407 362 437 362 437 c 1
 431 355 l 1x80
EndSplineSet
Validated: 1
EndChar

StartChar: cent
Encoding: 162 162 95
Width: 492
Flags: W
HStem: -5 189.47<228 359> 105.002 133.462<236.528 412.694> 490.284 135.649<231.922 390.747> 570 159.47<228 359>
VStem: 35 154.849<285.326 446.105> 228 131<-5 184.47 570 729.47>
LayerCount: 2
Fore
SplineSet
228 -5 m 1x8c
 228 184.469726562 l 1
 359 184.469726562 l 5
 359 -5 l 5
 228 -5 l 1x8c
228 570 m 1x1c
 228 729.469726562 l 1
 359 729.469726562 l 5
 359 570 l 5
 228 570 l 1x1c
EndSplineSet
Refer: 40 99 N 1 0 0 1 0 115 2
Validated: 5
EndChar

StartChar: sterling
Encoding: 163 163 96
Width: 553
Flags: W
HStem: 0 145<220.319 523> 275 136<40 434> 592.621 146.841<254.937 450.214>
VStem: 59.3516 172.979<450.666 570.482> 136.824 152.657<225.234 409.461>
LayerCount: 2
Fore
SplineSet
434 275 m 5xe0
 40 275 l 5
 40 411 l 5
 434 411 l 5
 434 275 l 5xe0
523 0 m 1
 30 0 l 1
 30 125 l 1
 30 125 136.82421875 200.513671875 136.82421875 309.379882812 c 0xe8
 136.82421875 403.659179688 59.3515625 428.176757812 59.3515625 547.185546875 c 0
 59.3515625 671.3984375 156.767938878 739.461914062 302.80859375 739.461914062 c 0
 442.538835557 739.461914062 504.95703125 703.405273438 504.95703125 703.405273438 c 1
 474.9375 561.024414062 l 1
 474.9375 561.024414062 409.877929688 592.62109375 337.80859375 592.62109375 c 0
 279.181640625 592.62109375 232.330078125 579.96484375 232.330078125 516.024414062 c 0xf0
 232.330078125 455.834960938 289.481445312 415.262695312 289.481445312 320.158203125 c 0xe8
 289.481445312 211.622070312 220.319335938 145 220.319335938 145 c 1
 523 145 l 1
 523 0 l 1
EndSplineSet
Validated: 5
EndChar

StartChar: yen
Encoding: 165 165 97
Width: 649
Flags: W
HStem: 0 21G<240 409> 175 86<79.5 569.5> 305 116<240 409> 305 86<79.5 246 403 569.5> 322 69<246 403> 711.008 20G<20 213.057 435.943 629>
VStem: 240 169<0 421>
LayerCount: 2
Fore
SplineSet
246 322 m 1xce
 20 731.0078125 l 1
 204 731.0078125 l 1
 324.5 464.916015625 l 1
 445 731.0078125 l 1
 629 731.0078125 l 1
 403 322 l 1
 246 322 l 1xce
240 0 m 1
 240 421 l 1
 409 421 l 1xe6
 409 0 l 1
 240 0 l 1
569.5 175 m 5
 79.5 175 l 1
 79.5 261 l 1
 569.5 261 l 5
 569.5 175 l 5
569.5 305 m 5xd6
 79.5 305 l 1
 79.5 391 l 1
 569.5 391 l 5
 569.5 305 l 5xd6
EndSplineSet
Validated: 5
EndChar

StartChar: currency
Encoding: 164 164 98
Width: 513
Flags: W
HStem: 156.724 122.462<209.861 302.693> 435.006 122.649<209.881 302.712>
VStem: 52.6113 130.849<298.149 418.084> 329.54 130.849<298.744 417.522>
LayerCount: 2
Fore
SplineSet
305.239257812 213.436523438 m 1
 413.889648438 246.325195312 l 1
 508.259765625 124.765625 l 1
 369.580078125 66.1455078125 l 1
 305.239257812 213.436523438 l 1
208.020507812 213.436523438 m 1
 143.6796875 66.1455078125 l 1
 5 124.765625 l 1
 99.3701171875 246.325195312 l 1
 208.020507812 213.436523438 l 1
305.239257812 497.74609375 m 1
 369.580078125 645.036132812 l 1
 508.259765625 586.416015625 l 1
 413.889648438 464.856445312 l 1
 305.239257812 497.74609375 l 1
208.020507812 497.74609375 m 1
 99.3701171875 464.856445312 l 1
 5 586.416015625 l 1
 143.6796875 645.036132812 l 1
 208.020507812 497.74609375 l 1
183.459960938 359.283203125 m 0
 183.459960938 311.252929688 205.035886979 279.185546875 255.5 279.185546875 c 0
 307.365501074 279.185546875 329.540039062 311.252929688 329.540039062 359.283203125 c 4
 329.540039062 404.690429688 307.39869625 435.005859375 255.611328125 435.005859375 c 0
 205.069081914 435.005859375 183.459960938 404.690429688 183.459960938 359.283203125 c 0
52.611328125 359.283203125 m 0
 52.611328125 479.317382812 129.379882812 557.655273438 255.5 557.655273438 c 0
 382.86328125 557.655273438 460.388671875 479.317382812 460.388671875 359.283203125 c 0
 460.388671875 236.715820312 382.86328125 156.723632812 255.5 156.723632812 c 0
 129.379882812 156.723632812 52.611328125 236.715820312 52.611328125 359.283203125 c 0
EndSplineSet
Validated: 5
EndChar

StartChar: brokenbar
Encoding: 166 166 99
Width: 249
Flags: W
VStem: 55 139<-171.47 239 339 759.47>
LayerCount: 2
Fore
SplineSet
55 -171.469726562 m 1
 55 239 l 5
 194 239 l 5
 194 -171.469726562 l 1
 55 -171.469726562 l 1
55 339 m 1
 55 759.469726562 l 1
 194 759.469726562 l 1
 194 339 l 1
 55 339 l 1
EndSplineSet
Validated: 1
EndChar

StartChar: section
Encoding: 167 167 100
Width: 593
Flags: W
HStem: -19.6709 124.391<162.664 331.064> 630.212 124.391<262.669 431.069>
VStem: 30 143.858<348.622 433.151> 100.9 156.231<558.3 622.463> 336.602 156.231<112.468 176.632> 419.875 143.858<301.78 386.31>
LayerCount: 2
Fore
SplineSet
175.081054688 535.153320312 m 1xe8
 239.889648438 459.951171875 l 1
 239.889648438 459.951171875 173.858398438 445.112304688 173.858398438 382.393554688 c 0
 173.858398438 352.024414062 198.733398438 332.931640625 316.55078125 316.138671875 c 0
 457.129882812 296.1015625 492.833007812 230.323242188 492.833007812 145.370117188 c 0
 492.833007812 42.560546875 410.662109375 -19.6708984375 275.66796875 -19.6708984375 c 0
 162.953125 -19.6708984375 108.135742188 19.734375 108.135742188 19.734375 c 1
 146.263671875 133.825195312 l 1
 146.263671875 133.825195312 196.752929688 104.719726562 271.170898438 104.719726562 c 0
 316.3046875 104.719726562 336.6015625 118.776367188 336.6015625 141.443359375 c 0
 336.6015625 162.831054688 324.018554688 182.041015625 276.34765625 188.119140625 c 0
 81.7333984375 212.931640625 30 273.618164062 30 362.309570312 c 0
 30 482.905273438 175.081054688 535.153320312 175.081054688 535.153320312 c 1xe8
418.65234375 199.778320312 m 1
 353.84375 274.98046875 l 1
 353.84375 274.98046875 419.875 289.819335938 419.875 352.538085938 c 0
 419.875 382.907226562 395 402 277.182617188 418.79296875 c 0
 136.603515625 438.830078125 100.900390625 504.608398438 100.900390625 589.561523438 c 0
 100.900390625 692.37109375 183.071289062 754.602539062 318.065429688 754.602539062 c 0
 430.780273438 754.602539062 485.59765625 715.197265625 485.59765625 715.197265625 c 1
 447.469726562 601.106445312 l 1
 447.469726562 601.106445312 396.98046875 630.211914062 322.5625 630.211914062 c 0
 277.428710938 630.211914062 257.131835938 616.155273438 257.131835938 593.48828125 c 0
 257.131835938 572.100585938 269.71484375 552.890625 317.385742188 546.8125 c 0
 512 522 563.733398438 461.313476562 563.733398438 372.622070312 c 0xd4
 563.733398438 252.026367188 418.65234375 199.778320312 418.65234375 199.778320312 c 1
EndSplineSet
Validated: 5
EndChar

StartChar: dieresis
Encoding: 168 168 101
Width: 459
Flags: W
HStem: 572.543 166.449<65.7926 183.207 275.793 393.207>
VStem: 41.8867 165.227<596.626 714.909> 251.887 165.227<596.626 714.909>
LayerCount: 2
Fore
SplineSet
251.88671875 655.767578125 m 4
 251.88671875 706.186392055 284.450382684 738.9921875 334.499023438 738.9921875 c 4
 384.548654747 738.9921875 417.11328125 706.186392055 417.11328125 655.767578125 c 4
 417.11328125 605.347853302 384.548654747 572.54296875 334.499023438 572.54296875 c 4
 284.450382684 572.54296875 251.88671875 605.347853302 251.88671875 655.767578125 c 4
41.88671875 655.767578125 m 0
 41.88671875 706.186392055 74.4503826844 738.9921875 124.499023438 738.9921875 c 0
 174.548654747 738.9921875 207.11328125 706.186392055 207.11328125 655.767578125 c 0
 207.11328125 605.347853302 174.548654747 572.54296875 124.499023438 572.54296875 c 0
 74.4503826844 572.54296875 41.88671875 605.347853302 41.88671875 655.767578125 c 0
EndSplineSet
Validated: 1
EndChar

StartChar: copyright
Encoding: 169 169 102
Width: 797
Flags: W
HStem: -9.99805 109.857<280.459 517.318> 177.281 106.231<371.678 521.617> 445.61 106.231<371.678 503.675> 629.264 109.857<280.459 517.318>
VStem: 35 112.896<237.655 491.468> 226.957 124.424<304.21 424.913> 649.881 112.896<237.655 491.468>
LayerCount: 2
Fore
SplineSet
226.95703125 364.561523438 m 0
 226.95703125 477.88408452 291.748046875 551.841796875 416.401367188 551.841796875 c 4
 499.2421875 551.841796875 539.297851562 518.7265625 539.297851562 518.7265625 c 1
 508.634765625 419.849609375 l 1
 508.634765625 419.849609375 487.30859375 445.610351562 431.901367188 445.610351562 c 0
 373.29296875 445.610351562 351.380859375 413.163085938 351.380859375 364.561523438 c 0
 351.380859375 315.959960938 373.29296875 283.512695312 431.901367188 283.512695312 c 0
 491.76171875 283.512695312 517.465820312 306.578125 517.465820312 306.578125 c 1
 540.870117188 204.578125 l 1
 540.870117188 204.578125 498.682617188 177.28125 416.401367188 177.28125 c 4
 291.748046875 177.28125 226.95703125 251.238962356 226.95703125 364.561523438 c 0
147.896484375 364.561523438 m 0
 147.896484375 205.83203125 223.067382812 99.859375 398.888671875 99.859375 c 0
 574.709960938 99.859375 649.880859375 205.83203125 649.880859375 364.561523438 c 0
 649.880859375 523.291015625 574.709960938 629.263671875 398.888671875 629.263671875 c 0
 223.067382812 629.263671875 147.896484375 523.291015625 147.896484375 364.561523438 c 0
35 364.561523438 m 0
 35 591.206054688 172.688476562 739.12109375 398.888671875 739.12109375 c 0
 625.088867188 739.12109375 762.77734375 591.206054688 762.77734375 364.561523438 c 0
 762.77734375 137.916992188 625.088867188 -9.998046875 398.888671875 -9.998046875 c 0
 172.688476562 -9.998046875 35 137.916992188 35 364.561523438 c 0
EndSplineSet
Validated: 1
EndChar

StartChar: registered
Encoding: 174 174 103
Width: 797
Flags: W
HStem: -9.99805 109.857<280.459 517.318> 310.752 80.1758<306 430.293> 465.076 83.1797<356 432.435> 629.264 109.857<280.459 517.318>
VStem: 35 112.896<237.655 491.468> 241.5 114.5<182.752 310.752 390.928 465.076> 306 50<310.752 390.928> 437.465 111.924<255.568 306.788 394.645 460.889> 649.881 112.896<237.655 491.468>
LayerCount: 2
Fore
SplineSet
306 390.927734375 m 1xfb80
 390.444335938 390.982421875 l 2
 417.363507625 390.998907951 437.46484375 397.554615344 437.46484375 427.533203125 c 0
 437.46484375 458.015264351 417.363507625 465.001877059 390.444335938 465.025390625 c 2
 356 465.076171875 l 1
 356 182.751953125 l 1
 241.5 182.751953125 l 1
 241.5 548.255859375 l 1xfd80
 408.444335938 548.255859375 l 2
 482.602050781 548.255859375 549.388671875 517.419566578 549.388671875 435.033203125 c 0
 549.388671875 370.866493698 499.34375 351.890625 499.34375 351.890625 c 1
 499.34375 351.890625 534.820561231 343.525762937 546.3515625 281.451171875 c 2
 564.5 182.751953125 l 1
 448.5 182.751953125 l 1
 436 265.251953125 l 2
 429.660205295 307.094598176 420.410710121 310.751953125 386 310.751953125 c 2
 306 310.751953125 l 1
 306 390.927734375 l 1xfb80
147.896484375 364.561523438 m 4
 147.896484375 205.83203125 223.067382812 99.859375 398.888671875 99.859375 c 4
 574.709960938 99.859375 649.880859375 205.83203125 649.880859375 364.561523438 c 4
 649.880859375 523.291015625 574.709960938 629.263671875 398.888671875 629.263671875 c 4
 223.067382812 629.263671875 147.896484375 523.291015625 147.896484375 364.561523438 c 4
35 364.561523438 m 0
 35 591.206054688 172.688476562 739.12109375 398.888671875 739.12109375 c 0
 625.088867188 739.12109375 762.77734375 591.206054688 762.77734375 364.561523438 c 0
 762.77734375 137.916992188 625.088867188 -9.998046875 398.888671875 -9.998046875 c 0
 172.688476562 -9.998046875 35 137.916992188 35 364.561523438 c 0
EndSplineSet
Validated: 5
EndChar

StartChar: uni2117
Encoding: 8471 8471 104
Width: 797
Flags: W
HStem: -9.99805 109.857<280.459 517.318> 286.752 85.1758<313.694 456.288> 461.076 87.1797<363.694 456.387> 629.264 109.857<280.459 517.318>
VStem: 35 112.896<237.655 491.468> 249.194 114.5<182.752 286.752 371.928 461.076> 313.694 50<286.752 371.928> 462.659 111.924<378.93 453.82> 649.881 112.896<237.655 491.468>
LayerCount: 2
Fore
SplineSet
313.694335938 286.751953125 m 1xfb80
 313.694335938 371.927734375 l 1xfb80
 402.138671875 371.982421875 l 2
 436.786616751 372.003845627 462.659179688 379.903356651 462.659179688 416.033203125 c 0
 462.659179688 452.613156769 436.786604031 460.979624057 402.138671875 461.025390625 c 2
 363.694335938 461.076171875 l 1
 363.694335938 182.751953125 l 1
 249.194335938 182.751953125 l 1
 249.194335938 548.255859375 l 1xfd80
 436.138671875 548.255859375 l 2
 508.980947571 548.255859375 574.583007812 512.244978898 574.583007812 416.033203125 c 0
 574.583007812 321.475395761 508.554608609 286.751953125 436.138671875 286.751953125 c 2
 313.694335938 286.751953125 l 1xfb80
147.896484375 364.561523438 m 4
 147.896484375 205.83203125 223.067382812 99.859375 398.888671875 99.859375 c 4
 574.709960938 99.859375 649.880859375 205.83203125 649.880859375 364.561523438 c 4
 649.880859375 523.291015625 574.709960938 629.263671875 398.888671875 629.263671875 c 4
 223.067382812 629.263671875 147.896484375 523.291015625 147.896484375 364.561523438 c 4
35 364.561523438 m 0
 35 591.206054688 172.688476562 739.12109375 398.888671875 739.12109375 c 0
 625.088867188 739.12109375 762.77734375 591.206054688 762.77734375 364.561523438 c 0
 762.77734375 137.916992188 625.088867188 -9.998046875 398.888671875 -9.998046875 c 0
 172.688476562 -9.998046875 35 137.916992188 35 364.561523438 c 0
EndSplineSet
Validated: 5
EndChar

StartChar: guillemotleft
Encoding: 171 171 105
Width: 590
Flags: W
LayerCount: 2
Fore
SplineSet
35 281 m 1
 175 441 l 1
 335 441 l 1
 181.75 254 l 1
 335 67 l 1
 175 67 l 1
 35 227 l 1
 35 281 l 1
285 281 m 5
 425 441 l 5
 585 441 l 5
 431.75 254 l 5
 585 67 l 5
 425 67 l 5
 285 227 l 5
 285 281 l 5
EndSplineSet
Validated: 1
EndChar

StartChar: guillemotright
Encoding: 187 187 106
Width: 590
Flags: W
LayerCount: 2
Fore
SplineSet
555 227 m 5
 415 67 l 5
 255 67 l 5
 408.25 254 l 5
 255 441 l 5
 415 441 l 5
 555 281 l 5
 555 227 l 5
305 227 m 5
 165 67 l 5
 5 67 l 5
 158.25 254 l 5
 5 441 l 5
 165 441 l 5
 305 281 l 5
 305 227 l 5
EndSplineSet
Validated: 1
EndChar

StartChar: mu
Encoding: 181 181 107
Width: 595
Flags: W
HStem: -9.92285 130.649<237.706 345.089> 0 21G<381.777 540.777> 481.011 20G<55 214 381.777 540.777>
VStem: 55 159<196.449 501.011> 95 119<56.9261 321.011> 381.777 159<207.449 501.011>
LayerCount: 2
Fore
SplineSet
55 -180 m 5x34
 55 501.010742188 l 5
 214 501.010742188 l 5x34
 214 -180 l 5x2c
 55 -180 l 5x34
381.77734375 217.010742188 m 0
 446.77734375 207.44921875 l 0
 424.903317112 57.0107421877 373.035217645 -9.9228515625 243.77734375 -9.9228515625 c 0
 145.526694983 -9.9228515625 95 56.9260601597 95 196.44921875 c 2
 95 321.010742188 l 1xac
 214 321.010742188 l 1
 214 213.44921875 l 2
 214 154.712498912 238.678480459 120.7265625 296.77734375 120.7265625 c 0xb4
 356.320340654 120.7265625 381.77734375 159.273595234 381.77734375 217.010742188 c 0
540.77734375 501.010742188 m 1
 540.77734375 0 l 1
 381.77734375 0 l 1x64
 381.77734375 501.010742188 l 1
 540.77734375 501.010742188 l 1
EndSplineSet
Validated: 5
EndChar

StartChar: acute
Encoding: 180 180 108
Width: 242
Flags: W
HStem: 516 225.008
VStem: 1 240
LayerCount: 2
Fore
SplineSet
101 516 m 5
 1 536 l 5
 95 741.0078125 l 5
 241 711.0078125 l 5
 101 516 l 5
EndSplineSet
Validated: 1
EndChar

StartChar: macron
Encoding: 175 175 109
Width: 374
Flags: W
HStem: 610.008 121<30 344>
VStem: 30 314<610.008 731.008>
LayerCount: 2
Fore
SplineSet
344 610.0078125 m 5
 30 610.0078125 l 1
 30 731.0078125 l 1
 344 731.0078125 l 5
 344 610.0078125 l 5
EndSplineSet
Validated: 1
EndChar

StartChar: uni00AD
Encoding: 173 173 110
Width: 354
Flags: W
HStem: 209 141<30 324>
VStem: 30 294<209 350>
LayerCount: 2
Fore
SplineSet
324 209 m 5
 30 209 l 1
 30 350 l 1
 324 350 l 5
 324 209 l 5
EndSplineSet
Validated: 1
EndChar

StartChar: logicalnot
Encoding: 172 172 111
Width: 450
Flags: W
HStem: 285 146<30 270>
VStem: 270 150<165 285>
LayerCount: 2
Fore
SplineSet
420 165 m 1
 270 165 l 5
 270 285 l 5
 30 285 l 1
 30 431 l 1
 420 431 l 1
 420 165 l 1
EndSplineSet
Validated: 1
EndChar

StartChar: minus
Encoding: 8722 8722 112
Width: 450
Flags: W
HStem: 285 146<30 420>
LayerCount: 2
Fore
SplineSet
420 285 m 5
 30 285 l 5
 30 431 l 5
 420 431 l 5
 420 285 l 5
EndSplineSet
Validated: 1
EndChar

StartChar: notequal
Encoding: 8800 8800 113
Width: 450
Flags: W
HStem: 215 116<30 420> 385 116<30 420>
LayerCount: 2
Fore
SplineSet
50 108.530273438 m 5
 255 601.403320312 l 1
 394 601.403320312 l 1
 189 108.530273438 l 5
 50 108.530273438 l 5
EndSplineSet
Refer: 52 61 N 1 0 0 1 0 0 2
Validated: 5
EndChar

StartChar: partialdiff
Encoding: 8706 8706 114
Width: 620
Flags: W
HStem: -9.99805 137.889<223.632 364.089> 345.891 124.709<234.591 377.493> 586.52 152.473<189.965 371.09>
VStem: 35 156.767<159.852 304.164> 406.767 178.398<202.397 464.984>
LayerCount: 2
Fore
SplineSet
406.766601562 246.890625 m 0
 406.766601562 304.110808486 378.429595686 345.890625 309.766601562 345.890625 c 0
 226.23828125 345.890625 191.766601562 295.670441514 191.766601562 226.890625 c 0
 191.766601562 169.670441514 220.395623676 127.890625 289.766601562 127.890625 c 0
 372.586914062 127.890625 406.766601562 178.110808486 406.766601562 246.890625 c 0
436.861328125 429.747070312 m 5
 431.435039783 531.393275772 383.385923509 586.51953125 288.38671875 586.51953125 c 0
 205.585092091 586.51953125 160.545898438 547.388671875 160.545898438 547.388671875 c 1
 103.241210938 688.860351562 l 1
 103.241210938 688.860351562 168.011208645 738.9921875 295.8671875 738.9921875 c 0
 481.834021242 738.9921875 585.165039062 612.671898034 585.165039062 385.331054688 c 0
 585.165039062 105.516837439 474.903320312 -9.998046875 288.8671875 -9.998046875 c 0
 131.429519377 -9.998046875 35 75.5176128099 35 229 c 0
 35 372.20164401 134.643308549 470.599609375 291.901367188 470.599609375 c 0
 401.656152805 470.599609375 436.861328125 429.747070312 436.861328125 429.747070312 c 5
EndSplineSet
Validated: 1
EndChar

StartChar: emptyset
Encoding: 8709 8709 115
Width: 797
Flags: W
HStem: -9.99805 122.462<327.616 509.959> 616.659 122.462<287.818 473.364>
VStem: 35 124.849<242.469 486.654> 637.929 124.849<242.469 486.654>
LayerCount: 2
Fore
SplineSet
159.848632812 364.561523438 m 4
 159.848632812 213.39027731 231.439727101 112.463867188 398.888671875 112.463867188 c 4
 566.337616649 112.463867188 637.928710938 213.39027731 637.928710938 364.561523438 c 4
 637.928710938 515.732769563 566.337616649 616.659179688 398.888671875 616.659179688 c 4
 231.439727101 616.659179688 159.848632812 515.732769563 159.848632812 364.561523438 c 4
35 364.561523438 m 4
 35 591.206054688 172.688476562 739.12109375 398.888671875 739.12109375 c 4
 625.088867188 739.12109375 762.77734375 591.206054688 762.77734375 364.561523438 c 4
 762.77734375 137.916992188 625.088867188 -9.998046875 398.888671875 -9.998046875 c 4
 172.688476562 -9.998046875 35 137.916992188 35 364.561523438 c 4
101.5 -90.873046875 m 1
 566.5 812 l 1
 695.5 812 l 1
 230.5 -90.873046875 l 1
 101.5 -90.873046875 l 1
EndSplineSet
Validated: 5
EndChar

StartChar: Delta
Encoding: 8710 8710 116
Width: 719
Flags: W
HStem: 0 156<214 505> 711.008 20G<257.137 452.205>
LayerCount: 2
Fore
SplineSet
684 0 m 1
 35 0 l 1
 35 146 l 1
 265 731.0078125 l 1
 444 731.0078125 l 1
 684 146 l 1
 684 0 l 1
505 156 m 5
 355.393554688 540.313476562 l 1
 214 156 l 5
 505 156 l 5
EndSplineSet
Validated: 1
EndChar

StartChar: plusminus
Encoding: 177 177 117
Width: 450
Flags: W
HStem: 148 126<30 152 298 420> 168 106<152 298> 325 146<30 420>
VStem: 152 146<168 568>
LayerCount: 2
Fore
SplineSet
420 148 m 1xb0
 30 148 l 1
 30 274 l 1
 420 274 l 1
 420 148 l 1xb0
152 168 m 5x70
 152 568 l 1
 298 568 l 1
 298 168 l 5
 152 168 l 5x70
420 325 m 1
 30 325 l 1
 30 471 l 1
 420 471 l 1
 420 325 l 1
EndSplineSet
Validated: 5
EndChar

StartChar: degree
Encoding: 176 176 118
Width: 431
Flags: W
HStem: 400.07 113.526<167.63 263.181> 647.288 113.714<167.642 263.193>
VStem: 30 124.412<526.472 634.643> 277.365 124.412<526.925 634.196>
LayerCount: 2
Fore
SplineSet
154.412109375 580.854492188 m 4
 154.412109375 540.523397659 172.494140625 513.596679688 214.786132812 513.596679688 c 4
 258.623046875 513.596679688 277.365234375 540.523397659 277.365234375 580.854492188 c 4
 277.365234375 620.691626685 258.66015625 647.288085938 214.909179688 647.288085938 c 4
 172.53125 647.288085938 154.412109375 620.691626685 154.412109375 580.854492188 c 4
30 580.629882812 m 0
 30 689.772696384 99.957929209 761.001953125 214.888671875 761.001953125 c 4
 331.062577754 761.001953125 401.77734375 689.772696384 401.77734375 580.629882812 c 4
 401.77734375 471.374251811 331.062577754 400.0703125 214.888671875 400.0703125 c 4
 99.957929209 400.0703125 30 471.374251811 30 580.629882812 c 0
EndSplineSet
Validated: 1
EndChar

StartChar: cedilla
Encoding: 184 184 120
Width: 317
VWidth: 999
Flags: W
HStem: -255 88<48.6331 175.201>
VStem: 178 109<-162.785 -99.7509>
LayerCount: 2
Fore
SplineSet
287 -131 m 0
 287 -209.970703125 237.749023438 -255 146 -255 c 0
 84.91796875 -255 30 -232 30 -232 c 1
 54 -146 l 1
 54 -146 83.103515625 -167 130 -167 c 0
 165.705078125 -167 178 -154.228515625 178 -130 c 0
 178 -108.4375 163.522460938 -96 140 -96 c 0
 114.043945312 -96 105 -111 105 -111 c 1
 47 -92 l 1
 69 39 l 1
 159 39 l 1
 148.485351562 -26.603515625 l 1
 148.485351562 -26.603515625 157.557617188 -21 186 -21 c 4
 251.27734375 -21 287 -62.5234375 287 -131 c 0
EndSplineSet
Validated: 1
EndChar

StartChar: paragraph
Encoding: 182 182 121
Width: 682
Flags: W
HStem: 598.992 132<405.889 485.889>
VStem: 30 375.889<393.837 594.957> 263.889 142<-179.994 284.637> 485.889 142<-179.994 598.992>
LayerCount: 2
Fore
SplineSet
405.888671875 -179.994140625 m 1xb0
 263.888671875 -179.994140625 l 1
 263.888671875 282.9921875 l 1xb0
 133.2890625 292.9921875 30 337.833007812 30 499.432617188 c 0xd0
 30 667.032226562 142 730.9921875 283.888671875 730.9921875 c 2
 627.888671875 730.9921875 l 1
 627.888671875 -179.994140625 l 1
 485.888671875 -179.994140625 l 1
 485.888671875 598.9921875 l 1
 405.888671875 598.9921875 l 1
 405.888671875 -179.994140625 l 1xb0
EndSplineSet
Validated: 1
EndChar

StartChar: ordfeminine
Encoding: 170 170 122
Width: 402
Flags: W
HStem: 379.992 94<293.5 390.826> 379.992 87<101.544 223.955> 530.992 73<138.467 243> 641.992 97<78.1355 220.657>
VStem: 20 116<470.422 524.133> 231 119<479.992 496.992 579.992 632.056> 231 37<425.992 494.992> 231 12<530.992 603.992>
LayerCount: 2
Fore
SplineSet
231 509.9921875 m 5x79
 231 483.9921875 209 466.9921875 177 466.9921875 c 4
 148 466.9921875 136 478.9921875 136 497.9921875 c 4
 136 524.9921875 162 530.9921875 243 530.9921875 c 5
 243 603.9921875 l 5x79
 113 603.9921875 20 587.9921875 20 485.9921875 c 4
 20 421.9921875 66 379.9921875 140 379.9921875 c 4
 227 379.9921875 268 425.9921875 268 494.9921875 c 5x7a
 231 509.9921875 l 5x79
231 579.9921875 m 6xbc
 231 469.9921875 l 6xba
 231 408.9921875 262 379.9921875 325 379.9921875 c 4
 373 379.9921875 396 396.9921875 396 396.9921875 c 5
 390 477.9921875 l 5
 390 477.9921875 383 473.9921875 371 473.9921875 c 4
 356 473.9921875 350 479.9921875 350 496.9921875 c 6
 350 597.9921875 l 6
 350 682.9921875 303 738.9921875 190 738.9921875 c 4
 107 738.9921875 50 705.9921875 50 705.9921875 c 5
 82 622.9921875 l 5
 82 622.9921875 118 641.9921875 169 641.9921875 c 4
 212 641.9921875 231 622.9921875 231 579.9921875 c 6xbc
EndSplineSet
Validated: 5
EndChar

StartChar: ordmasculine
Encoding: 186 186 123
Width: 418
Flags: W
HStem: 377.992 108<156.498 261.85> 630.992 108<154.158 261.669>
VStem: 23 116<502.221 614.415> 279 116<501.693 614.415>
LayerCount: 2
Fore
SplineSet
139 559.9921875 m 4
 139 514.9921875 160 485.9921875 209 485.9921875 c 4
 259 485.9921875 279 514.9921875 279 559.9921875 c 4
 279 601.9921875 258 630.9921875 209 630.9921875 c 4
 160 630.9921875 139 601.9921875 139 559.9921875 c 4
23 560.9921875 m 4
 23 668.9921875 94 738.9921875 209 738.9921875 c 4
 325 738.9921875 395 668.9921875 395 560.9921875 c 4
 395 449.9921875 325 377.9921875 209 377.9921875 c 4
 94 377.9921875 23 449.9921875 23 560.9921875 c 4
EndSplineSet
Validated: 1
EndChar

StartChar: arrowleft
Encoding: 8592 8592 124
Width: 550
Flags: W
HStem: 313.64 138<259.149 537.749> 323.64 118<139.749 418.349>
LayerCount: 2
Fore
SplineSet
537.749023438 313.639648438 m 5x80
 139.749023438 323.639648438 l 1
 139.749023438 441.639648438 l 1x40
 537.749023438 451.639648438 l 5
 537.749023438 313.639648438 l 5x80
157.561523438 382.638671875 m 1
 317.848632812 241.1171875 l 1
 224.510742188 147.779296875 l 1
 12.2509765625 382.638671875 l 1
 224.510742188 617.5 l 1
 317.848632812 524.16015625 l 1
 157.561523438 382.638671875 l 1
EndSplineSet
Validated: 5
EndChar

StartChar: product
Encoding: 8719 8719 128
Width: 719
Flags: W
HStem: 585.008 146<224 495>
VStem: 55 169<-179.994 585.008> 495 169<-179.994 585.008>
LayerCount: 2
Fore
SplineSet
664 731.0078125 m 1
 664 -179.994140625 l 5
 495 -179.994140625 l 5
 495 585.0078125 l 1
 224 585.0078125 l 1
 224 -179.994140625 l 5
 55 -179.994140625 l 5
 55 731.0078125 l 1
 664 731.0078125 l 1
EndSplineSet
Validated: 1
EndChar

StartChar: summation
Encoding: 8721 8721 129
Width: 634
Flags: W
HStem: -179.994 146<244 604> 585.008 146<264 604>
LayerCount: 2
Back
SplineSet
264 585.0078125 m 5
 394 410 l 5
 394 319 l 5
 244 146 l 5
 544 146 l 5
 544 0 l 5
 55 0 l 5
 55 161 l 5
 235 358 l 5
 55 589 l 5
 55 731.0078125 l 5
 544 731.0078125 l 5
 544 585.0078125 l 5
 264 585.0078125 l 5
EndSplineSet
Fore
SplineSet
264 585.0078125 m 1
 434 330 l 5
 434 239 l 5
 244 -33.994140625 l 1
 604 -33.994140625 l 1
 604 -179.994140625 l 1
 55 -179.994140625 l 1
 55 -18.994140625 l 1
 275 278 l 5
 55 589 l 1
 55 731.0078125 l 1
 604 731.0078125 l 1
 604 585.0078125 l 1
 264 585.0078125 l 1
EndSplineSet
Validated: 1
EndChar

StartChar: approxequal
Encoding: 8776 8776 130
Width: 450
VWidth: 999
Flags: W
HStem: 177 130<238.151 360.822> 226 129<77.5042 211.877> 367 130<238.151 360.822> 416 129<77.5042 211.877>
LayerCount: 2
Fore
SplineSet
438 255 m 5x80
 438 255 386.065429688 177 306 177 c 4x80
 228.461914062 177 202.615234375 226 146 226 c 4
 108 226 77 192 77 192 c 5
 12 295 l 5
 12 295 69.3447265625 355 144 355 c 4x40
 220.307617188 355 252.307617188 307 304 307 c 4
 347 307 369 337 369 337 c 5
 438 255 l 5x80
438 445 m 5
 438 445 386.065429688 367 306 367 c 4x20
 228.461914062 367 202.615234375 416 146 416 c 4
 108 416 77 382 77 382 c 5
 12 485 l 5
 12 485 69.3447265625 545 144 545 c 4x10
 220.307617188 545 252.307617188 497 304 497 c 4x20
 347 497 369 527 369 527 c 5
 438 445 l 5
EndSplineSet
Validated: 1
EndChar

StartChar: perthousand
Encoding: 8240 8240 131
Width: 1263
Flags: W
HStem: -9.99805 116.78<671.955 773.677 981.525 1085.83> 0 21G<191 341.901> 265.072 116.779<668.811 776.721 980.96 1086.41> 347.143 116.779<180.945 282.627> 622.212 116.78<180.388 285.753> 711.008 20G<614.099 765>
VStem: 35 126.66<481.069 603.651> 303.41 124.55<483.945 603.078> 526 125.66<126.805 245.938> 794.41 167.25<129.306 244.115> 846 62.96<78.9492 294.134> 1104.41 124.55<126.805 245.938>
LayerCount: 2
Fore
SplineSet
961.66015625 186.481445312 m 0xa3d0
 961.66015625 129.305664062 993.529296875 106.782226562 1032.48046875 106.782226562 c 0
 1071.07714844 106.782226562 1104.41015625 129.305664062 1104.41015625 186.481445312 c 0
 1104.41015625 244.115234375 1071.07714844 265.072265625 1032.48046875 265.072265625 c 0
 993.529296875 265.072265625 961.66015625 244.115234375 961.66015625 186.481445312 c 0xa3d0
846 186.481445312 m 0xa3b0
 846 294.133789062 917.688476562 381.8515625 1042.48046875 381.8515625 c 0
 1167.27148438 381.8515625 1228.95996094 294.133789062 1228.95996094 186.481445312 c 0
 1228.95996094 78.94921875 1167.27148438 -9.998046875 1042.48046875 -9.998046875 c 0
 917.688476562 -9.998046875 846 78.94921875 846 186.481445312 c 0xa3b0
651.66015625 186.481445312 m 0
 651.66015625 129.305439744 683.528894898 106.782226562 722.48046875 106.782226562 c 0
 761.077082431 106.782226562 794.41015625 129.305439744 794.41015625 186.481445312 c 0xa3d0
 794.41015625 244.115114367 761.077082431 265.072265625 722.48046875 265.072265625 c 0
 683.528894898 265.072265625 651.66015625 244.115114367 651.66015625 186.481445312 c 0
526 186.481445312 m 0
 526 294.134219993 587.688476562 381.8515625 712.48046875 381.8515625 c 0
 837.271484375 381.8515625 908.959960938 294.133789062 908.959960938 186.481445312 c 0xa3b0
 908.959960938 78.94921875 837.271484375 -9.998046875 712.48046875 -9.998046875 c 0
 587.688476562 -9.998046875 526 78.9489101654 526 186.481445312 c 0
161.66015625 543.622070312 m 0
 161.66015625 486.446082777 193.078900574 463.921875 231.48046875 463.921875 c 0
 270.077082431 463.921875 303.41015625 486.446082777 303.41015625 543.622070312 c 0
 303.41015625 601.254756004 270.077082431 622.211914062 231.48046875 622.211914062 c 0x1b90
 193.078900574 622.211914062 161.66015625 601.254756004 161.66015625 543.622070312 c 0
35 543.622070312 m 0
 35 651.274844993 106.688680634 738.9921875 231.48046875 738.9921875 c 0
 356.271261196 738.9921875 427.959960938 651.274844993 427.959960938 543.622070312 c 0
 427.959960938 436.089535165 356.271261196 347.142578125 231.48046875 347.142578125 c 0
 106.688680634 347.142578125 35 436.089535165 35 543.622070312 c 0
EndSplineSet
Refer: 138 8260 S 1 0 0 1 301 0 2
Validated: 5
EndChar

StartChar: uni2031
Encoding: 8241 8241 132
Width: 1573
Flags: W
HStem: -9.99805 116.78<671.955 773.677 981.844 1083.36 1291.52 1395.83> 0 21G<191 341.901> 265.072 116.779<668.811 776.721 978.793 1086.42 1290.96 1396.41> 347.143 116.779<180.945 282.627> 622.212 116.78<180.388 285.753> 711.008 20G<614.099 765>
VStem: 35 126.66<481.069 603.651> 303.41 124.55<483.945 603.078> 526 125.66<126.805 245.938> 794.41 167.25<129.306 244.115> 846 62.96<78.9492 294.134> 1104.41 167.25<129.306 244.115> 1156 62.96<78.9492 294.134> 1414.41 124.55<126.805 245.938>
LayerCount: 2
Fore
SplineSet
1271.66015625 186.481445312 m 0xa394
 1271.66015625 129.305664062 1303.52929688 106.782226562 1342.48046875 106.782226562 c 0
 1381.07714844 106.782226562 1414.41015625 129.305664062 1414.41015625 186.481445312 c 0
 1414.41015625 244.115234375 1381.07714844 265.072265625 1342.48046875 265.072265625 c 0
 1303.52929688 265.072265625 1271.66015625 244.115234375 1271.66015625 186.481445312 c 0xa394
1156 186.481445312 m 0xa38c
 1156 294.133789062 1227.68847656 381.8515625 1352.48046875 381.8515625 c 0
 1477.27148438 381.8515625 1538.95996094 294.133789062 1538.95996094 186.481445312 c 0
 1538.95996094 78.94921875 1477.27148438 -9.998046875 1352.48046875 -9.998046875 c 0
 1227.68847656 -9.998046875 1156 78.94921875 1156 186.481445312 c 0xa38c
961.66015625 186.481445312 m 0xa3d4
 961.66015625 129.305664062 993.529296875 106.782226562 1032.48046875 106.782226562 c 0
 1071.07714844 106.782226562 1104.41015625 129.305664062 1104.41015625 186.481445312 c 0
 1104.41015625 244.115234375 1071.07714844 265.072265625 1032.48046875 265.072265625 c 0
 993.529296875 265.072265625 961.66015625 244.115234375 961.66015625 186.481445312 c 0xa3d4
846 186.481445312 m 0xa3ac
 846 294.133789062 907.688476562 381.8515625 1032.48046875 381.8515625 c 0
 1157.27148438 381.8515625 1218.95996094 294.133789062 1218.95996094 186.481445312 c 0
 1218.95996094 78.94921875 1157.27148438 -9.998046875 1032.48046875 -9.998046875 c 0
 907.688476562 -9.998046875 846 78.94921875 846 186.481445312 c 0xa3ac
651.66015625 186.481445312 m 0
 651.66015625 129.305439744 683.528894898 106.782226562 722.48046875 106.782226562 c 0
 761.077082431 106.782226562 794.41015625 129.305439744 794.41015625 186.481445312 c 0xa3c4
 794.41015625 244.115114367 761.077082431 265.072265625 722.48046875 265.072265625 c 0
 683.528894898 265.072265625 651.66015625 244.115114367 651.66015625 186.481445312 c 0
526 186.481445312 m 0
 526 294.134219993 587.688476562 381.8515625 712.48046875 381.8515625 c 0
 837.271484375 381.8515625 908.959960938 294.133789062 908.959960938 186.481445312 c 0xa3a4
 908.959960938 78.94921875 837.271484375 -9.998046875 712.48046875 -9.998046875 c 0
 587.688476562 -9.998046875 526 78.9489101654 526 186.481445312 c 0
161.66015625 543.622070312 m 0
 161.66015625 486.446082777 193.078900574 463.921875 231.48046875 463.921875 c 0
 270.077082431 463.921875 303.41015625 486.446082777 303.41015625 543.622070312 c 0
 303.41015625 601.254756004 270.077082431 622.211914062 231.48046875 622.211914062 c 0x1b84
 193.078900574 622.211914062 161.66015625 601.254756004 161.66015625 543.622070312 c 0
35 543.622070312 m 0
 35 651.274844993 106.688680634 738.9921875 231.48046875 738.9921875 c 0
 356.271261196 738.9921875 427.959960938 651.274844993 427.959960938 543.622070312 c 0
 427.959960938 436.089535165 356.271261196 347.142578125 231.48046875 347.142578125 c 0
 106.688680634 347.142578125 35 436.089535165 35 543.622070312 c 0
EndSplineSet
Refer: 138 8260 S 1 0 0 1 301 0 2
Validated: 5
EndChar

StartChar: uni203D
Encoding: 8253 8253 133
Width: 566
Flags: W
HStem: -10 186.449<175.375 300.624> 289.594 122.455<213.302 339.044> 593.229 145.764<110.101 362.965>
VStem: 145.387 185.227<20.1869 146.262> 160 158<594.655 791.008> 212.423 85.5771<295 416.469> 368.096 163.774<440.205 555.25>
LayerCount: 2
Fore
SplineSet
180 230 m 1xe6
 160 791.0078125 l 1
 318 791.0078125 l 1xea
 298 230 l 1
 180 230 l 1xe6
145.38671875 83.224609375 m 4xf2
 145.38671875 139.701171875 181.892578125 176.44921875 237.999023438 176.44921875 c 4
 294.106445312 176.44921875 330.61328125 139.701171875 330.61328125 83.224609375 c 4
 330.61328125 26.7470703125 294.106445312 -10 237.999023438 -10 c 4
 181.892578125 -10 145.38671875 26.7470703125 145.38671875 83.224609375 c 4xf2
212.422851562 295 m 1xe6
 214.15625 416.46875 l 1
 214.15625 416.46875 234.658185113 412.048828125 260.3984375 412.048828125 c 0
 333.242053848 412.048828125 368.095703125 442.455078125 368.095703125 499.145507812 c 0
 368.095703125 564.395507812 314.919921875 593.228515625 226.89453125 593.228515625 c 0
 140.24609375 593.228515625 66.923828125 553.958007812 66.923828125 553.958007812 c 1
 20.2412109375 695.311523438 l 1
 20.2412109375 695.311523438 101.0703125 738.9921875 229.89453125 738.9921875 c 0
 411.010742188 738.9921875 531.870117188 670 531.870117188 501.010742188 c 0
 531.870117188 365.010742188 435.755259771 289.59375 284 289.59375 c 0
 226.218045474 289.59375 212.422851562 295 212.422851562 295 c 1xe6
EndSplineSet
Validated: 5
EndChar

StartChar: lira
Encoding: 8356 8356 134
Width: 553
Flags: W
HStem: 0 145<220.319 523> 215 86<50 424> 345 86<50 424> 592.621 146.841<249.55 454.003>
VStem: 54.3516 172.979<453.716 570.482>
LayerCount: 2
Fore
SplineSet
523 0 m 1
 30 0 l 1
 30 125 l 1
 30 125 136.82421875 200.513671875 136.82421875 309.379882812 c 0
 136.82421875 403.659179688 54.3515625 428.176707546 54.3515625 547.185546875 c 0
 54.3515625 671.398535433 156.767938878 739.461914062 302.80859375 739.461914062 c 0
 442.538835557 739.461914062 504.95703125 703.405273438 504.95703125 703.405273438 c 1
 474.9375 561.024414062 l 1
 474.9375 561.024414062 426.877929688 592.62109375 334.80859375 592.62109375 c 0
 276.181640625 592.62109375 227.330078125 579.96484375 227.330078125 516.024414062 c 0
 227.330078125 455.834960938 289.481445312 415.262695312 289.481445312 320.158203125 c 0
 289.481445312 211.622070312 220.319335938 145 220.319335938 145 c 1
 523 145 l 1
 523 0 l 1
424 215 m 5
 50 215 l 5
 50 301 l 5
 424 301 l 5
 424 215 l 5
424 345 m 5
 50 345 l 5
 50 431 l 5
 424 431 l 5
 424 345 l 5
EndSplineSet
Validated: 5
EndChar

StartChar: uni20B5
Encoding: 8373 8373 135
Width: 623
Flags: W
HStem: -9.99805 79.4678<305 444> 655 84.1211<305 444>
VStem: 35 174.849<245.278 483.845> 305 139<-105 69.4697 655 829.47>
LayerCount: 2
Fore
SplineSet
35 364.561523438 m 0
 35 591.206054688 162.092858137 739.12109375 385.888671875 739.12109375 c 0
 537.397841668 739.12109375 599.681640625 672.891601562 599.681640625 672.891601562 c 1
 538.35546875 535.138671875 l 1
 538.35546875 535.138671875 493.611082679 586.659179688 402.888671875 586.659179688 c 4
 267.66339581 586.659179688 209.848632812 497.743164062 209.848632812 364.561523438 c 4
 209.848632812 231.379882812 267.66339581 142.463867188 402.888671875 142.463867188 c 4
 502.99694999 142.463867188 556.018554688 188.595703125 556.018554688 188.595703125 c 1
 602.827148438 44.595703125 l 1
 602.827148438 44.595703125 536.561329272 -9.998046875 385.888671875 -9.998046875 c 0
 162.092858137 -9.998046875 35 137.916992188 35 364.561523438 c 0
305 -105 m 1
 305 69.4697265625 l 1
 444 69.4697265625 l 1
 444 -105 l 1
 305 -105 l 1
305 655 m 1
 305 829.469726562 l 1
 444 829.469726562 l 1
 444 655 l 1
 305 655 l 1
EndSplineSet
Validated: 5
EndChar

StartChar: uni20B2
Encoding: 8370 8370 136
Width: 749
Flags: W
HStem: -9.99805 79.4678<305 444> 286 138<366 482.019 640.827 724> 286 18.5957<482.019 640.827> 655 84.1211<305 444>
VStem: 35 174.849<234.094 486.107> 305 139<-105 69.4697 655 829.47> 497.481 154.001<181.442 285.806>
LayerCount: 2
Fore
SplineSet
305 -105 m 1x9e
 305 69.4697265625 l 1
 444 69.4697265625 l 1
 444 -105 l 1
 305 -105 l 1x9e
305 655 m 1
 305 829.469726562 l 1
 444 829.469726562 l 1
 444 655 l 1
 305 655 l 1
724 286 m 1xde
 366 286 l 1
 366 424 l 1
 724 424 l 1
 724 286 l 1xde
35 364.561523438 m 0
 35 591.206054688 165.120861124 739.12109375 378.888671875 739.12109375 c 0
 535.358283687 739.12109375 599.681640625 672.891601562 599.681640625 672.891601562 c 1
 538.35546875 535.138671875 l 1
 538.35546875 535.138671875 488.986934481 586.659179688 388.888671875 586.659179688 c 0
 263.470077856 586.659179688 209.848632812 497.743164062 209.848632812 364.561523438 c 0
 209.848632812 231.379882812 252.735934985 142.463867188 369.888671875 142.463867188 c 0
 461.013221313 142.463867188 497.481445312 186.262045972 497.481445312 252 c 0
 497.481445312 288.78559257 482.018554688 304.595703125 482.018554688 304.595703125 c 5
 640.827148438 304.595703125 l 1xbe
 640.827148438 304.595703125 651.482421875 285.24972273 651.482421875 222 c 0
 651.482421875 93.0859042083 560.855648762 -9.998046875 369.888671875 -9.998046875 c 0
 156.581170726 -9.998046875 35 137.916992188 35 364.561523438 c 0
EndSplineSet
Validated: 5
EndChar

StartChar: uni20BA
Encoding: 8378 8378 137
Width: 648
Flags: W
HStem: 0 146<264 363.343> 711.008 20G<95 264>
VStem: 95 169<146 731.008>
LayerCount: 2
Fore
SplineSet
404 355 m 5
 30 245 l 5
 30 331 l 5
 404 441 l 5
 404 355 l 5
404 485 m 5
 30 375 l 5
 30 461 l 5
 404 571 l 5
 404 485 l 5
264 146 m 1
 280 146 l 2
 460 146 464 326 464 326 c 1
 624 306 l 1
 624 306 604 0 280 0 c 2
 95 0 l 1
 95 731.0078125 l 1
 264 731.0078125 l 1
 264 146 l 1
EndSplineSet
Validated: 5
EndChar

StartChar: fraction
Encoding: 8260 8260 138
Width: 304
Flags: W
HStem: 0 21G<-110 40.9014> 711.008 20G<313.099 464>
LayerCount: 2
Fore
SplineSet
-110 0 m 1
 325 731.0078125 l 1
 464 731.0078125 l 1
 29 0 l 1
 -110 0 l 1
EndSplineSet
Validated: 1
EndChar

StartChar: endash
Encoding: 8211 8211 139
Width: 570
Flags: W
HStem: 209 141<30 540>
LayerCount: 2
Fore
SplineSet
30 209 m 5
 30 350 l 5
 540 350 l 5
 540 209 l 5
 30 209 l 5
EndSplineSet
Validated: 1
EndChar

StartChar: emdash
Encoding: 8212 8212 140
Width: 820
Flags: W
HStem: 209 141<30 790>
LayerCount: 2
Fore
SplineSet
30 209 m 5
 30 350 l 5
 790 350 l 5
 790 209 l 5
 30 209 l 5
EndSplineSet
Validated: 1
EndChar

StartChar: Euro
Encoding: 8364 8364 141
Width: 683
Flags: W
HStem: -9.99805 152.462<366.642 573.313> 260 86<30 454.957> 390 86<30 477.879> 586.659 152.462<366.642 554.407>
LayerCount: 2
Fore
SplineSet
454.95703125 260 m 5
 30 260 l 1
 30 346 l 1
 470.12109375 346 l 5
 454.95703125 260 l 5
477.87890625 390 m 5
 30 390 l 1
 30 476 l 1
 493.04296875 476 l 5
 477.87890625 390 l 5
95 364.561523438 m 0
 95 591.206054688 222.092773438 739.12109375 445.888671875 739.12109375 c 0
 597.397460938 739.12109375 659.681640625 672.891601562 659.681640625 672.891601562 c 1
 598.35546875 535.138671875 l 1
 598.35546875 535.138671875 553.610628775 586.659179688 462.888671875 586.659179688 c 4
 327.663085938 586.659179688 269.848632812 497.743164062 269.848632812 364.561523438 c 4
 269.848632812 231.379882812 327.663085938 142.463867188 462.888671875 142.463867188 c 4
 562.996719722 142.463867188 616.018554688 188.595703125 616.018554688 188.595703125 c 1
 662.827148438 44.595703125 l 1
 662.827148438 44.595703125 596.561523438 -9.998046875 445.888671875 -9.998046875 c 0
 222.092773438 -9.998046875 95 137.916992188 95 364.561523438 c 0
EndSplineSet
Validated: 5
EndChar

StartChar: uni20AD
Encoding: 8365 8365 142
Width: 665
Flags: W
HStem: 0 21G<91 260 440.302 655> 295 121<30 614> 711.008 20G<91 260 438.273 645>
VStem: 91 169<0 311 401 731.008> 241 19<311 401>
LayerCount: 2
Fore
SplineSet
614 295 m 5xe0
 30 295 l 1
 30 416 l 1
 614 416 l 5
 614 295 l 5xe0
454 0 m 1
 241 311 l 1
 241 401 l 1xe8
 451 731.0078125 l 1
 645 731.0078125 l 1
 391 372 l 1
 655 0 l 1
 454 0 l 1
91 0 m 1xf0
 91 731.0078125 l 1
 260 731.0078125 l 1
 260 0 l 1
 91 0 l 1xf0
EndSplineSet
Validated: 5
EndChar

StartChar: uni20B9
Encoding: 8377 8377 143
Width: 594
Flags: W
HStem: 0 21G<340.97 516> 256 140.352<30 289.573> 450 86<50 564> 584.649 146.358<30 291.448>
VStem: 321.929 163.849<189.42 222.529 400.622 613.175>
LayerCount: 2
Fore
SplineSet
564 450 m 1
 50 450 l 1
 50 536 l 1
 564 536 l 1
 564 450 l 1
30 396.3515625 m 1
 193.888671875 396.461914062 l 2
 267.19140625 396.50390625 321.928710938 413.202148438 321.928710938 489.561523438 c 0
 321.928710938 566.786132812 278.19140625 584.486328125 204.888671875 584.545898438 c 2
 30 584.649414062 l 1
 30 731.0078125 l 1
 203.888671875 731.0078125 l 2
 352.204101562 731.0078125 485.77734375 669.334960938 485.77734375 504.561523438 c 0
 485.77734375 374.684570312 385.688476562 336.276367188 385.688476562 336.276367188 c 1
 385.688476562 336.276367188 456.640625 319.546875 479.702148438 195.399414062 c 2
 516 0 l 1
 344 0 l 1
 319 165 l 2
 306.545898438 247.198242188 277.220703125 256 185 256 c 2
 30 256 l 1
 30 396.3515625 l 1
EndSplineSet
Validated: 5
EndChar

StartChar: uni20B4
Encoding: 8372 8372 144
Width: 677
Flags: W
HStem: -10 143.462<258.585 490.151> 255 86<30 647> 385 86<311.522 647> 594.659 144.462<186.388 391.846>
VStem: 70 164.182<157.34 250.254> 416.581 170.312<475.796 570.777>
LayerCount: 2
Fore
SplineSet
647 255 m 1
 30 255 l 1
 30 341 l 1
 647 341 l 1
 647 255 l 1
647 385 m 1
 30 385 l 1
 30 471 l 1
 647 471 l 1
 647 385 l 1
339.13671875 287.140625 m 0
 251.688476562 263.4765625 234.181640625 242.108398438 234.181640625 204 c 0
 234.181640625 157.45703125 273.415039062 133.461914062 355.823242188 133.461914062 c 0
 466.376953125 133.461914062 556.546875 181.982421875 556.546875 181.982421875 c 1
 593.703125 42.2294921875 l 1
 593.703125 42.2294921875 496.331054688 -10 342.71484375 -10 c 0
 164.947265625 -10 70 75.1845703125 70 212 c 0
 70 328.129882812 125.6640625 392.778320312 311.522460938 440.081054688 c 0
 394.508789062 461.202148438 416.581054688 485.005859375 416.581054688 523 c 0
 416.581054688 567.23046875 381.70703125 594.659179688 304.15625 594.659179688 c 0
 206.442382812 594.659179688 140.1484375 552.138671875 140.1484375 552.138671875 c 1
 97.7744140625 688.891601562 l 1
 97.7744140625 688.891601562 169.598632812 739.12109375 317.286132812 739.12109375 c 0
 484.87890625 739.12109375 586.892578125 652.115234375 586.892578125 517 c 0
 586.892578125 402.697265625 525.85546875 337.666992188 339.13671875 287.140625 c 0
EndSplineSet
Validated: 5
EndChar

StartChar: colonmonetary
Encoding: 8353 8353 145
Width: 623
Flags: W
HStem: -9.99805 79.4678<163.378 262.378 323.378 422.378> 586.659 152.462<270.265 424.74> 655 84.1211<266.622 365.622 426.622 525.622>
VStem: 35 174.849<245.278 483.845>
LayerCount: 2
Fore
SplineSet
292.614257812 -105 m 1x90
 323.377929688 69.4697265625 l 1
 422.377929688 69.4697265625 l 1
 391.614257812 -105 l 1
 292.614257812 -105 l 1x90
426.622070312 655 m 1xb0
 457.385742188 829.469726562 l 1
 556.385742188 829.469726562 l 1
 525.622070312 655 l 1
 426.622070312 655 l 1xb0
35 364.561523438 m 4
 35 591.206054688 162.092858137 739.12109375 385.888671875 739.12109375 c 4
 537.397841668 739.12109375 599.681640625 672.891601562 599.681640625 672.891601562 c 5
 538.35546875 535.138671875 l 5
 538.35546875 535.138671875 493.611082679 586.659179688 402.888671875 586.659179688 c 4xd0
 267.66339581 586.659179688 209.848632812 497.743164062 209.848632812 364.561523438 c 4
 209.848632812 231.379882812 267.66339581 142.463867188 402.888671875 142.463867188 c 4
 502.99694999 142.463867188 556.018554688 188.595703125 556.018554688 188.595703125 c 5
 602.827148438 44.595703125 l 5
 602.827148438 44.595703125 536.561329272 -9.998046875 385.888671875 -9.998046875 c 4
 162.092858137 -9.998046875 35 137.916992188 35 364.561523438 c 4
132.614257812 -105 m 1
 163.377929688 69.4697265625 l 1
 262.377929688 69.4697265625 l 1
 231.614257812 -105 l 1
 132.614257812 -105 l 1
266.622070312 655 m 1xb0
 297.385742188 829.469726562 l 1
 396.385742188 829.469726562 l 1
 365.622070312 655 l 1
 266.622070312 655 l 1xb0
EndSplineSet
Validated: 5
EndChar

StartChar: zero.inferior
Encoding: 8320 8320 148
Width: 478
HStem: -314 113<180.591 297.409> 86 113<180.591 297.409>
VStem: 23 120<-158.428 42.7354> 335 120<-158.428 42.7354>
LayerCount: 2
Fore
SplineSet
143 -58 m 0
 143 -144 172 -201 239 -201 c 4
 306 -201 335 -144 335 -58 c 0
 335 28 306 86 239 86 c 0
 172 86 143 28 143 -58 c 0
23 -58 m 0
 23 97 105 199 239 199 c 0
 373 199 455 97 455 -58 c 0
 455 -213 373 -314 239 -314 c 0
 105 -314 23 -213 23 -58 c 0
EndSplineSet
Validated: 1
EndChar

StartChar: one.inferior
Encoding: 8321 8321 149
Width: 297
VStem: 134 127<-300 69>
LayerCount: 2
Fore
SplineSet
261 187 m 5
 261 -300 l 5
 134 -300 l 5
 134 69 l 5
 47 29 l 5
 7 107 l 5
 146 187 l 5
 261 187 l 5
EndSplineSet
Validated: 1
EndChar

StartChar: two.inferior
Encoding: 8322 8322 150
Width: 419
HStem: -300 109<155 400> 81 112<92.0244 258.111>
VStem: 270 125<-18.9634 67.4433>
LayerCount: 2
Fore
SplineSet
270 32 m 0
 270 60 249 81 189 81 c 0
 127 81 82 54 82 54 c 1
 48 153 l 1
 48 153 109 193 197 193 c 0
 320 193 395 144 395 53 c 0
 395 -43 346 -80 238 -128 c 0
 156 -165 155 -191 155 -191 c 1
 400 -191 l 1
 400 -300 l 1
 32 -300 l 1
 32 -265 l 2
 32 -162 99 -104 210 -45 c 4
 258 -20 270 0 270 32 c 0
EndSplineSet
Validated: 1
EndChar

StartChar: three.inferior
Encoding: 8323 8323 151
Width: 403
HStem: -314 110<58.6579 245.082> -102 100<110 239.091> 86 113<61.2074 235.713>
VStem: 245 123<7.6517 75.1254> 258 122<-190.029 -116.317>
LayerCount: 2
Fore
SplineSet
167 -2 m 2xe8
 226 -2 245 13 245 42 c 0
 245 67 226 86 164 86 c 0
 101 86 63 63 63 63 c 1
 29 162 l 1
 29 162 80 199 169 199 c 0
 293 199 368 150 368 58 c 0xf0
 368 -25 286 -50 286 -50 c 1
 286 -50 380 -73 380 -166 c 0
 380 -272 298 -314 174 -314 c 0
 71 -314 10 -275 10 -275 c 1
 42 -174 l 1
 42 -174 91 -204 168 -204 c 0
 231 -204 258 -185 258 -152 c 0
 258 -118 227 -102 167 -102 c 2
 110 -102 l 1
 110 -2 l 1
 167 -2 l 2xe8
EndSplineSet
Validated: 1
EndChar

StartChar: four.inferior
Encoding: 8324 8324 152
Width: 454
HStem: -196 103<141 434>
VStem: 238 127<-300 35>
LayerCount: 2
Fore
SplineSet
365 187 m 1
 365 -300 l 1
 238 -300 l 1
 238 35 l 1
 141 -93 l 1
 434 -93 l 1
 434 -196 l 5
 20 -196 l 5
 20 -107 l 1
 243 187 l 1
 365 187 l 1
EndSplineSet
Validated: 5
EndChar

StartChar: five.inferior
Encoding: 8325 8325 153
Width: 411
HStem: -307 112<50.8529 248.696> -71 98<136.723 251.813> 72 115<141 352>
VStem: 266 122<-177.756 -85.699>
LayerCount: 2
Fore
SplineSet
184 -307 m 0
 75 -307 10 -269 10 -269 c 1
 38 -168 l 1
 38 -168 97 -195 171 -195 c 0
 240 -195 266 -171 266 -132 c 0
 266 -94 241 -71 190 -71 c 4
 132 -71 116 -101 116 -101 c 1
 35 -88 l 1
 56 187 l 1
 352 187 l 1
 352 72 l 1
 141 72 l 1
 134 3 l 1
 134 3 155 27 222 27 c 0
 330 27 388 -31 388 -129 c 0
 388 -239 319 -307 184 -307 c 0
EndSplineSet
Validated: 1
EndChar

StartChar: six.inferior
Encoding: 8326 8326 154
Width: 455
HStem: -313 104<175.591 296.391> -76 95<173.458 297.565> 84 115<190.878 363.164>
VStem: 23 134<-191.292 -1.48438> 314 118<-190.996 -93.2122>
LayerCount: 2
Fore
SplineSet
157 -142 m 4
 157 -180 181 -209 236 -209 c 4
 292 -209 314 -180 314 -142 c 4
 314 -104 292 -76 236 -76 c 4
 181 -76 157 -104 157 -142 c 4
150 -20 m 5
 150 -20 176 19 259 19 c 4
 365 19 432 -46 432 -141 c 4
 432 -251 358 -313 236 -313 c 4
 103 -313 23 -238 23 -56 c 4
 23 108 107 199 259 199 c 4
 365 199 419 154 419 154 c 5
 375 56 l 5
 375 56 337 84 266 84 c 4
 191 84 154 47 150 -20 c 5
EndSplineSet
Validated: 1
EndChar

StartChar: seven.inferior
Encoding: 8327 8327 155
Width: 417
HStem: 77 110<27 262>
VStem: 96 128<-300 -187.97>
LayerCount: 2
Fore
SplineSet
224 -300 m 1
 96 -300 l 1
 110 -92 262 77 262 77 c 5
 27 77 l 1
 27 187 l 1
 391 187 l 1
 391 107 l 1
 391 107 231 -68 224 -300 c 1
EndSplineSet
Validated: 1
EndChar

StartChar: eight.inferior
Encoding: 8328 8328 156
Width: 479
HStem: -313 102<164.978 314.649> -95 96<198 285> -64 45<117 366> 95 103<181.222 303.278>
VStem: 23 125<-192.748 -113.727> 50 121<13.1632 83.4877> 312 121<13.1632 83.1403> 331 125<-193.237 -111.458>
LayerCount: 2
Fore
SplineSet
240 1 m 4xd6
 285 1 312 19 312 48 c 4
 312 78 286 95 240 95 c 4
 197 95 171 78 171 48 c 4
 171 19 198 1 240 1 c 4xd6
240 198 m 4
 361 198 433 147 433 63 c 4
 433 -20 366 -64 240 -64 c 4xb6
 117 -64 50 -20 50 63 c 4
 50 147 122 198 240 198 c 4
240 -211 m 4
 299 -211 331 -190 331 -152 c 4
 331 -117 299 -95 240 -95 c 4
 181 -95 148 -117 148 -152 c 4xd9
 148 -190 181 -211 240 -211 c 4
240 -19 m 4xb9
 380 -19 456 -70 456 -163 c 4
 456 -254 371 -313 240 -313 c 4
 109 -313 23 -254 23 -163 c 0
 23 -70 100 -19 240 -19 c 4xb9
EndSplineSet
Validated: 5
EndChar

StartChar: nine.inferior
Encoding: 8329 8329 157
Width: 455
HStem: -314 115<89.5243 264.326> -137 96<159.14 283.301> 92 107<160.296 283.789>
VStem: 23 120<-22.5172 74.8949> 300 132<-112.805 73.1399>
LayerCount: 2
Fore
SplineSet
300 26 m 0
 300 64 277 92 222 92 c 0
 166 92 143 64 143 26 c 0
 143 -12 166 -41 222 -41 c 0
 277 -41 300 -12 300 26 c 0
306 -95 m 1
 306 -95 279 -137 197 -137 c 4
 91 -137 23 -71 23 26 c 0
 23 137 98 199 220 199 c 0
 353 199 432 124 432 -58 c 0
 432 -223 348 -314 196 -314 c 0
 90 -314 37 -269 37 -269 c 1
 80 -172 l 1
 80 -172 118 -199 189 -199 c 0
 264 -199 302 -162 306 -95 c 1
EndSplineSet
Validated: 1
EndChar

StartChar: zero.superior
Encoding: 8304 8304 158
Width: 478
HStem: 286 113<180.591 297.409> 686 113<180.591 297.409>
VStem: 23 120<441.572 642.735> 335 120<441.572 642.735>
LayerCount: 2
Fore
SplineSet
143 542 m 0
 143 456 172 399 239 399 c 4
 306 399 335 456 335 542 c 0
 335 628 306 686 239 686 c 0
 172 686 143 628 143 542 c 0
23 542 m 0
 23 697 105 799 239 799 c 0
 373 799 455 697 455 542 c 0
 455 387 373 286 239 286 c 0
 105 286 23 387 23 542 c 0
EndSplineSet
Validated: 1
EndChar

StartChar: one.superior
Encoding: 185 185 159
Width: 297
VStem: 134 127<300 669>
LayerCount: 2
Fore
SplineSet
261 787 m 5
 261 300 l 5
 134 300 l 5
 134 669 l 5
 47 629 l 5
 7 707 l 5
 146 787 l 5
 261 787 l 5
EndSplineSet
Validated: 1
EndChar

StartChar: two.superior
Encoding: 178 178 160
Width: 419
HStem: 300 109<155 400> 681 112<92.0244 258.111>
VStem: 270 125<581.037 667.443>
LayerCount: 2
Fore
SplineSet
270 632 m 0
 270 660 249 681 189 681 c 0
 127 681 82 654 82 654 c 1
 48 753 l 1
 48 753 109 793 197 793 c 0
 320 793 395 744 395 653 c 0
 395 557 346 520 238 472 c 0
 156 435 155 409 155 409 c 1
 400 409 l 1
 400 300 l 1
 32 300 l 1
 32 335 l 2
 32 438 99 496 210 555 c 0
 258 580 270 600 270 632 c 0
EndSplineSet
Validated: 1
EndChar

StartChar: three.superior
Encoding: 179 179 161
Width: 403
HStem: 286 110<58.6579 245.082> 498 100<110 239.091> 686 113<61.2074 235.713>
VStem: 245 123<607.652 675.125> 258 122<409.971 483.683>
LayerCount: 2
Fore
SplineSet
167 598 m 2xe8
 226 598 245 613 245 642 c 0
 245 667 226 686 164 686 c 0
 101 686 63 663 63 663 c 1
 29 762 l 1
 29 762 80 799 169 799 c 0
 293 799 368 750 368 658 c 0xf0
 368 575 286 550 286 550 c 1
 286 550 380 527 380 434 c 0
 380 328 298 286 174 286 c 0
 71 286 10 325 10 325 c 1
 42 426 l 1
 42 426 91 396 168 396 c 0
 231 396 258 415 258 448 c 0
 258 482 227 498 167 498 c 2
 110 498 l 1
 110 598 l 1
 167 598 l 2xe8
EndSplineSet
Validated: 1
EndChar

StartChar: four.superior
Encoding: 8308 8308 162
Width: 454
HStem: 404 103<141 434>
VStem: 238 127<300 635>
LayerCount: 2
Fore
SplineSet
365 787 m 1
 365 300 l 1
 238 300 l 1
 238 635 l 1
 141 507 l 1
 434 507 l 1
 434 404 l 5
 20 404 l 5
 20 493 l 1
 243 787 l 1
 365 787 l 1
EndSplineSet
Validated: 5
EndChar

StartChar: five.superior
Encoding: 8309 8309 163
Width: 411
HStem: 293 112<50.8529 248.696> 529 98<136.723 251.813> 672 115<141 352>
VStem: 266 122<422.244 514.301>
LayerCount: 2
Fore
SplineSet
184 293 m 0
 75 293 10 331 10 331 c 1
 38 432 l 1
 38 432 97 405 171 405 c 0
 240 405 266 429 266 468 c 0
 266 506 241 529 190 529 c 4
 132 529 116 499 116 499 c 1
 35 512 l 1
 56 787 l 1
 352 787 l 1
 352 672 l 1
 141 672 l 1
 134 603 l 1
 134 603 155 627 222 627 c 0
 330 627 388 569 388 471 c 0
 388 361 319 293 184 293 c 0
EndSplineSet
Validated: 1
EndChar

StartChar: six.superior
Encoding: 8310 8310 164
Width: 455
HStem: 287 104<175.591 296.391> 524 95<173.458 297.565> 684 115<190.878 363.164>
VStem: 23 134<408.708 598.516> 314 118<409.004 506.788>
LayerCount: 2
Fore
SplineSet
157 458 m 4
 157 420 181 391 236 391 c 4
 292 391 314 420 314 458 c 4
 314 496 292 524 236 524 c 4
 181 524 157 496 157 458 c 4
150 580 m 5
 150 580 176 619 259 619 c 4
 365 619 432 554 432 459 c 4
 432 349 358 287 236 287 c 4
 103 287 23 362 23 544 c 4
 23 708 107 799 259 799 c 4
 365 799 419 754 419 754 c 5
 375 656 l 5
 375 656 337 684 266 684 c 4
 191 684 154 647 150 580 c 5
EndSplineSet
Validated: 1
EndChar

StartChar: seven.superior
Encoding: 8311 8311 165
Width: 417
HStem: 677 110<27 262>
VStem: 96 128<300 412.03>
LayerCount: 2
Fore
SplineSet
224 300 m 1
 96 300 l 1
 110 508 262 677 262 677 c 5
 27 677 l 1
 27 787 l 1
 391 787 l 1
 391 707 l 1
 391 707 231 532 224 300 c 1
EndSplineSet
Validated: 1
EndChar

StartChar: eight.superior
Encoding: 8312 8312 166
Width: 479
HStem: 287 102<164.978 314.649> 505 96<198 285> 536 45<117 366> 695 103<181.222 303.278>
VStem: 23 125<407.252 486.273> 50 121<613.163 683.488> 312 121<613.163 683.14> 331 125<406.763 488.542>
LayerCount: 2
Fore
SplineSet
240 601 m 4xd6
 285 601 312 619 312 648 c 4
 312 678 286 695 240 695 c 4
 197 695 171 678 171 648 c 4
 171 619 198 601 240 601 c 4xd6
240 798 m 4
 361 798 433 747 433 663 c 4
 433 580 366 536 240 536 c 4xb6
 117 536 50 580 50 663 c 4
 50 747 122 798 240 798 c 4
240 389 m 4
 299 389 331 410 331 448 c 4
 331 483 299 505 240 505 c 4
 181 505 148 483 148 448 c 4xd9
 148 410 181 389 240 389 c 4
240 581 m 4xb9
 380 581 456 530 456 437 c 4
 456 346 371 287 240 287 c 4
 109 287 23 346 23 437 c 0
 23 530 100 581 240 581 c 4xb9
EndSplineSet
Validated: 5
EndChar

StartChar: nine.superior
Encoding: 8313 8313 167
Width: 455
HStem: 286 115<89.5243 264.326> 463 96<159.14 283.301> 692 107<160.296 283.789>
VStem: 23 120<577.483 674.895> 300 132<487.195 673.14>
LayerCount: 2
Fore
SplineSet
300 626 m 0
 300 664 277 692 222 692 c 0
 166 692 143 664 143 626 c 0
 143 588 166 559 222 559 c 0
 277 559 300 588 300 626 c 0
306 505 m 1
 306 505 279 463 197 463 c 4
 91 463 23 529 23 626 c 0
 23 737 98 799 220 799 c 0
 353 799 432 724 432 542 c 0
 432 377 348 286 196 286 c 0
 90 286 37 331 37 331 c 1
 80 428 l 1
 80 428 118 401 189 401 c 0
 264 401 302 438 306 505 c 1
EndSplineSet
Validated: 1
EndChar

StartChar: circumflex
Encoding: 710 710 168
Width: 362
Flags: W
HStem: 516 215.008
LayerCount: 2
Fore
SplineSet
271 516 m 5
 181 607.432617188 l 1
 91 516 l 1
 1 546 l 1
 111 731.0078125 l 1
 251 731.0078125 l 1
 361 546 l 1
 271 516 l 5
EndSplineSet
Validated: 1
EndChar

StartChar: caron
Encoding: 711 711 169
Width: 362
Flags: W
HStem: 526 215.008
LayerCount: 2
Fore
SplineSet
91 741.0078125 m 5
 181 649.575195312 l 5
 271 741.0078125 l 5
 361 711.0078125 l 5
 251 526 l 5
 111 526 l 5
 1 711.0078125 l 5
 91 741.0078125 l 5
EndSplineSet
Validated: 1
EndChar

StartChar: breve
Encoding: 728 728 170
Width: 322
VWidth: 999
Flags: W
HStem: 572.937 112.938<97.6021 225.218>
LayerCount: 2
Fore
SplineSet
161.41015625 572.936523438 m 0
 270.966796875 572.936523438 317.8203125 673.762695312 317.8203125 673.762695312 c 1
 247.876953125 735 l 1
 247.876953125 735 228.765625 685.874023438 161.41015625 685.874023438 c 0
 94.0546875 685.874023438 74.943359375 735 74.943359375 735 c 1
 5 673.762695312 l 1
 5 673.762695312 51.853515625 572.936523438 161.41015625 572.936523438 c 0
EndSplineSet
Validated: 9
EndChar

StartChar: dotaccent
Encoding: 729 729 171
Width: 248
Flags: W
HStem: 572.543 166.449<65.7926 183.207>
VStem: 41.8867 165.227<596.626 714.909>
LayerCount: 2
Fore
SplineSet
41.88671875 655.767578125 m 0
 41.88671875 706.186392055 74.4503826844 738.9921875 124.499023438 738.9921875 c 0
 174.548654747 738.9921875 207.11328125 706.186392055 207.11328125 655.767578125 c 0
 207.11328125 605.347853302 174.548654747 572.54296875 124.499023438 572.54296875 c 0
 74.4503826844 572.54296875 41.88671875 605.347853302 41.88671875 655.767578125 c 0
EndSplineSet
Validated: 1
EndChar

StartChar: tilde
Encoding: 732 732 172
Width: 371
VWidth: 999
Flags: W
HStem: 572.937 112.938<191.553 310.732> 615.506 112.068<58.1337 179.934>
LayerCount: 2
Fore
SplineSet
366.400390625 640.69921875 m 1x80
 366.400390625 640.69921875 321.282226562 572.936523438 251.725585938 572.936523438 c 0x80
 184.364257812 572.936523438 170.59765625 615.505859375 121.413085938 615.505859375 c 0
 88.400390625 615.505859375 61.46875 585.967773438 61.46875 585.967773438 c 1
 5 675.44921875 l 1
 5 675.44921875 54.818359375 727.57421875 119.67578125 727.57421875 c 0x40
 185.967773438 727.57421875 205.080078125 685.874023438 249.98828125 685.874023438 c 0
 287.34375 685.874023438 306.45703125 711.936523438 306.45703125 711.936523438 c 1
 366.400390625 640.69921875 l 1x80
EndSplineSet
Validated: 1
EndChar

StartChar: hungarumlaut
Encoding: 733 733 173
Width: 412
Flags: W
HStem: 516 225.008
LayerCount: 2
Fore
SplineSet
291 516 m 1
 191 536 l 1
 265 741.0078125 l 5
 411 711.0078125 l 5
 291 516 l 1
101 516 m 1
 1 536 l 1
 75 741.0078125 l 5
 221 711.0078125 l 5
 101 516 l 1
EndSplineSet
Validated: 1
EndChar

StartChar: multiply
Encoding: 215 215 174
Width: 450
Flags: W
LayerCount: 2
Fore
SplineSet
321.874023438 157.888671875 m 1
 24.888671875 454.874023438 l 1
 128.125976562 558.111328125 l 1
 425.111328125 261.125976562 l 1
 321.874023438 157.888671875 l 1
424.504882812 454.266601562 m 1
 128.733398438 158.495117188 l 5
 25.4951171875 261.733398438 l 5
 321.266601562 557.504882812 l 1
 424.504882812 454.266601562 l 1
EndSplineSet
Validated: 5
EndChar

StartChar: divide
Encoding: 247 247 175
Width: 450
Flags: W
HStem: 88.4961 167.804<165.768 284.231> 285 146<30 420> 459.7 167.804<165.768 284.231>
VStem: 141.648 166.703<112.775 232.02 483.979 603.224>
CounterMasks: 1 e0
LayerCount: 2
Fore
SplineSet
420 285 m 1
 30 285 l 1
 30 431 l 1
 420 431 l 1
 420 285 l 1
141.6484375 172.397460938 m 4
 141.6484375 223.2265625 174.502929688 256.299804688 224.999023438 256.299804688 c 4
 275.49609375 256.299804688 308.3515625 223.2265625 308.3515625 172.397460938 c 4
 308.3515625 121.568359375 275.49609375 88.49609375 224.999023438 88.49609375 c 4
 174.502929688 88.49609375 141.6484375 121.568359375 141.6484375 172.397460938 c 4
141.6484375 543.602539062 m 4
 141.6484375 594.430664062 174.502929688 627.50390625 224.999023438 627.50390625 c 4
 275.49609375 627.50390625 308.3515625 594.430664062 308.3515625 543.602539062 c 4
 308.3515625 492.772460938 275.49609375 459.700195312 224.999023438 459.700195312 c 4
 174.502929688 459.700195312 141.6484375 492.772460938 141.6484375 543.602539062 c 4
EndSplineSet
Validated: 1
EndChar

StartChar: AE
Encoding: 198 198 176
Width: 1024
Flags: W
HStem: 0 146<674 994> 145 146<232 626> 292 146<590 934> 585.008 146<674 994>
VStem: 505 121<145 291> 505 81<627 731.008> 590 84<292 438>
AnchorPoint: "Anchor-0" 592 731 basechar 0
LayerCount: 2
Fore
SplineSet
934 292 m 1x32
 590 292 l 1
 590 438 l 1
 934 438 l 1
 934 292 l 1x32
674 585.0078125 m 1
 674 146 l 1
 994 146 l 1
 994 0 l 1
 505 0 l 1
 505 731.0078125 l 1xb6
 994 731.0078125 l 1
 994 585.0078125 l 1
 674 585.0078125 l 1
626 145 m 1x78
 162 145 l 1
 232 291 l 1
 626 291 l 1
 626 145 l 1x78
586 731.0078125 m 1xb4
 586 627 l 1
 196 0 l 1
 5 0 l 1
 495 731.0078125 l 1
 586 731.0078125 l 1xb4
EndSplineSet
Validated: 5
EndChar

StartChar: ae
Encoding: 230 230 177
Width: 872
Flags: W
HStem: -9.99805 121.462<194.395 316.577> -9.99805 134.462<558.497 779.342> 205 101<458 687> 214.284 95.6494<202.297 363.777> 382.011 129<141.403 313.817> 386.284 124.649<544.656 658.569>
VStem: 30 154.849<123.088 195.732> 347.929 119<188 350.509> 347.929 15.8486<214.284 309.934> 458 52.8486<205 306>
AnchorPoint: "Anchor-0" 417 501.011 basechar 0
LayerCount: 2
Fore
SplineSet
347.928710938 207.561523438 m 1x93
 466 182 l 1
 444 61 369.880859375 -9.998046875 227.888671875 -9.998046875 c 0
 83.525390625 -9.998046875 30 50 30 141 c 0
 30 286.71747631 140.82421875 309.797851562 363.928710938 309.93359375 c 1
 363.77734375 214.284179688 l 1x9280
 202.938476562 214.200195312 184.848632812 194.1737758 184.848632812 158.561523438 c 0
 184.848632812 127.320980654 211.4296875 111.463867188 254.888671875 111.463867188 c 0
 303.657226562 111.463867188 347.928710938 143 347.928710938 207.561523438 c 1x93
466.928710938 188 m 1x0b
 347.928710938 165 l 1x0a80
 347.928710938 289.010742188 l 2
 347.928710938 354 301.589051943 382.010742188 238.928710938 382.010742188 c 0
 165.435888672 382.010742188 112.928710938 346.010742188 112.928710938 346.010742188 c 1
 69.9287109375 467.010742188 l 1
 69.9287109375 467.010742188 129.657226562 511.010742188 244.928710938 511.010742188 c 0
 371.860351562 511.010742188 466.928710938 427 466.928710938 300.010742188 c 2
 466.928710938 188 l 1x0b
EndSplineSet
Refer: 43 101 N 1 0 0 1 321 0 2
Validated: 5
EndChar

StartChar: Eth
Encoding: 208 208 178
Width: 789
Flags: W
HStem: 0 150.352<286 488.015> 290 141<30 434> 580.65 150.358<286 486.388>
VStem: 117 169<150.352 580.65> 589.929 164.849<249.212 480.156>
LayerCount: 2
Fore
SplineSet
434 290 m 5
 30 290 l 5
 30 431 l 5
 434 431 l 5
 434 290 l 5
EndSplineSet
Refer: 5 68 N 1 0 0 1 62 0 2
Validated: 5
EndChar

StartChar: eth
Encoding: 240 240 179
Width: 588
Flags: W
HStem: -9.99805 142.462<231.461 361.887> 375.284 135.649<230.238 353.868>
VStem: 38.0713 154.849<169.94 335.354> 400 158.849<175.051 440> 400 62.8486<281.562 333.36>
LayerCount: 2
Fore
SplineSet
181.078125 616.658203125 m 1xe0
 507.991210938 710.080078125 l 1
 532.170898438 625.467773438 l 1
 205.256835938 532.044921875 l 1
 181.078125 616.658203125 l 1xe0
400 251.561523438 m 4xf0
 400 495 347 558 212.93359375 694.548828125 c 5
 357.827148438 771.274414062 l 1
 357.827148438 771.274414062 558.848632812 601 558.848632812 279 c 0xf0
 558.848632812 93.8330078125 459.133789062 -9.998046875 296.959960938 -9.998046875 c 0
 136.029296875 -9.998046875 38.0712890625 94.0830078125 38.0712890625 253.561523438 c 0
 38.0712890625 409.295898438 119.759765625 510.93359375 262 510.93359375 c 0
 379.534179688 510.93359375 462.848632812 423.747070312 462.848632812 281.561523438 c 1xe8
 400 273.561523438 l 1
 400 333.360351562 364.801757812 375.284179688 298.848632812 375.284179688 c 0
 224.64453125 375.284179688 192.919921875 326.552734375 192.919921875 253.561523438 c 0
 192.919921875 180.9453125 224.079101562 132.463867188 296.959960938 132.463867188 c 0
 371.241210938 132.463867188 400 191.32421875 400 251.561523438 c 4xf0
EndSplineSet
Validated: 5
EndChar

StartChar: Thorn
Encoding: 222 222 180
Width: 630
Flags: W
HStem: 0 21G<55 224> 164 132.352<164 413.927> 454.649 136.358<165 414.196> 711.008 20G<55 224>
VStem: 55 169<0 164 296.352 454.649 591.008 731.008> 165 59<164 296.352 454.649 591.008> 438.929 156.849<319.408 430.92>
LayerCount: 2
Fore
SplineSet
55 0 m 1xfa
 55 731.0078125 l 1
 224 731.0078125 l 1
 224 0 l 1
 55 0 l 1xfa
164 164 m 1
 164 296.3515625 l 1
 332.888671875 296.461914062 l 2
 393.59671899 296.547990565 438.928710938 310.505083746 438.928710938 374.561523438 c 4
 438.928710938 439.591439491 393.590015938 454.524592754 332.888671875 454.545898438 c 2
 165 454.649414062 l 1
 165 591.0078125 l 1xf6
 348.888671875 591.0078125 l 2
 478.788986821 591.0078125 595.77734375 532.058980822 595.77734375 374.561523438 c 0
 595.77734375 220.554326277 478.028421734 164 348.888671875 164 c 2
 164 164 l 1
EndSplineSet
Validated: 5
EndChar

StartChar: thorn
Encoding: 254 254 181
Width: 602
Flags: W
HStem: -9.99805 136.462<242.444 375.597> 375.284 135.649<252.635 376.762> 731.002 20G<55 214>
VStem: 55 159<-180 751.002> 126.151 87.8486<66.4395 183.562> 151.151 62.8486<283.562 425.747> 414.08 154.849<168.978 335.354>
LayerCount: 2
Fore
SplineSet
55 -180 m 1xf2
 55 751.001953125 l 5
 214 751.001953125 l 5
 214 -180 l 1
 55 -180 l 1xf2
214 213.561523438 m 1
 214 171.127929688 242.1640625 126.463867188 308.040039062 126.463867188 c 0
 382.321289062 126.463867188 414.080078125 177.346679688 414.080078125 253.561523438 c 0
 414.080078125 326.552734375 382.35546875 375.284179688 308.151367188 375.284179688 c 0
 242.198242188 375.284179688 214 338.563476562 214 283.561523438 c 1xf2
 151.151367188 283.561523438 l 1xe6
 151.151367188 425.747070312 227.465820312 510.93359375 345 510.93359375 c 0
 487.240234375 510.93359375 568.928710938 409.295898438 568.928710938 253.561523438 c 0
 568.928710938 94.0830078125 483.45703125 -9.998046875 343.040039062 -9.998046875 c 0
 208.217773438 -9.998046875 126.151367188 66.439453125 126.151367188 183.561523438 c 1xea
 214 213.561523438 l 1
EndSplineSet
Validated: 5
EndChar

StartChar: kgreenlandic
Encoding: 312 312 182
Width: 555
Flags: W
HStem: 0 21G<55 214 334.445 545> 481.011 20G<55 214 331.001 535>
VStem: 55 159<0 211 301 501.011> 205 9<211 301>
LayerCount: 2
Fore
SplineSet
348 0 m 1xd0
 205 211 l 1
 205 301 l 1
 345 501.010742188 l 1
 535 501.010742188 l 1
 345 272 l 1
 545 0 l 1
 348 0 l 1xd0
55 0 m 1xe0
 55 501.010742188 l 5
 214 501.010742188 l 5
 214 0 l 1
 55 0 l 1xe0
EndSplineSet
Validated: 5
EndChar

StartChar: Eng
Encoding: 330 330 183
Width: 719
Flags: W
HStem: -189.994 130<319.231 489.613> 0 21G<55 214> 711.008 20G<55 236.997 505 664>
VStem: 55 159<0 445.005> 505 159<298.6 731.008>
LayerCount: 2
Fore
SplineSet
55 0 m 1
 55 731.0078125 l 1
 224 731.0078125 l 1
 505 298.599609375 l 1
 505 731.0078125 l 1
 664 731.0078125 l 1
 664 -3 l 2
 664 -125.529296875 604.5 -189.994140625 461 -189.994140625 c 0
 364.053710938 -189.994140625 307 -169.994140625 307 -169.994140625 c 1
 321 -44.994140625 l 1
 321 -44.994140625 364.338867188 -59.994140625 425 -59.994140625 c 0
 473.148646213 -59.994140625 497.438953171 -44.6523549914 503.476077367 -13.3367699971 c 5
 214 445.004882812 l 1
 214 0 l 1
 55 0 l 1
EndSplineSet
Validated: 1
Substitution2: "'ss06' Style Set 6 lookup 7-1" Eng.ss06
EndChar

StartChar: eng
Encoding: 331 331 184
Width: 595
Flags: W
HStem: -189.994 139<226.139 364.123> 0 21G<55 214> 380.284 130.649<250.688 358.686> 481.011 20G<55 214>
VStem: 55 159<0 501.011> 381.777 159<-34.8507 353.487>
LayerCount: 2
Fore
SplineSet
55 0 m 1xdc
 55 501.010742188 l 1
 214 501.010742188 l 1
 214 0 l 1
 55 0 l 1xdc
214 284 m 1
 149 293.561523438 l 1
 170.874026638 444 222.742126105 510.93359375 352 510.93359375 c 0
 476.666135504 510.93359375 540.77734375 444.084682028 540.77734375 304.561523438 c 2
 540.77734375 21 l 2
 540.77734375 -105.994140625 483.036132812 -189.994140625 343.77734375 -189.994140625 c 0
 266.9296875 -189.994140625 213.77734375 -173.994140625 213.77734375 -173.994140625 c 1
 227.77734375 -39.994140625 l 1
 227.77734375 -39.994140625 261.115234375 -50.994140625 307.77734375 -50.994140625 c 0
 359.876953125 -50.994140625 381.77734375 -25.994140625 381.77734375 32.005859375 c 2
 381.77734375 287.561523438 l 2
 381.77734375 346.111389128 357.098863291 380.284179688 299 380.284179688 c 0xec
 239.457003096 380.284179688 214 341.737146954 214 284 c 1
EndSplineSet
Validated: 5
EndChar

StartChar: OE
Encoding: 338 338 185
Width: 991
Flags: W
HStem: 0 146<641 961> 0 150.462<301.762 532.777> 292 146<557 901> 580.546 150.462<303.39 532.777> 585.008 146<641 961>
VStem: 35 164.849<249.212 480.156> 557 84<292 438>
LayerCount: 2
Fore
SplineSet
532.77734375 150.3515625 m 1x76
 532.77734375 0 l 1
 408.888671875 0 l 2
 213.319335938 0 35 97.9169921875 35 364.561523438 c 0
 35 631.206054688 212.16796875 731.0078125 408.888671875 731.0078125 c 2
 532.77734375 731.0078125 l 1
 532.77734375 580.649414062 l 1
 428.888671875 580.545898438 l 2
 297.763671875 580.411132812 199.848632812 540.163085938 199.848632812 364.561523438 c 0
 199.848632812 188.959960938 297.763671875 150.604492188 428.888671875 150.461914062 c 2
 532.77734375 150.3515625 l 1x76
EndSplineSet
Refer: 10 69 N 1 0 0 1 417 0 2
Validated: 5
EndChar

StartChar: longs
Encoding: 383 383 187
Width: 269
Flags: W
HStem: 0 21G<55 214> 630.011 131<230.607 369.638>
VStem: 55 159<0 615.812>
AnchorPoint: "Anchor-0" 256 752.002 basechar 0
LayerCount: 2
Fore
SplineSet
214 557.010742188 m 2
 214 0 l 1
 55 0 l 1
 55 570.010742188 l 2
 55 684.97265625 112.741210938 761.010742188 252 761.010742188 c 0
 328.84765625 761.010742188 382 745.010742188 382 745.010742188 c 1
 368 619.010742188 l 1
 368 619.010742188 334.662109375 630.010742188 288 630.010742188 c 0
 235.900390625 630.010742188 214 608.022460938 214 557.010742188 c 2
EndSplineSet
Validated: 1
EndChar

StartChar: uni018F
Encoding: 399 399 188
Width: 765
Flags: W
HStem: -9.99805 152.462<287.934 470.958> 305.123 140<204.108 608.108> 586.659 152.462<157.728 453.186>
VStem: 570.26 39.8486<305.123 445.123>
LayerCount: 2
Back
SplineSet
35 364.561523438 m 4
 35 591.206054688 163.541887394 739.12109375 389.888671875 739.12109375 c 4
 653.541980974 739.12109375 740.108398438 551.971330386 740.108398438 365.891601562 c 4
 740.108398438 303.039520695 732 284 732 284 c 5
 162 284 l 5
 160 424 l 5
 566 424 l 5
 566 424 564.13712938 586.659179688 395 586.659179688 c 4
 258.818110775 586.659179688 199.848632812 497.743164062 199.848632812 364.561523438 c 4
 199.848632812 231.379882812 269.642762175 142.463867188 432.888671875 142.463867188 c 4
 580.720714467 142.463867188 659.018554688 179.595703125 659.018554688 179.595703125 c 5
 682.827148438 32.595703125 l 5
 682.827148438 32.595703125 604.343305548 -9.998046875 425.888671875 -9.998046875 c 4
 176.581210181 -9.998046875 35 137.916992188 35 364.561523438 c 4
EndSplineSet
Fore
SplineSet
735.108398438 364.561523438 m 4
 735.108398438 137.916992187 606.566511044 -9.998046875 380.219726562 -9.998046875 c 4
 116.566417464 -9.998046875 30 177.151716489 30 363.231445312 c 4
 30 426.08352618 38.1083984375 445.123046875 38.1083984375 445.123046875 c 5
 608.108398438 445.123046875 l 5
 610.108398438 305.123046875 l 5
 204.108398438 305.123046875 l 5
 204.108398438 305.123046875 205.971269057 142.463867188 375.108398438 142.463867188 c 4
 511.290287662 142.463867188 570.259765625 231.379882813 570.259765625 364.561523438 c 4
 570.259765625 497.743164063 500.465636262 586.659179688 337.219726562 586.659179688 c 4
 189.387683971 586.659179688 111.08984375 549.52734375 111.08984375 549.52734375 c 5
 87.28125 696.52734375 l 5
 87.28125 696.52734375 165.76509289 739.12109375 344.219726562 739.12109375 c 4
 593.527188256 739.12109375 735.108398438 591.206054687 735.108398438 364.561523438 c 4
EndSplineSet
Validated: 5
EndChar

StartChar: florin
Encoding: 402 402 190
Width: 398
Flags: W
HStem: -190.011 139<-60.6385 77.3453> 373 128.011<14 382> 630.011 131<270.607 409.638>
VStem: 95 159<-34.8673 615.812>
LayerCount: 2
Fore
SplineSet
14 501.010742188 m 5
 382 501.010742188 l 5
 382 373 l 5
 14 373 l 5
 14 501.010742188 l 5
95 31.9892578125 m 6
 95 570.010742188 l 6
 95 684.97265625 152.741210938 761.010742188 292 761.010742188 c 4
 368.84765625 761.010742188 422 745.010742188 422 745.010742188 c 5
 408 619.010742188 l 5
 408 619.010742188 374.662109375 630.010742188 328 630.010742188 c 4
 275.900390625 630.010742188 254 608.022460938 254 557.010742188 c 6
 254 20.9892578125 l 6
 254 -106.010742188 196.25862069 -190.010742188 57 -190.010742188 c 4
 -19.8476681593 -190.010742188 -73 -174.010742188 -73 -174.010742188 c 5
 -59 -40.0107421875 l 5
 -59 -40.0107421875 -25.6624098558 -51.0107421875 21 -51.0107421875 c 4
 73.0999023437 -51.0107421875 95 -26.0107421875 95 31.9892578125 c 6
EndSplineSet
Validated: 5
EndChar

StartChar: uni01B7
Encoding: 439 439 191
Width: 584
Flags: W
HStem: -9.99805 144.938<124.726 345.691> 585 146<40 323>
VStem: 386.827 168.084<172.423 289.519>
AnchorPoint: "Anchor-0" 289 731 basechar 0
LayerCount: 2
Fore
SplineSet
361 433 m 1
 361 433 554.911132812 432.703810574 554.911132812 215.670898438 c 0
 554.911132812 54.5415650062 433.02124641 -9.998046875 250 -9.998046875 c 0
 102.934570312 -9.998046875 15.451171875 40.9091796875 15.451171875 40.9091796875 c 1
 62.7744140625 186.262695312 l 1
 62.7744140625 186.262695312 132.940111203 134.939453125 243 134.939453125 c 0
 342.493855406 134.939453125 386.827148438 169.567694896 386.827148438 232 c 0
 386.827148438 295.721212312 341.001445509 326.430608796 253.138671875 326.737304688 c 2
 164 327 l 1
 164 403 l 5
 323 585 l 1
 40 585 l 1
 40 731 l 1
 534 731 l 1
 534 625 l 1
 361 433 l 1
EndSplineSet
Validated: 1
EndChar

StartChar: uni0292
Encoding: 658 658 192
Width: 524
Flags: W
HStem: -189.994 134.938<80.7788 307.105> 365.011 136<44 267>
VStem: 341.827 153.084<-22.2357 84.6212>
AnchorPoint: "Anchor-0" 260 501.011 basechar 0
LayerCount: 2
Fore
SplineSet
311 216 m 1
 311 216 494.911132812 215.729710263 494.911132812 17.6748046875 c 0
 494.911132812 -130.60239263 381.016355364 -189.994140625 210 -189.994140625 c 0
 94.2852768714 -189.994140625 25.451171875 -159.086914062 25.451171875 -159.086914062 c 1
 57.7744140625 -23.7333984375 l 1
 57.7744140625 -23.7333984375 116.260465923 -55.056640625 208 -55.056640625 c 0
 300.576256296 -55.056640625 341.827148438 -23.2825547708 341.827148438 34.00390625 c 0
 341.827148438 89.6538044129 296.001483054 116.564605144 208.138671875 116.741210938 c 2
 124 117.00390625 l 1
 124 193.00390625 l 1
 267 365.010742188 l 1
 44 365.010742188 l 1
 44 501.010742188 l 1
 474 501.010742188 l 1
 474 405.010742188 l 1
 311 216 l 1
EndSplineSet
Validated: 1
EndChar

StartChar: Oslash
Encoding: 216 216 193
Width: 797
Flags: W
HStem: -9.99805 152.462<299.632 498.145> 586.659 152.462<299.632 498.145>
VStem: 35 164.849<245.278 483.845> 597.929 164.849<245.278 483.845>
AnchorPoint: "Anchor-0" 399 731 basechar 0
AnchorPoint: "Anchor-2" 398 0 basechar 0
AnchorPoint: "Anchor-3" 451 20 basechar 0
LayerCount: 2
Fore
SplineSet
151.5 -91.4697265625 m 1
 536.5 801.403320312 l 1
 645.5 801.403320312 l 1
 260.5 -91.4697265625 l 1
 151.5 -91.4697265625 l 1
EndSplineSet
Refer: 1 79 N 1 0 0 1 0 0 2
Validated: 5
EndChar

StartChar: oslash
Encoding: 248 248 194
Width: 589
Flags: W
HStem: -9.99805 142.462<228.39 360.278> 368.284 142.649<227.441 361.284>
VStem: 35 154.849<169.94 330.841> 399.929 154.849<170.999 329.837>
AnchorPoint: "Anchor-0" 294 501.011 basechar 0
AnchorPoint: "Anchor-2" 294 0 basechar 0
AnchorPoint: "Anchor-3" 377 28 basechar 0
LayerCount: 2
Fore
SplineSet
57.5 -91.4697265625 m 1
 418.5 581.403320312 l 1
 531.5 581.403320312 l 1
 170.5 -91.4697265625 l 1
 57.5 -91.4697265625 l 1
EndSplineSet
Refer: 29 111 N 1 0 0 1 0 0 2
Validated: 5
EndChar

StartChar: ring
Encoding: 730 730 197
Width: 355
Flags: W
HStem: 480.07 91.8965<139.648 215.259> 668.918 92.084<139.182 217.662>
VStem: 30 102.953<577.241 663.667> 222.824 102.953<577.241 663.667>
LayerCount: 2
Fore
SplineSet
132.953125 622.396484375 m 4
 132.953125 592.156361807 146.144002333 571.966796875 176.99609375 571.966796875 c 4
 209.098880896 571.966796875 222.82421875 592.156361807 222.82421875 622.396484375 c 4
 222.82421875 650.293253547 209.128609441 668.91796875 177.094726562 668.91796875 c 4
 146.173730262 668.91796875 132.953125 650.293253547 132.953125 622.396484375 c 4
30 622.629882812 m 0
 30 706.358572334 85.5795398627 761.001953125 176.888671875 761.001953125 c 0
 269.440983255 761.001953125 325.77734375 706.358572334 325.77734375 622.629882812 c 0
 325.77734375 536.367848721 269.440983255 480.0703125 176.888671875 480.0703125 c 0
 85.5795398627 480.0703125 30 536.367848721 30 622.629882812 c 0
EndSplineSet
Validated: 1
EndChar

StartChar: ogonek
Encoding: 731 731 198
Width: 307
VWidth: 999
Flags: W
HStem: -255 92<153.517 262.728>
VStem: 30 115<-154.943 -46.049>
LayerCount: 2
Fore
SplineSet
30 -130 m 4
 30 -30.5220125786 118 39 118 39 c 5
 228 39 l 1
 228 39 145 -29.3503184713 145 -108 c 0
 145 -147.542211416 166.019740513 -163 203 -163 c 0
 241.620592949 -163 259 -149 259 -149 c 1
 277 -232 l 1
 277 -232 244.426287616 -255 179 -255 c 0
 87.250976562 -255 30 -210.528428819 30 -130 c 4
EndSplineSet
Validated: 1
EndChar

StartChar: minute
Encoding: 8242 8242 203
Width: 235
Flags: W
HStem: 456 275.008<81 114>
VStem: 1 233
LayerCount: 2
Fore
SplineSet
1 456 m 1
 81 731.0078125 l 1
 234 731.0078125 l 1
 114 456 l 1
 1 456 l 1
EndSplineSet
Validated: 1
EndChar

StartChar: bullet
Encoding: 8226 8226 206
Width: 325
Flags: W
HStem: 230 266.449<85.3476 239.878>
VStem: 30 265.227<285.603 440.846>
LayerCount: 2
Fore
SplineSet
30 363.224609375 m 0
 30 443.933641339 82.2730339411 496.44921875 162.612304688 496.44921875 c 0
 242.95246273 496.44921875 295.2265625 443.933641339 295.2265625 363.224609375 c 0
 295.2265625 282.514181833 242.95246273 230 162.612304688 230 c 4
 82.2730339411 230 30 282.514181833 30 363.224609375 c 0
EndSplineSet
Validated: 1
EndChar

StartChar: dagger
Encoding: 8224 8224 207
Width: 530
Flags: W
HStem: 360.011 141<30 500>
VStem: 175.5 179<-171.47 -32.0601> 205.5 119<287.357 542.714>
LayerCount: 2
Fore
SplineSet
175.5 -171.469726562 m 1xc0
 205.5 427 l 1
 185.5 759.469726562 l 1
 344.5 759.469726562 l 1
 324.5 426 l 5xa0
 354.5 -171.469726562 l 1
 175.5 -171.469726562 l 1xc0
30 360.010742188 m 1
 30 501.010742188 l 1
 500 501.010742188 l 1
 500 360.010742188 l 1
 30 360.010742188 l 1
EndSplineSet
Validated: 5
EndChar

StartChar: daggerdbl
Encoding: 8225 8225 208
Width: 530
Flags: W
HStem: 70.0107 141<30 500> 410.011 141<30 500>
LayerCount: 2
Fore
SplineSet
30 70.0107421875 m 5
 30 211.010742188 l 5
 500 211.010742188 l 5
 500 70.0107421875 l 5
 30 70.0107421875 l 5
185.5 -171.469726562 m 1
 205.5 137 l 5
 185.5 317 l 1
 205.5 477 l 1
 185.5 759.469726562 l 1
 344.5 759.469726562 l 1
 324.5 476 l 1
 344.5 318 l 1
 324.5 136 l 5
 344.5 -171.469726562 l 1
 185.5 -171.469726562 l 1
30 410.010742188 m 1
 30 551.010742188 l 1
 500 551.010742188 l 1
 500 410.010742188 l 1
 30 410.010742188 l 1
EndSplineSet
Validated: 5
EndChar

StartChar: uni2116
Encoding: 8470 8470 209
Width: 1126
Flags: W
HStem: 0 21G<55 214 482.371 664> 239 99<738 1068> 378.061 116.526<859.989 957.413> 622.278 116.714<857.252 957.845> 711.008 20G<55 236.997 505 664>
VStem: 55 159<0 445.005> 505 159<298.6 731.008> 724.111 122.412<506.584 610.049> 969.477 122.412<507.03 609.635>
LayerCount: 2
Fore
SplineSet
738 338 m 5xe780
 1068 338 l 5
 1068 239 l 5
 738 239 l 5
 738 338 l 5xe780
846.5234375 560.844726562 m 0
 846.5234375 521.11328125 864.60546875 494.586914062 906.897460938 494.586914062 c 0
 950.734375 494.586914062 969.4765625 521.11328125 969.4765625 560.844726562 c 0
 969.4765625 597.68359375 950.771484375 622.278320312 907.020507812 622.278320312 c 0xf780
 864.642578125 622.278320312 846.5234375 597.68359375 846.5234375 560.844726562 c 0
724.111328125 560.620117188 m 0
 724.111328125 668.552734375 793.3125 738.9921875 907 738.9921875 c 0
 1021.93066406 738.9921875 1091.88867188 668.552734375 1091.88867188 560.620117188 c 0
 1091.88867188 450.154296875 1021.93066406 378.060546875 907 378.060546875 c 0
 793.3125 378.060546875 724.111328125 450.154296875 724.111328125 560.620117188 c 0
55 0 m 1
 55 731.0078125 l 1
 224 731.0078125 l 1
 505 298.599609375 l 1
 505 731.0078125 l 1
 664 731.0078125 l 1xef80
 664 0 l 1
 495 0 l 1
 214 445.004882812 l 1
 214 0 l 1
 55 0 l 1
EndSplineSet
Validated: 1
EndChar

StartChar: uni20BF
Encoding: 8383 8383 210
Width: 640
Flags: W
HStem: 0 146.462<264 342.79> 0 69.4697<125 264 345 484> 294.656 141.695<164 401.529> 584.546 146.462<264 343.081> 655 76.0078<125 264 345 462.681>
VStem: 125 139<-105 69.4697 655 829.47> 164 60<294.656 436.352> 345 139<-105 69.4697 655 829.47> 422.929 163.849<458.719 560.439> 445.929 163.849<170.562 273.171>
LayerCount: 2
Fore
SplineSet
345 -105 m 1x61
 345 69.4697265625 l 1
 484 69.4697265625 l 1
 484 -105 l 1
 345 -105 l 1x61
345 655 m 1x29
 345 829.469726562 l 1
 484 829.469726562 l 1
 484 655 l 1
 345 655 l 1x29
125 -105 m 1x64
 125 69.4697265625 l 1
 264 69.4697265625 l 1
 264 -105 l 1
 125 -105 l 1x64
125 655 m 1x2c
 125 829.469726562 l 1
 264 829.469726562 l 1
 264 655 l 1
 125 655 l 1x2c
496.662109375 376.4375 m 1
 496.662109375 376.4375 609.77734375 342.813198592 609.77734375 206.446289062 c 0
 609.77734375 56.225709353 485.197709119 -1.54459778301e-14 345.888671875 0 c 2
 55 0 l 1
 55 731.0078125 l 1x6840
 324.888671875 731.0078125 l 2
 462.6809962 731.0078125 586.77734375 674.782103147 586.77734375 524.561523438 c 0x3080
 586.77734375 408.693422378 496.662109375 376.4375 496.662109375 376.4375 c 1
224 146.46 m 1xb280
 333.888671875 146.461914062 l 2
 397.962334358 146.462742481 445.928710938 160.481816919 445.928710938 221.446289062 c 0xb240
 445.928710938 281.40158586 398.031387966 294.453598187 333.888671875 294.545898438 c 2
 164 294.65625 l 1
 164 436.3515625 l 1
 311.888671875 436.461914062 l 2
 375.458733485 436.593583946 422.928710938 449.60622664 422.928710938 509.561523438 c 0
 422.928710938 570.525995581 375.459011776 584.492809961 311.888671875 584.545898438 c 2
 224 584.649414062 l 1
 224 146.46 l 1xb280
EndSplineSet
Validated: 5
EndChar

StartChar: uni20A6
Encoding: 8358 8358 211
Width: 874
Flags: W
HStem: 0 21G<151 310 549.719 730> 259 86<30 234 640 844> 389 86<30 234 640 844> 711.008 20G<151 331.609 571 730>
VStem: 151 159<0 259 345 389> 151 83<259 345 389 475> 571 159<345 389 475 731.008> 640 90<259 345 389 475>
LayerCount: 2
Fore
SplineSet
844 259 m 5xf1
 640 259 l 5
 640 345 l 5
 844 345 l 5
 844 259 l 5xf1
844 389 m 5
 640 389 l 5
 640 475 l 5
 844 475 l 5
 844 389 l 5
234 259 m 5xf4
 30 259 l 5
 30 345 l 5
 234 345 l 5
 234 259 l 5xf4
234 389 m 5
 30 389 l 5
 30 475 l 5
 234 475 l 5
 234 389 l 5
151 0 m 1xf9
 151 731.0078125 l 1
 320 731.0078125 l 1
 571 298.599609375 l 1
 571 731.0078125 l 1
 730 731.0078125 l 1xf6
 730 0 l 1
 561 0 l 1
 310 445.004882812 l 1
 310 0 l 1
 151 0 l 1xf9
EndSplineSet
Validated: 5
EndChar

StartChar: uni20BD
Encoding: 8381 8381 212
Width: 703
Flags: W
HStem: 0 21G<131 300> 158.352 86<30 544> 288.352 118<30 471.363> 584.649 146.358<300 471.739>
VStem: 131 169<0 584.649> 502.929 165.849<434.918 554.696>
LayerCount: 2
Fore
SplineSet
544 158.3515625 m 1
 30 158.3515625 l 1
 30 244.3515625 l 1
 544 244.3515625 l 1
 544 158.3515625 l 1
30 288.3515625 m 1
 30 406.3515625 l 1
 383.888671875 406.461914062 l 2
 452.0390625 406.55859375 502.928710938 422.302734375 502.928710938 494.561523438 c 0
 502.928710938 567.721679688 452.0390625 584.454101562 383.888671875 584.545898438 c 2
 300 584.649414062 l 1
 300 0 l 1
 131 0 l 1
 131 731.0078125 l 1
 384.888671875 731.0078125 l 2
 567.502929688 731.0078125 668.77734375 661.165039062 668.77734375 494.561523438 c 0
 668.77734375 361.174804688 577.397460938 288.3515625 423 288.3515625 c 2
 30 288.3515625 l 1
EndSplineSet
Validated: 5
EndChar

StartChar: dong
Encoding: 8363 8363 213
Width: 645
Flags: W
HStem: 0 86<30 594> 150.002 125.649<234.579 351.383> 464.472 123.462<234.888 359.952> 619 81<301 615> 731.002 20G<386 545>
VStem: 51.0713 154.849<304.179 435.928> 386 159<355.374 751.002> 386 67.8486<387.374 504.496>
LayerCount: 2
Fore
SplineSet
594 0 m 1xfc
 30 0 l 1
 30 86 l 1
 594 86 l 1
 594 0 l 1xfc
615 619 m 1
 301 619 l 1
 301 700 l 1
 615 700 l 1
 615 619 l 1
545 160 m 1xfe
 386 160 l 1xfd
 386 751.001953125 l 1
 545 751.001953125 l 1
 545 160 l 1xfe
386 385.374023438 m 5xfe
 386 423.91015625 362.8359375 464.471679688 296.959960938 464.471679688 c 4
 236.688476562 464.471679688 205.919921875 425.599609375 205.919921875 367.374023438 c 4
 205.919921875 312.372070312 236.654296875 275.651367188 296.848632812 275.651367188 c 4
 362.801757812 275.651367188 386 307.568359375 386 355.374023438 c 5xfe
 448.848632812 367.374023438 l 5
 448.848632812 237.6953125 382.534179688 150.001953125 255 150.001953125 c 0
 115.463867188 150.001953125 51.0712890625 241.89453125 51.0712890625 367.374023438 c 0
 51.0712890625 496.59765625 121.975585938 587.93359375 259.959960938 587.93359375 c 0
 392.349609375 587.93359375 453.848632812 504.49609375 453.848632812 387.374023438 c 5xfd
 386 385.374023438 l 5xfe
EndSplineSet
Validated: 5
EndChar

StartChar: uni1E9E
Encoding: 7838 7838 220
Width: 743
Flags: W
HStem: -10 133.124<338.878 526.471> 0 21G<55 224> 585.008 146<263.633 461>
VStem: 55 169<0 539.977> 560 158<156.948 283.795>
LayerCount: 2
Fore
SplineSet
55 478 m 2x78
 55 656 140 731.0078125 330 731.0078125 c 2
 665 731.0078125 l 1
 665 641.0078125 l 1
 525 425 l 1
 594 425 718 387 718 218 c 0
 718 64 625 -10 472 -10 c 0
 355.880859375 -10 305 26 305 26 c 1
 338 147 l 1
 338 147 380 123.124023438 450.015625 123.124023438 c 0xb8
 517 123.124023438 560 156 560 222 c 0
 560 289 518 319 419 319 c 2
 341 319 l 1
 341 389 l 1
 461 585.0078125 l 1
 345 585.0078125 l 2
 253 585.0078125 224 543 224 445.0078125 c 2
 224 0 l 1
 55 0 l 1
 55 478 l 2x78
EndSplineSet
Validated: 1
EndChar

StartChar: germandbls
Encoding: 223 223 221
Width: 725
Flags: W
HStem: -9.99805 118.964<352.209 526.67> 0 21G<55 214> 490.934 20G<443.603 508.015> 626.011 135<270.349 471.899>
VStem: 55 159<0 572.185> 305.204 159.504<326.489 384.725> 517.772 158.846<510.782 583.133> 533.026 157.663<118.066 173.07>
LayerCount: 2
Fore
SplineSet
214 487.010742188 m 2xbe
 214 0 l 1
 55 0 l 1
 55 500.010742188 l 2
 55 664.97265625 132.741210938 761.010742188 361 761.010742188 c 0
 628.457757296 761.010742188 676.618164062 642 676.618164062 475.764648438 c 0x7e
 676.618164062 413.606445312 663 366 663 366 c 1
 663 366 593.645792816 391.899414062 527.3203125 391.899414062 c 0
 484.130859375 391.899414062 464.708007812 378.448242188 464.708007812 356.756835938 c 0
 464.708007812 336.291015625 478.036082658 324.3224157 522.366210938 312.091796875 c 0
 653.871883773 275.809570312 690.689453125 230.274414062 690.689453125 145.40234375 c 0
 690.689453125 49.630859375 617.982421875 -9.998046875 481.856445312 -9.998046875 c 0
 365.043945312 -9.998046875 291 26.5625 291 26.5625 c 1
 322.80859375 144.62890625 l 1
 322.80859375 144.62890625 384.367049732 108.965820312 459.838867188 108.965820312 c 0
 509.420898438 108.965820312 533.026367188 121.625976562 533.026367188 146.182617188 c 0xbd
 533.026367188 166.076171875 520.853386296 175.386665271 463.895507812 189.583984375 c 0
 339.44117073 220.60546875 305.204101562 271.704101562 305.204101562 353 c 0
 305.204101562 451.381835938 381.188242298 510.93359375 506.017578125 510.93359375 c 0
 510.01171875 510.93359375 513.9296875 510.881835938 517.772460938 510.782226562 c 1
 515.12703354 592.456008252 474.097283925 626.010742188 372 626.010742188 c 4
 261 626.010742188 214 584.515109592 214 487.010742188 c 2xbe
EndSplineSet
Validated: 1
EndChar

StartChar: uni2113
Encoding: 8467 8467 222
Width: 619
Flags: W
HStem: -10 141.13<300.249 484.447> 630.872 130.13<322.27 413.674>
VStem: 83 169.229<140.621 505.723> 425.644 147.496<495.304 620.112>
LayerCount: 2
Fore
SplineSet
83 290.099609375 m 4
 83 600.148191607 181.647594244 761.001953125 367.400390625 761.001953125 c 4
 514.877449269 761.001953125 573.139648438 663.575664612 573.139648438 572.70703125 c 4
 573.139648438 226.065150067 19 166 19 166 c 1
 5 286 l 1
 5 286 425.643554688 352.479757309 425.643554688 568.001953125 c 4
 425.643554688 607.516601562 406.40000664 630.872070312 369.400390625 630.872070312 c 4
 286.827644919 630.872070312 252.229492188 498.74764872 252.229492188 305.875 c 4
 252.229492188 192.426677325 273.482421875 131.129882812 381 131.129882812 c 4
 463.722527242 131.129882812 520.958007812 171.424804688 520.958007812 171.424804688 c 5
 563 42 l 5
 563 42 502.068063888 -10 367.400390625 -10 c 4
 183.69140625 -10 83 88.8153053385 83 290.099609375 c 4
EndSplineSet
Validated: 5
EndChar

StartChar: uni20B8
Encoding: 8376 8376 223
Width: 614
Flags: W
HStem: 0 21G<222.5 391.5> 365 146<30 222.5 391.5 584> 365 116<222.5 391.5> 585 146<30 584>
VStem: 222.5 169<0 481>
LayerCount: 2
Fore
SplineSet
584 585 m 5x98
 30 585 l 5
 30 731 l 5
 584 731 l 5
 584 585 l 5x98
584 365 m 1xd8
 30 365 l 1
 30 511 l 1
 584 511 l 1
 584 365 l 1xd8
222.5 0 m 1
 222.5 481 l 1
 391.5 481 l 1xb8
 391.5 0 l 1
 222.5 0 l 1
EndSplineSet
Validated: 5
EndChar

StartChar: uni20BC
Encoding: 8380 8380 224
Width: 839
Flags: W
HStem: 0 21G<55 224 335 504 611.777 780.777> 418.544 152.462<303.405 532.373> 711.008 20G<335 504>
VStem: 55 169<0 341.359> 335 169<0 731.008> 611.777 169<0 341.359>
LayerCount: 2
Fore
SplineSet
417.888671875 571.005859375 m 4
 688.89744862 571.005859375 780.77734375 442.835632237 780.77734375 246.446289062 c 6
 780.77734375 0 l 1
 611.77734375 0 l 1
 611.77734375 216.446289062 l 6
 611.77734375 337.634508782 585.044855789 418.543945312 417.888671875 418.543945312 c 4
 250.732487961 418.543945312 224 337.634508782 224 216.446289062 c 6
 224 0 l 1
 55 0 l 1
 55 246.446289062 l 6
 55 442.835632237 146.87989513 571.005859375 417.888671875 571.005859375 c 4
335 0 m 1
 335 731.0078125 l 1
 504 731.0078125 l 1
 504 0 l 1
 335 0 l 1
EndSplineSet
Validated: 5
EndChar

StartChar: Ohorn
Encoding: 416 416 225
Width: 797
Flags: W
HStem: -9.99805 152.462<299.632 498.145> 586.659 152.462<299.632 498.145>
VStem: 35 164.849<245.278 483.845> 583.16 136.76<672.574 813.507> 597.929 164.849<245.278 483.845>
AnchorPoint: "Anchor-0" 359 731 basechar 0
AnchorPoint: "Anchor-2" 398 0 basechar 0
AnchorPoint: "Anchor-3" 471 20 basechar 0
LayerCount: 2
Fore
SplineSet
553.080078125 825.799804688 m 1xf0
 697.759765625 825.799804688 l 1
 697.759765625 825.799804688 719.919921875 795.200195312 719.919921875 738.9921875 c 0
 719.919921875 645 637.599609375 592.639648438 637.599609375 592.639648438 c 1
 538.16015625 641.360351562 l 1
 538.16015625 641.360351562 583.16015625 688 583.16015625 733.729492188 c 0
 583.16015625 790.55078125 553.080078125 825.799804688 553.080078125 825.799804688 c 1xf0
EndSplineSet
Refer: 1 79 N 1 0 0 1 0 0 2
Validated: 5
EndChar

StartChar: ohorn
Encoding: 417 417 226
Width: 589
Flags: W
HStem: -9.99805 142.462<228.39 360.278> 368.284 142.649<227.441 361.284>
VStem: 35 154.849<169.94 330.841> 399.929 154.849<170.999 329.837> 409.16 130.76<462.574 603.507>
AnchorPoint: "Anchor-0" 224 501.011 basechar 0
AnchorPoint: "Anchor-2" 294 0 basechar 0
AnchorPoint: "Anchor-3" 357 28 basechar 0
LayerCount: 2
Fore
SplineSet
379.080078125 615.799804688 m 1xe8
 517.759765625 615.799804688 l 1
 517.759765625 615.799804688 539.919921875 585.200195312 539.919921875 528.9921875 c 0
 539.919921875 435 457.599609375 382.639648438 457.599609375 382.639648438 c 1
 364.16015625 431.360351562 l 1
 364.16015625 431.360351562 409.16015625 478 409.16015625 523.729492188 c 0
 409.16015625 580.55078125 379.080078125 615.799804688 379.080078125 615.799804688 c 1xe8
EndSplineSet
Refer: 29 111 N 1 0 0 1 0 0 2
Validated: 5
EndChar

StartChar: Uhorn
Encoding: 431 431 227
Width: 777
Flags: W
HStem: -9.99805 152.462<270.583 445.194> 661 164.8<628 712.142> 711.008 20G<55 224 491.777 660.777>
VStem: 55 169<191.346 731.008> 491.777 169<191.346 731.008> 607 140<737.954 815.378>
AnchorPoint: "Anchor-0" 342 731 basechar 0
AnchorPoint: "Anchor-2" 358 0.0117188 basechar 0
AnchorPoint: "Anchor-3" 451 18 basechar 0
LayerCount: 2
Fore
SplineSet
573.080078125 825.799804688 m 1xd4
 717.759765625 825.799804688 l 1
 717.759765625 825.799804688 747 800 747 752 c 0
 747 692 699 661 628 661 c 1
 534 731.0078125 l 1
 568 731.0078125 607 732.480474404 607 770 c 0
 607 804 573.080078125 825.799804688 573.080078125 825.799804688 c 1xd4
EndSplineSet
Refer: 6 85 N 1 0 0 1 0 0 2
Validated: 5
EndChar

StartChar: uhorn
Encoding: 432 432 228
Width: 660
Flags: W
HStem: -9.92285 130.649<237.092 345.089> 0 21G<381.777 540.777> 481.011 20G<55 214 381.777 540.777>
VStem: 55 159<147.523 501.011> 381.777 159<207.449 501.011> 490 140<509.138 596.83>
AnchorPoint: "Anchor-0" 272 501.011 basechar 0
AnchorPoint: "Anchor-2" 302 0.0117188 basechar 0
AnchorPoint: "Anchor-3" 454 0 basechar 0
LayerCount: 2
Fore
SplineSet
447.759765625 615.799804688 m 1x34
 592.439453125 615.799804688 l 1
 592.439453125 615.799804688 630 584.757147576 630 527.002929688 c 0
 630 463.706226391 582 431.002929688 511 431.002929688 c 1
 417 501.010742188 l 1
 451 501.010742188 490 502.67223835 490 545.002929688 c 0
 490 588.140961505 447.759765625 615.799804688 447.759765625 615.799804688 c 1x34
EndSplineSet
Refer: 50 117 N 1 0 0 1 0 0 2
Validated: 5
EndChar

StartChar: integral
Encoding: 8747 8747 229
Width: 448
Flags: W
HStem: -190.011 139<-60.6385 76.258> 630.011 131<321.143 459.638>
LayerCount: 2
Fore
SplineSet
95 31.9892578125 m 2
 145 570.010742188 l 2
 155.684422554 684.979719828 202.741210938 761.010742188 342 761.010742188 c 0
 418.84765625 761.010742188 472 745.010742188 472 745.010742188 c 1
 458 619.010742188 l 1
 458 619.010742188 424.662109375 630.010742188 378 630.010742188 c 0
 325.900390625 630.010742188 308.809794327 608.573804077 304 557.010742188 c 2
 254 20.9892578125 l 2
 242.163173827 -105.906604899 196.25862069 -190.010742188 57 -190.010742188 c 0
 -19.8476681593 -190.010742188 -73 -174.010742188 -73 -174.010742188 c 1
 -59 -40.0107421875 l 1
 -59 -40.0107421875 -25.6624098558 -51.0107421875 21 -51.0107421875 c 0
 73.0999023437 -51.0107421875 89.5638968125 -26.5055483109 95 31.9892578125 c 2
EndSplineSet
Validated: 1
EndChar

StartChar: dotlessi
Encoding: 305 305 231
Width: 269
Flags: W
HStem: 0 21G<55 214> 481.011 20G<55 214>
VStem: 55 159<0 501.011>
AnchorPoint: "Anchor-2" 137 0 basechar 0
AnchorPoint: "Anchor-3" 141 0 basechar 0
AnchorPoint: "Anchor-0" 134 501.011 basechar 0
LayerCount: 2
Fore
SplineSet
55 0 m 1
 55 501.010742188 l 1
 214 501.010742188 l 1
 214 0 l 1
 55 0 l 1
EndSplineSet
Validated: 1
EndChar

StartChar: uni0237
Encoding: 567 567 232
Width: 269
Flags: W
HStem: -190 139<-100.638 37.3453> 481.011 20G<55 214>
VStem: 55 159<-34.8565 501.011>
AnchorPoint: "Anchor-2" 17 -179.988 basechar 0
AnchorPoint: "Anchor-0" 134 501.011 basechar 0
LayerCount: 2
Fore
SplineSet
55 32 m 2
 55 501.010742188 l 1
 214 501.010742188 l 1
 214 21 l 2
 214 -106 156.25862069 -190 17 -190 c 0
 -59.8476681593 -190 -113 -174 -113 -174 c 1
 -99 -40 l 1
 -99 -40 -65.6624098558 -51 -19 -51 c 0
 33.0999023437 -51 55 -26 55 32 c 2
EndSplineSet
Validated: 1
EndChar

StartChar: uni20B3
Encoding: 8371 8371 233
Width: 824
Flags: W
HStem: 0 21G<67.5 252.964 571.481 756.5> 139 86<30 794> 269 86<60 764> 711.008 20G<320.387 513.34>
LayerCount: 2
Fore
SplineSet
506.5 731.0078125 m 1
 756.5 0 l 1
 577.5 0 l 1
 417.893554688 530.313476562 l 1
 246.5 0 l 1
 67.5 0 l 1
 327.5 731.0078125 l 1
 506.5 731.0078125 l 1
764 269 m 1
 60 269 l 1
 60 355 l 1
 764 355 l 1
 764 269 l 1
794 139 m 1
 30 139 l 1
 30 225 l 1
 794 225 l 1
 794 139 l 1
EndSplineSet
Validated: 5
EndChar

StartChar: hookabovecomb
Encoding: 777 777 234
Width: 0
Flags: W
HStem: 468 114.049<46.9332 153.083> 644.229 94.7637<17.7829 150.704>
VStem: 45.1816 109.956<468 518.653> 153.854 120.774<585.716 638.442>
AnchorPoint: "Anchor-0" 103 427 mark 0
LayerCount: 2
Fore
SplineSet
153.645507812 518.653320312 m 1xd0
 155.137695312 468 l 1
 45.181640625 468 l 1xe0
 46.9150390625 586.46875 l 1
 46.9150390625 586.46875 71.8505859375 582.048828125 103.157226562 582.048828125 c 0
 137.447265625 582.048828125 153.854492188 591.857421875 153.854492188 610.145507812 c 0
 153.854492188 633.783203125 131.88671875 644.228515625 99.6533203125 644.228515625 c 0
 53.150390625 644.228515625 22.6826171875 624.958007812 22.6826171875 624.958007812 c 1
 0 715.311523438 l 1
 0 715.311523438 41.0869140625 738.9921875 111.653320312 738.9921875 c 0
 207.166992188 738.9921875 274.62890625 702.759765625 274.62890625 614.010742188 c 0
 274.62890625 548.908203125 228.423828125 517.59375 176.758789062 517.59375 c 0
 161.661132812 517.59375 153.645507812 518.653320312 153.645507812 518.653320312 c 1xd0
EndSplineSet
Validated: 1
EndChar

StartChar: uni20B1
Encoding: 8369 8369 235
Width: 844
Flags: W
HStem: 0 21G<151 320> 224 142.352<260 507.088> 339 86<30 234 610 814> 469 86<30 234 610 814> 584.649 146.358<320 507.416>
VStem: 151 83<339 425 469 555> 260 60<224 366.352> 610 101.777<339 425 469 555>
LayerCount: 2
Fore
SplineSet
814 339 m 5xbf
 610 339 l 5
 610 425 l 5
 814 425 l 5
 814 339 l 5xbf
814 469 m 5
 610 469 l 5
 610 555 l 5
 814 555 l 5
 814 469 l 5
234 339 m 1
 30 339 l 1
 30 425 l 1
 234 425 l 1
 234 339 l 1
234 469 m 1
 30 469 l 1
 30 555 l 1
 234 555 l 1
 234 469 l 1
260 224 m 1xdf
 260 366.3515625 l 1
 408.888671875 366.461914062 l 2
 488.489257812 366.581054688 547.928710938 385.899414062 547.928710938 474.561523438 c 0
 547.928710938 563.982421875 488.489257812 584.43359375 408.888671875 584.545898438 c 2
 320 584.649414062 l 1
 320 0 l 1
 151 0 l 1
 151 731.0078125 l 1
 424.888671875 731.0078125 l 2
 575.834960938 731.0078125 711.77734375 661.165039062 711.77734375 474.561523438 c 0
 711.77734375 291.297851562 574.951171875 224 424.888671875 224 c 2
 260 224 l 1xdf
EndSplineSet
Validated: 5
EndChar

StartChar: uni20A9
Encoding: 8361 8361 236
Width: 1114
Flags: W
HStem: 0 21G<250.197 481.204 642.084 872.967> 259 86<50 264 850 1064> 389 86<30 264 850 1084> 711.008 20G<115 292.206 836.728 1014>
LayerCount: 2
Fore
SplineSet
1064 259 m 5
 850 259 l 1
 850 345 l 1
 1064 345 l 5
 1064 259 l 5
1084 389 m 5
 850 389 l 1
 850 475 l 1
 1084 475 l 5
 1084 389 l 5
264 259 m 1
 50 259 l 1
 50 345 l 1
 264 345 l 1
 264 259 l 1
264 389 m 1
 30 389 l 1
 30 475 l 1
 264 475 l 1
 264 389 l 1
254 0 m 1
 115 731.0078125 l 1
 289 731.0078125 l 1
 375.606445312 190.694335938 l 1
 485 671.0078125 l 1
 644 671.0078125 l 1
 751.606445312 190.694335938 l 1
 840 731.0078125 l 1
 1014 731.0078125 l 1
 869 0 l 1
 646 0 l 1
 564.5 416.271484375 l 1
 477 0 l 1
 254 0 l 1
EndSplineSet
Validated: 5
EndChar

StartChar: franc
Encoding: 8355 8355 237
Width: 584
Flags: W
HStem: 0 21G<95 264> 109 111<30 384> 315 146<180 494> 585.008 146<264 554>
VStem: 95 169<0 315 461 585.008> 180 84<315 461>
LayerCount: 2
Fore
SplineSet
384 109 m 1xf0
 30 109 l 1
 30 220 l 1
 384 220 l 1
 384 109 l 1xf0
494 315 m 5
 180 315 l 5
 180 461 l 5xf4
 494 461 l 5
 494 315 l 5
264 585.0078125 m 1xf8
 264 0 l 1
 95 0 l 1
 95 731.0078125 l 1
 554 731.0078125 l 1
 554 585.0078125 l 1
 264 585.0078125 l 1xf8
EndSplineSet
Validated: 5
EndChar

StartChar: peseta
Encoding: 8359 8359 238
Width: 844
Flags: W
HStem: 0 21G<151 320> 224 142.352<260 507.088> 429 86<30 814> 584.649 146.358<320 507.416>
VStem: 151 169<0 224 366.352 584.649> 260 60<224 366.352> 547.929 163.849<403.745 546.498>
LayerCount: 2
Fore
SplineSet
814 429 m 1xf2
 629 429 l 1
 585 429 l 1
 265 429 l 1
 209 429 l 1
 30 429 l 1
 30 515 l 1
 211 515 l 1
 267 515 l 1
 583 515 l 1
 627 515 l 1
 814 515 l 1
 814 429 l 1xf2
260 224 m 1xf6
 260 366.3515625 l 1xf6
 408.888671875 366.461914062 l 2
 488.489302389 366.520911526 547.928710938 385.899414062 547.928710938 474.561523438 c 0
 547.928710938 563.982421875 488.489280644 584.45319926 408.888671875 584.545898438 c 2
 320 584.649414062 l 1
 320 0 l 1
 151 0 l 1
 151 731.0078125 l 1xfa
 424.888671875 731.0078125 l 2
 575.834960938 731.0078125 711.77734375 661.165039062 711.77734375 474.561523438 c 0
 711.77734375 291.297851562 574.951171875 224 424.888671875 224 c 2
 260 224 l 1xf6
EndSplineSet
Validated: 5
EndChar

StartChar: uni20BE
Encoding: 8382 8382 239
Width: 704
Flags: W
HStem: 0 146<429 674> 20.002 125.998<182.093 405.889> 586.659 152.462<293.237 438.7>
VStem: 55 174.849<251.369 488.626> 314 86<438 812> 444 86<438 812>
LayerCount: 2
Fore
SplineSet
530 812 m 1x3c
 530 733 530 733 530 438 c 1
 444 438 l 1
 444 647 444 647 444 812 c 1
 530 812 l 1x3c
400 812 m 1
 400 603 400 603 400 438 c 1
 314 438 l 1
 314 517 314 517 314 812 c 1
 400 812 l 1
674 0 m 1xbc
 30 0 l 1xbc
 30 146 l 1x7c
 674 146 l 1
 674 0 l 1xbc
405.888671875 20.001953125 m 1x7c
 182.092773438 20.001953125 55 163.967773438 55 384.561523438 c 0
 55 599.104492188 182.092773438 739.12109375 405.888671875 739.12109375 c 0
 585.744934631 739.12109375 659.681640625 670.891601562 659.681640625 670.891601562 c 1
 598.35546875 533.138671875 l 1
 598.35546875 533.138671875 540.399170357 586.659179688 422.888671875 586.659179688 c 0
 287.663085938 586.659179688 229.848632812 501.747070312 229.848632812 374.561523438 c 0
 229.848632812 237.504236814 289.494035658 146 429 146 c 1xbc
 405.888671875 20.001953125 l 1x7c
EndSplineSet
Validated: 5
EndChar

StartChar: uni030F
Encoding: 783 783 251
Width: 0
Flags: W
HStem: 516 225.008
AnchorPoint: "Anchor-0" 255 480 mark 0
LayerCount: 2
Fore
SplineSet
120 516 m 1
 0 711.0078125 l 1
 146 741.0078125 l 1
 220 536 l 1
 120 516 l 1
310 516 m 1
 190 711.0078125 l 1
 336 741.0078125 l 1
 410 536 l 1
 310 516 l 1
EndSplineSet
Validated: 1
EndChar

StartChar: uni0326
Encoding: 806 806 255
Width: 0
Flags: W
HStem: -262 262.449
VStem: 0 165.227<-139.469 -28.143>
AnchorPoint: "Anchor-2" 82 48 mark 0
LayerCount: 2
Fore
SplineSet
0 -83.232421875 m 0
 0 -32.537109375 31.8203125 0.44921875 80.7255859375 0.44921875 c 0
 131.91796875 0.44921875 165.2265625 -36.44921875 165.2265625 -103.232421875 c 0
 165.2265625 -192.141601562 78.11328125 -262 78.11328125 -262 c 1
 22.11328125 -219 l 1
 22.11328125 -219 56.6708984375 -192.53125 72.11328125 -166 c 1
 28.0615234375 -161.736328125 0 -130.086914062 0 -83.232421875 c 0
EndSplineSet
Validated: 1
EndChar

StartChar: uni031B
Encoding: 795 795 262
Width: 0
Flags: W
HStem: 497.848 233.16
VStem: 45 136.76<577.782 718.715>
LayerCount: 2
Fore
SplineSet
14.919921875 731.0078125 m 1
 159.599609375 731.0078125 l 1
 159.599609375 731.0078125 181.759765625 700.408203124 181.759765625 644.200195312 c 0
 181.759765625 550.208007812 99.439453125 497.84765625 99.439453125 497.84765625 c 1
 0 546.568359375 l 1
 0 546.568359375 45 593.208007812 45 638.9375 c 0
 45 695.758789062 14.919921875 731.0078125 14.919921875 731.0078125 c 1
EndSplineSet
Validated: 1
EndChar

StartChar: dcaron
Encoding: 271 271 410
Width: 793
Flags: W
HStem: -9.99805 135.649<230.238 354.365> 0 21G<393 552> 374.472 136.462<231.403 364.212> 731 20G<635.343 788> 731.002 20G<393 552>
VStem: 38.0713 154.849<165.582 331.957> 393 62.8486<75.1885 217.374 317.374 434.496> 393 159<217.374 751.002>
LayerCount: 2
Fore
SplineSet
641 751 m 25x34
 788 751 l 25
 693 553 l 29
 585 553 l 25
 641 751 l 25x34
EndSplineSet
Refer: 44 100 N 1 0 0 1 0 0 2
Validated: 5
EndChar

StartChar: tcaron
Encoding: 357 357 411
Width: 503
Flags: W
HStem: -10 133<260.918 369.347> 373 128.011<14 382> 731 20G<345.343 498>
VStem: 95 159<132.999 651.011>
LayerCount: 2
Fore
SplineSet
351 751 m 25
 498 751 l 25
 403 553 l 29
 295 553 l 25
 351 751 l 25
EndSplineSet
Refer: 41 116 N 1 0 0 1 0 0 2
Validated: 5
EndChar

StartChar: dcroat
Encoding: 273 273 413
Width: 652
Flags: W
HStem: -9.99805 135.649<230.238 354.365> 0 21G<393 552> 374.472 136.462<231.403 364.212> 550 121<288 622> 731.002 20G<393 552>
VStem: 38.0713 154.849<165.582 331.957> 393 62.8486<75.1885 217.374 317.374 434.496> 393 159<217.374 751.002>
LayerCount: 2
Fore
SplineSet
622 550 m 5x3c
 288 550 l 5
 288 671 l 5
 622 671 l 5
 622 550 l 5x3c
EndSplineSet
Refer: 44 100 N 1 0 0 1 0 0 2
Validated: 5
EndChar

StartChar: Tbar
Encoding: 358 358 414
Width: 614
Flags: W
HStem: 0 21G<222.5 391.5> 240 141<105 509> 585 116<222.5 391.5> 585 146<30 222.5 391.5 584>
VStem: 222.5 169<0 701>
LayerCount: 2
Fore
SplineSet
509 240 m 1xc8
 105 240 l 1
 105 381 l 1
 509 381 l 1
 509 240 l 1xc8
EndSplineSet
Refer: 17 84 S 1 0 0 1 0 0 2
Validated: 5
EndChar

StartChar: tbar
Encoding: 359 359 415
Width: 412
Flags: W
HStem: -10 133<260.918 369.347> 204 121<39 343> 373 128.011<14 382>
VStem: 95 159<132.999 651.011>
LayerCount: 2
Fore
SplineSet
343 204 m 5
 39 204 l 5
 39 325 l 5
 343 325 l 5
 343 204 l 5
EndSplineSet
Refer: 41 116 N 1 0 0 1 0 0 2
Validated: 5
EndChar

StartChar: Hbar
Encoding: 294 294 416
Width: 859
Flags: W
HStem: 0 21G<125 294 565 734> 285 146<210 634> 501.011 141<30 829> 711.008 20G<125 294 565 734>
VStem: 125 169<0 285 431 731.008> 210 84<285 431> 565 69<285 431> 565 169<0 285 431 731.008>
LayerCount: 2
Fore
SplineSet
829 501.010742188 m 5xf0
 30 498 l 1
 30 639 l 1
 829 642.010742188 l 5
 829 501.010742188 l 5xf0
EndSplineSet
Refer: 2 72 N 1 0 0 1 70 0 2
Validated: 5
EndChar

StartChar: hbar
Encoding: 295 295 417
Width: 637
Flags: W
HStem: 0 21G<97 256 423.777 582.777> 380.284 130.649<292.688 400.686> 550 121<30 364> 731.002 20G<97 256>
VStem: 97 159<0 751.002> 423.777 159<0 353.487>
LayerCount: 2
Fore
SplineSet
364 550 m 5
 30 550 l 5
 30 671 l 5
 364 671 l 5
 364 550 l 5
EndSplineSet
Refer: 36 104 N 1 0 0 1 42 0 2
Validated: 5
EndChar

StartChar: uni0123
Encoding: 291 291 419
Width: 602
Flags: W
HStem: -190 125<150.891 359.825> 10.002 125.462<231.403 361.26> 381.284 129.649<228.576 355.051> 481.011 20G<393 552> 543 262.449
VStem: 38.0713 154.849<177.16 343.451> 223 165.227<571.592 682.919> 393 159<-33.3785 39 213.562 501.011> 393 67.8486<90.3884 213.562 293.562 429.493>
AnchorPoint: "Anchor-2" 295 -179.988 basechar 0
AnchorPoint: "Anchor-0" 308 501.011 basechar 0
LayerCount: 2
Fore
SplineSet
393 39 m 2xdf
 393 501.010742188 l 1
 552 501.010742188 l 1
 552 31 l 2
 552 -102.018957346 476.672413794 -190 295 -190 c 0
 160.812148676 -190 68 -147 68 -147 c 1
 102 -22 l 1
 102 -22 174.092538687 -65 275 -65 c 0
 358.078222656 -65 393 -33.6746987952 393 39 c 2xdf
393 225.561523438 m 1
 460.848632812 213.561523438 l 1xee80
 460.848632812 90.3884234776 386.349745163 10.001953125 263.959960938 10.001953125 c 0
 123.543219098 10.001953125 38.0712890625 110.133619007 38.0712890625 263.561523438 c 0
 38.0712890625 413.245395815 119.759411379 510.93359375 262 510.93359375 c 0
 379.534336579 510.93359375 455.848632812 429.493180948 455.848632812 293.561523438 c 1
 393 285.561523438 l 1
 393 342.961950887 361.604239313 381.284179688 294.848632812 381.284179688 c 0xef
 223.446974933 381.284179688 192.919921875 334.154328255 192.919921875 263.561523438 c 0
 192.919921875 186.747313384 224.678293672 135.463867188 298.959960938 135.463867188 c 0
 364.835558052 135.463867188 393 181.666476668 393 225.561523438 c 1
EndSplineSet
Refer: 255 806 N -1 0 0 -1 388.227 543.449 2
Validated: 5
EndChar

StartChar: Lslash
Encoding: 321 321 433
Width: 612
Flags: W
HStem: 0 146<268 588> 484 20G<325.461 415.46> 711.008 20G<99 268>
VStem: 99 169<146 731.008>
LayerCount: 2
Fore
SplineSet
424 367 m 5
 30 278 l 5
 20 415 l 5
 414 504 l 5
 424 367 l 5
EndSplineSet
Refer: 7 76 N 1 0 0 1 44 0 2
Validated: 5
EndChar

StartChar: lslash
Encoding: 322 322 434
Width: 425
Flags: W
HStem: -10.0088 139<267.889 383.371> 731.002 20G<99 258>
VStem: 99 159<142.109 751.002>
LayerCount: 2
Fore
SplineSet
354 387 m 5
 30 298 l 1
 20 435 l 1
 344 524 l 5
 354 387 l 5
EndSplineSet
Refer: 35 108 N 1 0 0 1 44 0 2
Validated: 5
EndChar

StartChar: guilsinglleft
Encoding: 8249 8249 534
Width: 340
Flags: W
VStem: 35 300
LayerCount: 2
Fore
SplineSet
35 281 m 1
 175 441 l 1
 335 441 l 1
 181.75 254 l 1
 335 67 l 1
 175 67 l 1
 35 227 l 1
 35 281 l 1
EndSplineSet
Validated: 1
EndChar

StartChar: guilsinglright
Encoding: 8250 8250 535
Width: 340
Flags: W
VStem: 5 300
LayerCount: 2
Fore
SplineSet
305 227 m 1
 165 67 l 1
 5 67 l 1
 158.25 254 l 1
 5 441 l 1
 165 441 l 1
 305 281 l 1
 305 227 l 1
EndSplineSet
Validated: 1
EndChar

StartChar: uni20AE
Encoding: 8366 8366 536
Width: 614
Flags: W
HStem: 0 21G<222.5 391.5> 585 146<30 222.5 391.5 584> 585 116<222.5 391.5>
VStem: 222.5 169<0 701>
LayerCount: 2
Fore
SplineSet
584 585 m 1xd0
 30 585 l 1
 30 731 l 1
 584 731 l 1
 584 585 l 1xd0
222.5 0 m 1
 222.5 701 l 1
 391.5 701 l 1xb0
 391.5 0 l 1
 222.5 0 l 1
494 255 m 5
 120 145 l 5
 120 231 l 5
 494 341 l 5
 494 255 l 5
494 385 m 5
 120 275 l 5
 120 361 l 5
 494 471 l 5
 494 385 l 5
EndSplineSet
Validated: 5
EndChar

StartChar: estimated
Encoding: 8494 8494 537
Width: 765
Flags: W
HStem: -9.99805 119.462<307.733 612.88> 294 110<132 563> 362 42<563 613> 616.659 122.462<289.664 502.751>
VStem: 129.849 90<294 604.562> 132 37.8486<296.776 399.048> 563 90<362 624>
LayerCount: 2
Fore
SplineSet
563 624 m 1xb2
 653 624 l 1
 653 362 l 1
 563 362 l 1
 563 624 l 1xb2
129.848632812 604.561523438 m 1x9a
 219.848632812 604.561523438 l 1
 219.848632812 132.561523438 l 1
 129.848632812 132.561523438 l 1
 129.848632812 604.561523438 l 1x9a
35 364.561523438 m 0
 35 591.206054688 163.541887394 739.12109375 389.888671875 739.12109375 c 0
 653.541980974 739.12109375 740.108398438 567.014334807 740.108398438 395.891601562 c 0
 740.108398438 317.689453126 732 294 732 294 c 1
 132 294 l 1xd6
 130 404 l 1
 613 404 l 1
 613 404 636.10563179 616.659179688 395 616.659179688 c 0
 237.883301373 616.659179688 169.848632812 515.732769563 169.848632812 364.561523438 c 0xb6
 169.848632812 211.59131676 248.927080951 109.463867188 433.888671875 109.463867188 c 0
 581.720714467 109.463867188 660.018554688 146.595703125 660.018554688 146.595703125 c 1
 682.827148438 32.595703125 l 1
 682.827148438 32.595703125 604.343305548 -9.998046875 425.888671875 -9.998046875 c 0
 176.581210181 -9.998046875 35 137.916992188 35 364.561523438 c 0
EndSplineSet
Validated: 37
EndChar

StartChar: Omega
Encoding: 8486 8486 538
Width: 837
Flags: W
HStem: 0 141<30 152.328 325.825 384 453 511.489 685.166 807> 586.659 152.462<319.632 518.145>
VStem: 55 164.849<255.749 479.42> 453 354<0 141> 617.929 164.849<254.333 481.91>
LayerCount: 2
Fore
SplineSet
384 0 m 1xe8
 30 0 l 1
 30 141 l 1
 152.328125 141 l 1
 152.328125 141 55 209.322694099 55 384.561523438 c 0
 55 599.104132899 192.688476562 739.12109375 418.888671875 739.12109375 c 0
 645.088867188 739.12109375 782.77734375 599.104132899 782.77734375 384.561523438 c 0xe8
 782.77734375 209.322694099 685.166015625 141 685.166015625 141 c 5
 807 141 l 1
 807 0 l 1
 453 0 l 1
 453 141 l 1xf0
 548.533526173 161 617.928710938 230.502069705 617.928710938 364.561523438 c 0
 617.928710938 497.743164062 558.317382812 586.659179688 418.888671875 586.659179688 c 0
 279.459960938 586.659179688 219.848632812 497.743164062 219.848632812 364.561523438 c 0
 219.848632812 230.502069705 289.011007668 161 384 141 c 1
 384 0 l 1xe8
EndSplineSet
Validated: 1
EndChar

StartChar: uni2E3A
Encoding: 11834 11834 540
Width: 1080
Flags: W
HStem: 209 141<30 1050>
LayerCount: 2
Fore
SplineSet
30 209 m 1
 30 350 l 1
 1050 350 l 5
 1050 209 l 5
 30 209 l 1
EndSplineSet
Validated: 1
EndChar

StartChar: uni2E3B
Encoding: 11835 11835 541
Width: 1380
Flags: W
HStem: 209 141<30 1350>
LayerCount: 2
Fore
SplineSet
30 209 m 1
 30 350 l 1
 1350 350 l 5
 1350 209 l 5
 30 209 l 1
EndSplineSet
Validated: 1
EndChar

StartChar: pi
Encoding: 960 960 542
Width: 672
Flags: W
HStem: -10 123<468.113 629.933> 0 21G<69 234> 367 134.011<14 375 534 642>
VStem: 95 159<25.0449 501.011> 375 159<119.739 441.011>
LayerCount: 2
Fore
SplineSet
69 0 m 1x78
 69 0 95 142.430463576 95 321 c 2
 95 501.010742188 l 1
 254 501.010742188 l 1
 254 329 l 2
 254 141 234 0 234 0 c 1
 69 0 l 1x78
14 501.010742188 m 1
 642 501.010742188 l 1
 642 367 l 5
 14 367 l 5
 14 501.010742188 l 1
534 166 m 2
 534 128.963867188 547.021918403 113 578 113 c 0
 607.163411458 113 628 124 628 124 c 1
 642 6 l 1
 642 6 597.024609375 -10 532 -10 c 0xb8
 404.225967162 -10 375 58.076171875 375 161 c 2
 375 441.010742188 l 1
 534 461.010742188 l 1
 534 166 l 2
EndSplineSet
Validated: 5
EndChar

StartChar: radical
Encoding: 8730 8730 543
Width: 686
Flags: W
HStem: 0 21G<253.278 465.074> 481.011 20G<5 264.687> 711.008 20G<506.713 681>
LayerCount: 2
Fore
SplineSet
259 501.010742188 m 1
 358.606445312 150.694335938 l 1
 512 731.0078125 l 1
 681 731.0078125 l 1
 459 0 l 1
 260 0 l 5
 142.35546875 350.010742188 l 1
 15 340.010742188 l 1
 5 481.010742188 l 1
 259 501.010742188 l 1
EndSplineSet
Validated: 1
EndChar

StartChar: .notdef
Encoding: 65536 -1 727
Width: 639
Flags: W
HStem: 0 126<224 445> 50 76<194 224> 605.008 126<194 415> 605.008 75.9922<415 445>
VStem: 55 139<126 605.008>
LayerCount: 2
Fore
SplineSet
194 605.0078125 m 1x28
 194 126 l 1x68
 445 126 l 1
 445 605.0078125 l 1x98
 194 605.0078125 l 1x28
584 0 m 1xa8
 55 0 l 1
 55 731.0078125 l 1
 584 731.0078125 l 1
 584 0 l 1xa8
95 50 m 5x58
 415 681 l 1
 544 681 l 1
 224 50 l 5
 95 50 l 5x58
EndSplineSet
Validated: 5
EndChar

StartChar: R.ss01
Encoding: 65537 -1 728
Width: 663
Flags: W
HStem: 0 21G<55 224 444.387 641> 256 140.352<164 382.191> 584.649 146.358<224 403.454>
VStem: 55 169<0 256 396.352 584.649> 164 60<256 396.352> 436.929 173.849<429.006 553.825>
AnchorPoint: "Anchor-2" 342 0.0117188 basechar 0
AnchorPoint: "Anchor-0" 325 731 basechar 0
LayerCount: 2
Fore
SplineSet
305 310 m 1xe4
 452 338 l 1
 641 0 l 1
 454 0 l 1
 305 310 l 1xe4
334 256 m 2
 164 256 l 1
 164 396.3515625 l 1xec
 308.888671875 396.461914062 l 6
 382.191398959 396.514139124 436.928710938 413.202148438 436.928710938 489.561523438 c 4
 436.928710938 566.786132812 382.191383998 584.465931295 308.888671875 584.545898438 c 6
 224 584.649414062 l 1
 224 0 l 1
 55 0 l 1
 55 731.0078125 l 1xf4
 328.888671875 731.0078125 l 2
 477.204101562 731.0078125 610.77734375 666.611451897 610.77734375 494.561523438 c 0
 610.77734375 310.447579655 483.943812572 256 334 256 c 2
EndSplineSet
Validated: 5
EndChar

StartChar: a.ss02
Encoding: 65538 -1 729
Width: 602
Flags: W
HStem: -9.99805 136.462<231.403 356.467> 0 21G<393 552> 375.284 135.649<230.238 355.316> 481.011 20G<393 552>
VStem: 38.0713 154.849<168.978 335.354> 393 159<205.562 501.011> 393 62.8486<293.562 429.493>
AnchorPoint: "Anchor-2" 316 0 basechar 0
AnchorPoint: "Anchor-0" 308 501.011 basechar 0
LayerCount: 2
Fore
SplineSet
552 0 m 1x5c
 393 0 l 1x5a
 393 501.010742188 l 1
 552 501.010742188 l 1
 552 0 l 1x5c
393 205.561523438 m 1xac
 460.848632812 213.561523438 l 5
 460.848632812 78.286501689 386.349745163 -9.998046875 263.959960938 -9.998046875 c 0
 123.543219098 -9.998046875 38.0712890625 94.0826581126 38.0712890625 253.561523438 c 0
 38.0712890625 409.296356709 119.759411379 510.93359375 262 510.93359375 c 0
 379.534336579 510.93359375 455.848632812 429.493180948 455.848632812 293.561523438 c 5xaa
 393 275.561523438 l 1
 393 335.360564954 364.802215929 375.284179688 298.848632812 375.284179688 c 0
 224.644951549 375.284179688 192.919921875 326.552942321 192.919921875 253.561523438 c 0
 192.919921875 177.346966901 224.678293672 126.463867188 298.959960938 126.463867188 c 0
 364.835558052 126.463867188 393 167.025611795 393 205.561523438 c 1xac
EndSplineSet
Validated: 5
EndChar

StartChar: e.ss03
Encoding: 65539 -1 730
Width: 554
Flags: W
HStem: -9.99805 134.462<237.497 458.342> 196.001 100.682<97.0232 366.137> 386.284 124.649<223.656 338.561>
VStem: 97 92.8486<201 300>
AnchorPoint: "Anchor-0" 289 501.011 basechar 0
AnchorPoint: "Anchor-2" 302 0 basechar 0
AnchorPoint: "Anchor-3" 409 14 basechar 0
LayerCount: 2
Fore
SplineSet
35 253.561523438 m 0
 35 409.296356709 130.688210878 510.93359375 287.888671875 510.93359375 c 0
 471.815691573 510.93359375 529.465820312 382.867809077 529.465820312 274.7109375 c 0
 529.465820312 237.847866337 525 215 525 215 c 1
 525 215 422.481949643 196.000976562 212.588867188 196.000976562 c 0
 129.808224672 196.000976562 97 201 97 201 c 5
 97 300 l 5
 97 300 127.586708713 296.682617188 173.849609375 296.682617188 c 0
 315.381909656 296.682617188 368 306 368 306 c 1
 368 306 362.702745098 386.284179688 280 386.284179688 c 0
 216.848440267 386.284179688 189.848632812 336.752249355 189.848632812 262.561523438 c 0
 189.848632812 172.320332336 227.66784612 124.463867188 324 124.463867188 c 0
 411.280830889 124.463867188 461.018554688 152.595703125 461.018554688 152.595703125 c 1
 486.827148438 17.595703125 l 1
 486.827148438 17.595703125 427.295941065 -9.998046875 323.888671875 -9.998046875 c 0
 124.309918668 -9.998046875 35 94.0826581131 35 253.561523438 c 0
EndSplineSet
Validated: 5
EndChar

StartChar: y.ss04
Encoding: 65540 -1 731
Width: 539
Flags: W
HStem: 481.011 20G<5 181.173 358.689 534>
AnchorPoint: "Anchor-0" 277 501.011 basechar 0
AnchorPoint: "Anchor-2" 192 -179.994 basechar 0
LayerCount: 2
Fore
SplineSet
190 42 m 1
 5 501.010742188 l 1
 174 501.010742188 l 1
 275.606445312 217.694335938 l 1
 365 501.010742188 l 1
 534 501.010742188 l 1
 394.7578125 133.470703125 l 2
 302.14489365 -110.99336157 219 -190.994140625 219 -190.994140625 c 1
 76 -111 l 1
 76 -111 154.149468481 -43.6439678382 188.114257812 37.4951171875 c 2
 190 42 l 1
EndSplineSet
Validated: 1
EndChar

StartChar: d.ss05
Encoding: 65541 -1 732
Width: 602
Flags: W
HStem: -9.99805 135.649<230.238 354.365> 0 21G<407 566> 374.472 136.462<231.403 364.212> 731.011 20G<393 552>
VStem: 38.0713 154.849<165.582 331.957> 393 159<0.0510788 751.011> 393 62.8486<75.1885 217.374 317.374 434.496>
AnchorPoint: "Anchor-0" 473 750.002 basechar 0
AnchorPoint: "Anchor-2" 316 0 basechar 0
LayerCount: 2
Fore
SplineSet
552 751.010742188 m 1x7c
 552 160 l 2
 552 70 566 0 566 0 c 1
 407 0 l 1
 407 0 393 49.2830188679 393 136 c 2
 393 751.010742188 l 1
 552 751.010742188 l 1x7c
393 295.374023438 m 1
 393 333.91015625 364.8359375 374.471679688 298.959960938 374.471679688 c 0
 224.678710938 374.471679688 192.919921875 323.588867188 192.919921875 247.374023438 c 0
 192.919921875 174.3828125 224.64453125 125.651367188 298.848632812 125.651367188 c 0
 364.801757812 125.651367188 393 165.575195312 393 225.374023438 c 1xbc
 455.848632812 217.374023438 l 1
 455.848632812 75.1884765625 379.534179688 -9.998046875 262 -9.998046875 c 0xba
 119.759765625 -9.998046875 38.0712890625 91.6396484375 38.0712890625 247.374023438 c 0
 38.0712890625 406.852539062 123.54296875 510.93359375 263.959960938 510.93359375 c 0
 386.349609375 510.93359375 460.848632812 434.49609375 460.848632812 317.374023438 c 1
 393 295.374023438 l 1
EndSplineSet
Validated: 5
EndChar

